<svg width="672" height="487" viewBox="0 0 672 487" fill="none" xmlns="http://www.w3.org/2000/svg">
<g clip-path="url(#clip0_51_144460)">
<path d="M325.524 393.783C420.432 393.783 497.37 379.403 497.37 361.665C497.37 343.926 420.432 329.546 325.524 329.546C230.616 329.546 153.677 343.926 153.677 361.665C153.677 379.403 230.616 393.783 325.524 393.783Z" fill="url(#paint0_linear_51_144460)"/>
<path d="M443.406 300.441L458.353 354.416C458.425 354.679 458.441 354.954 458.401 355.224C458.362 355.494 458.268 355.753 458.124 355.988C457.98 356.223 457.789 356.428 457.562 356.592C457.336 356.755 457.078 356.874 456.803 356.942C456.63 356.966 456.454 356.966 456.281 356.942C455.802 356.944 455.337 356.79 454.96 356.505C454.584 356.22 454.319 355.821 454.209 355.373L439.245 301.413C439.101 300.879 439.183 300.311 439.474 299.834C439.764 299.358 440.239 299.012 440.795 298.872C441.338 298.733 441.917 298.807 442.403 299.077C442.889 299.348 443.244 299.793 443.39 300.315L443.406 300.441Z" fill="#FE4400"/>
<path d="M415.796 300.425L404.765 354.023C404.666 354.602 404.809 355.194 405.164 355.671C405.519 356.148 406.056 356.469 406.658 356.565H407.017C407.484 356.566 407.938 356.41 408.298 356.123C408.659 355.837 408.904 355.438 408.991 354.996L420.038 301.413C420.138 300.86 420.014 300.291 419.693 299.822C419.371 299.353 418.877 299.019 418.309 298.887C417.796 298.752 417.248 298.815 416.784 299.065C416.32 299.315 415.977 299.73 415.828 300.221C415.828 300.221 415.796 300.362 415.796 300.425Z" fill="#FE4400"/>
<path d="M433.387 300.645L442.982 354.416C443.026 354.713 443.008 355.015 442.93 355.305C442.852 355.595 442.715 355.868 442.526 356.107C442.338 356.346 442.103 356.547 441.834 356.698C441.565 356.85 441.267 356.949 440.958 356.989H440.665C440.201 356.994 439.751 356.838 439.397 356.55C439.044 356.262 438.81 355.861 438.739 355.42L429.112 301.649C429.034 301.089 429.175 300.522 429.506 300.055C429.837 299.589 430.336 299.257 430.907 299.123C431.4 298.981 431.931 299.034 432.384 299.27C432.837 299.505 433.174 299.904 433.322 300.378C433.354 300.464 433.376 300.554 433.387 300.645Z" fill="#FE4400"/>
<path d="M404.944 300.943L385.363 354.479C385.175 354.945 385.186 355.463 385.394 355.922C385.602 356.38 385.989 356.741 386.472 356.926C386.708 357.009 386.956 357.051 387.206 357.052C387.698 357.045 388.175 356.89 388.571 356.608C388.966 356.327 389.259 355.933 389.409 355.483L408.991 301.963C409.087 301.735 409.135 301.491 409.132 301.246C409.13 301 409.077 300.758 408.977 300.532C408.877 300.306 408.732 300.101 408.549 299.929C408.367 299.758 408.151 299.622 407.914 299.531H407.669C407.114 299.409 406.532 299.484 406.031 299.744C405.53 300.004 405.144 300.43 404.944 300.943Z" fill="#FE4400"/>
<path d="M413.299 259.504C418.194 251.204 424.836 242.998 434.333 240.252C440.191 238.542 446.506 239.138 452.544 240.127C457.09 240.661 461.482 242.052 465.468 244.222C467.454 245.319 469.136 246.86 470.372 248.714C471.607 250.569 472.36 252.682 472.566 254.876C472.492 257.414 471.939 259.918 470.935 262.266L461.992 287.01C460.817 290.258 459.545 293.662 456.852 295.937C454.177 297.851 451.067 299.126 447.779 299.656C437.123 302.214 426.386 304.771 415.42 305.085C404.454 305.399 393.097 303.265 384.138 297.24C380.875 295.074 377.872 291.262 379.602 287.826C380.956 285.237 384.497 284.546 387.5 284.687C395.414 285.001 397.715 284.123 402.382 277.893C406.641 272.135 409.693 265.639 413.299 259.504Z" fill="#505365"/>
<path d="M407.131 251.079C406.092 252.82 404.679 254.328 402.986 255.503L382.017 272.308C380.075 273.877 377.921 275.901 378.313 278.317C378.335 278.561 378.438 278.792 378.607 278.976C378.76 279.091 378.936 279.175 379.123 279.224C379.311 279.272 379.507 279.284 379.7 279.259C381.834 279.213 383.957 278.944 386.031 278.458C388.218 277.941 390.666 276.889 391.106 274.708C391.221 274.112 391.106 273.5 391.27 272.904C391.48 272.19 391.841 271.525 392.329 270.95C392.817 270.375 393.423 269.903 394.109 269.562C395.741 268.511 397.193 267.302 398.76 266.235C401.844 264.102 405.042 262.109 408.322 260.257C410.623 258.955 414.213 257.433 415.584 255.095C416.954 252.757 415.812 249.306 414.98 246.921C414.425 245.352 413.723 245.132 412.075 244.912C410.427 244.692 408.73 244.206 408.175 245.963C407.62 247.721 407.947 249.4 407.131 251.079Z" fill="#EC9C7D"/>
<path d="M442.28 240.472C438.657 242.48 435.606 240.393 434.659 236.8C434.268 235.231 434.105 233.537 433.566 231.92C432.745 229.911 431.647 228.017 430.303 226.288C428.935 224.558 427.952 222.577 427.414 220.466C427.165 219.404 427.216 218.298 427.56 217.261C427.904 216.224 428.53 215.294 429.372 214.567C429.565 214.397 429.792 214.266 430.039 214.183C430.286 214.099 430.547 214.064 430.808 214.08C431.641 214.159 432.081 215.069 432.277 215.885C432.31 216.707 432.442 217.523 432.669 218.317C432.993 218.851 433.424 219.319 433.936 219.693C434.448 220.067 435.032 220.341 435.655 220.498C438.478 221.612 441.513 222.6 443.488 224.813C445.167 226.861 445.972 229.447 445.739 232.046C445.576 234.604 444.793 239.107 442.28 240.472Z" fill="#2F3554"/>
<path d="M404.863 257.261L403.704 262.391C403.471 263.144 403.399 263.934 403.492 264.713C403.751 265.672 404.275 266.545 405.01 267.24C410.427 273.202 415.192 273.704 423.204 273.061C427.888 272.719 432.509 271.818 436.96 270.378C436.308 263.803 436.96 254.813 438.233 252.036C441.595 244.583 445.74 234.698 440.926 229.065C437.026 224.515 429.911 224.954 425.57 225.079C422.307 225.079 418.537 223.95 415.535 225.44C412.532 226.931 410.362 230.446 409.007 233.019C408.176 234.603 407.441 236.233 406.805 237.899C406.71 238.096 406.655 238.309 406.641 238.526C406.676 238.829 406.807 239.114 407.017 239.342L408.959 242.072C406.201 245.932 405.891 252.757 404.863 257.261Z" fill="white"/>
<path d="M422.91 198.641C422.412 198.857 421.967 199.172 421.605 199.567C420.691 201.02 420.04 202.612 419.679 204.274L417.15 211.178C417.15 211.178 408.86 211.319 410.623 203.332C411.52 199.127 414.278 195.205 419.076 194.797C420.179 194.809 421.275 194.956 422.339 195.236C423.602 195.456 424.895 195.456 426.158 195.236C426.647 195.142 427.235 195.032 427.594 195.362C427.736 195.514 427.822 195.707 427.839 195.911C427.857 196.115 427.805 196.318 427.692 196.491C427.448 196.82 427.123 197.085 426.745 197.26C425.587 197.809 424.118 198.06 422.91 198.641Z" fill="#2F3554"/>
<path d="M429.683 197.496C429.683 197.496 415.812 193.746 413.544 203.097C413.066 205.03 412.83 207.01 412.842 208.997V211.021C413.479 217.14 416.661 221.784 421.817 221.361C430.906 220.655 440.534 202.171 429.683 197.496Z" fill="#EC9C7D"/>
<path d="M428.051 214.975C428.218 215.133 428.444 215.221 428.679 215.221C428.914 215.221 429.139 215.133 429.307 214.975C428.293 216.441 427.661 218.12 427.463 219.87C426.761 224.907 429.307 225.126 429.307 225.126C419.859 230.21 418.456 226.696 418.456 226.696C419.062 225.876 419.417 224.908 419.477 223.903C419.538 222.898 419.302 221.898 418.798 221.016C423.09 222.145 426.957 217.281 427.692 214.52C427.757 214.705 427.883 214.864 428.051 214.975Z" fill="#D68369"/>
<path d="M419.728 196.115C420.463 195.864 421.164 195.989 421.899 195.801C422.704 195.503 423.466 195.107 424.167 194.624C426.066 193.792 428.179 193.525 430.237 193.855C431.855 193.943 433.435 194.36 434.872 195.079C435.993 195.765 436.938 196.686 437.636 197.773C438.334 198.86 438.767 200.085 438.902 201.355C439.111 203.929 438.545 206.505 437.271 208.777C437.04 209.16 436.864 209.572 436.748 210.001C436.438 211.743 438.38 212.998 439.131 214.708C439.441 215.891 439.638 217.099 439.718 218.317C440.289 220.843 442.655 222.569 444.238 224.593C445.646 226.324 446.306 228.51 446.082 230.697C441.399 228.971 436.079 229.583 431.282 228.139C430.219 227.864 429.232 227.365 428.393 226.68C427.717 225.975 427.21 225.136 426.909 224.223C426.607 223.309 426.518 222.343 426.647 221.392C426.81 220.006 427.072 218.633 427.431 217.281C427.594 216.497 427.431 215.085 428.263 214.567C428.668 214.301 429.094 214.065 429.536 213.861C430.036 213.583 430.451 213.182 430.738 212.7C431.024 212.218 431.173 211.671 431.168 211.115C431.192 210.881 431.151 210.645 431.051 210.43C430.951 210.215 430.794 210.029 430.596 209.891C430.367 209.793 430.113 209.762 429.865 209.804C429.618 209.846 429.39 209.958 429.209 210.126C428.671 210.581 428.736 211.131 428.034 211.256C427.278 211.255 426.539 211.037 425.913 210.629C421.328 208.181 419.565 201.732 418.178 197.182C418.782 197.072 419.059 196.382 419.728 196.115Z" fill="#2F3554"/>
<path d="M430.596 243.626C434.415 232.972 436.96 227.731 440.844 229.065C440.844 229.065 445.935 231.497 443.047 241.288C439.783 252.271 431.265 262.548 431.265 262.548L427.3 254.154C427.3 254.154 428.589 249.494 430.596 243.626Z" fill="#EC9C7D"/>
<path d="M390.209 282.679C390.454 282.397 391.237 281.455 392.412 280.231C392.302 280.319 392.203 280.419 392.118 280.529C391.443 281.213 390.805 281.93 390.209 282.679Z" fill="#DC9BD5"/>
<path d="M436.389 267.271C431.151 267.569 425.636 267.914 420.251 268.667C420.251 268.667 399.037 285.786 396.426 289.928C390.176 299.546 384.106 296.816 393.162 310.875L411.276 338.992C414.343 339.981 417.623 337.423 418.521 334.285C419.135 331.186 418.806 327.983 417.574 325.059C415.714 319.002 413.903 312.93 412.108 306.889C411.537 305.558 411.537 304.063 412.108 302.731C412.625 302.07 413.296 301.533 414.066 301.162C416.22 299.939 417.689 297.036 420.071 296.33C424.123 295.294 427.979 293.647 431.494 291.45C435.049 289.224 437.547 285.74 438.445 281.753C439.326 276.999 437.009 272.182 436.389 267.271Z" fill="#FE4400"/>
<path d="M420.218 268.715C415.877 269.232 408.795 267.318 408.795 267.318C402.611 269.97 395.92 276.56 392.477 280.263C391.286 281.487 390.503 282.428 390.258 282.695L389.915 283.118C386.097 287.998 383.698 293.756 381.332 299.436L369.403 328.009C368.962 328.903 368.718 329.875 368.685 330.864C368.865 334.395 373.777 335.336 377.448 335.273L393.293 310.812C393.293 310.812 390.291 302.088 396.557 289.881C398.792 285.503 420.414 268.62 420.414 268.62L420.218 268.715Z" fill="#FE4400"/>
<path d="M420.218 268.715C415.877 269.232 408.795 267.318 408.795 267.318C402.611 269.97 395.92 276.56 392.477 280.263C391.286 281.487 390.503 282.428 390.258 282.695L389.915 283.118C386.097 287.998 383.698 293.756 381.332 299.436L369.403 328.009C368.962 328.903 368.718 329.875 368.685 330.864C368.865 334.395 373.777 335.336 377.448 335.273L393.293 310.812C393.293 310.812 390.291 302.088 396.557 289.881C398.792 285.503 420.414 268.62 420.414 268.62L420.218 268.715Z" fill="url(#paint1_linear_51_144460)"/>
<path d="M411.602 341.393C411.961 340.53 412.353 339.682 412.793 338.851C413.575 338.13 414.428 337.484 415.339 336.921C415.714 336.607 417.884 334.834 417.754 334.332C418.245 336.012 418.895 337.645 419.696 339.212C420.344 340.136 420.664 341.236 420.61 342.35C420.266 343.352 419.582 344.214 418.668 344.797C415.273 347.481 411.243 350.022 406.886 349.505C406.752 349.512 406.618 349.491 406.494 349.442C406.369 349.393 406.258 349.318 406.168 349.222C406.05 349.081 405.992 348.901 406.005 348.72C406.005 346.853 407.816 345.582 409.268 344.358C410.209 343.498 410.997 342.497 411.602 341.393Z" fill="#EC9C7D"/>
<path d="M419.875 340.624C419.059 340.875 418.358 342.02 417.754 342.601C416.955 343.356 416.105 344.058 415.208 344.703C414.85 345.02 414.427 345.262 413.966 345.413C413.506 345.565 413.017 345.622 412.532 345.582C411.586 345.394 410.9 344.578 409.987 344.295C409.575 344.184 409.143 344.163 408.723 344.234C408.302 344.304 407.903 344.465 407.555 344.703C406.849 345.158 406.239 345.738 405.76 346.414C404.384 348.133 403.531 350.186 403.296 352.345C403.272 352.463 403.272 352.585 403.297 352.704C403.322 352.823 403.372 352.935 403.443 353.035C403.555 353.161 403.703 353.253 403.867 353.302C404.573 353.451 405.303 353.464 406.015 353.34C406.726 353.216 407.405 352.958 408.012 352.58C411.028 351.273 413.935 349.746 416.71 348.014C418.011 347.062 419.411 346.242 420.887 345.566C421.181 345.497 421.438 345.323 421.605 345.08C421.703 344.885 421.737 344.666 421.703 344.452C421.605 343.307 421.703 339.918 419.875 340.624Z" fill="#505365"/>
<path d="M444.581 232.172C443.634 229.724 438.821 224.122 435.557 226.413C433.475 227.906 431.984 230.037 431.331 232.454C431.021 233.568 430.906 234.76 430.613 235.906C430.221 237.318 429.601 238.667 429.34 240.095C429.1 241.607 429.073 243.142 429.258 244.661C432.359 244.243 435.448 243.803 438.527 243.343L443.161 242.637C444.026 242.512 445.788 242.841 446.196 241.978C446.391 241.476 446.425 240.93 446.294 240.409L445.919 237.883C445.691 236.015 445.265 234.175 444.646 232.391C444.632 232.316 444.61 232.242 444.581 232.172Z" fill="white"/>
<path d="M398.107 251.879L400.375 249.368C400.375 249.368 424.542 253.024 428.034 254.358C431.527 255.691 431.298 262.533 431.298 262.533C421.866 265.043 398.107 251.879 398.107 251.879Z" fill="#EC9C7D"/>
<path d="M402.448 252.569C402.368 252.85 402.203 253.101 401.974 253.291C401.721 253.426 401.445 253.516 401.158 253.558C399.445 253.95 398.123 255.252 396.508 255.864C394.943 256.729 393.111 257.035 391.335 256.727C389.755 256.268 388.262 255.569 386.913 254.656C386.067 254.205 385.311 253.616 384.677 252.914C384.364 252.56 384.152 252.134 384.06 251.678C383.969 251.222 384.001 250.75 384.155 250.31C384.677 249.054 386.293 248.646 387.696 248.458C389.586 248.192 391.5 248.113 393.407 248.223C395.039 248.333 396.671 248.819 398.303 248.913C400.555 249.039 403.312 249.839 402.448 252.569Z" fill="#EC9C7D"/>
<path d="M245.842 275.838L230.895 329.813C230.821 330.077 230.802 330.352 230.839 330.623C230.877 330.894 230.969 331.155 231.112 331.391C231.254 331.627 231.444 331.834 231.67 331.999C231.896 332.165 232.154 332.286 232.429 332.355C232.608 332.371 232.788 332.371 232.967 332.355C233.445 332.351 233.907 332.195 234.282 331.911C234.658 331.627 234.924 331.231 235.04 330.786L250.003 276.811C250.075 276.549 250.091 276.277 250.053 276.009C250.014 275.741 249.921 275.483 249.778 275.249C249.636 275.016 249.447 274.812 249.222 274.649C248.998 274.487 248.742 274.368 248.47 274.3H248.372C247.825 274.187 247.253 274.285 246.78 274.573C246.308 274.86 245.971 275.314 245.842 275.838Z" fill="#FE4400"/>
<path d="M273.518 275.838L284.549 329.421C284.648 329.999 284.504 330.592 284.149 331.068C283.795 331.545 283.257 331.867 282.656 331.963H282.297C281.829 331.963 281.376 331.807 281.016 331.52C280.655 331.234 280.41 330.835 280.323 330.394L269.275 276.811C269.177 276.259 269.301 275.692 269.622 275.226C269.944 274.759 270.438 274.428 271.005 274.3C271.511 274.16 272.055 274.218 272.517 274.462C272.979 274.706 273.321 275.116 273.469 275.603L273.518 275.838Z" fill="#FE4400"/>
<path d="M255.878 276.058L246.283 329.829C246.239 330.126 246.257 330.428 246.335 330.718C246.413 331.008 246.55 331.281 246.738 331.52C246.926 331.759 247.162 331.96 247.431 332.111C247.7 332.263 247.997 332.362 248.306 332.402H248.6C249.064 332.407 249.514 332.251 249.867 331.963C250.221 331.675 250.455 331.274 250.526 330.833L260.137 277.062C260.217 276.504 260.078 275.936 259.746 275.472C259.414 275.007 258.913 274.679 258.342 274.551C258.092 274.475 257.829 274.447 257.569 274.471C257.308 274.495 257.055 274.569 256.824 274.689C256.594 274.809 256.392 274.973 256.229 275.171C256.066 275.368 255.947 275.595 255.878 275.838V276.058Z" fill="#FE4400"/>
<path d="M284.304 276.309L303.886 329.844C304.073 330.311 304.062 330.829 303.854 331.288C303.647 331.746 303.259 332.107 302.776 332.292C302.541 332.374 302.292 332.417 302.042 332.418C301.55 332.411 301.073 332.256 300.678 331.974C300.283 331.693 299.989 331.299 299.839 330.849L280.257 277.313C280.162 277.085 280.114 276.842 280.116 276.596C280.118 276.351 280.171 276.108 280.271 275.882C280.371 275.656 280.517 275.451 280.699 275.28C280.881 275.108 281.097 274.972 281.334 274.881H281.579C282.136 274.76 282.72 274.838 283.222 275.101C283.723 275.363 284.108 275.793 284.304 276.309Z" fill="#FE4400"/>
<path d="M275.949 234.917C271.054 226.617 264.412 218.411 254.915 215.649C249.041 213.955 242.742 214.535 236.704 215.54C232.159 216.068 227.767 217.454 223.78 219.619C221.792 220.726 220.111 222.279 218.881 224.144C217.65 226.01 216.907 228.134 216.714 230.336C216.779 232.875 217.332 235.381 218.346 237.726L227.289 262.47C228.463 265.718 229.736 269.122 232.429 271.398C235.096 273.324 238.209 274.6 241.502 275.116C252.141 277.674 262.895 280.247 273.861 280.561C284.826 280.875 296.184 278.725 305.142 272.621C308.324 270.456 311.409 266.643 309.663 263.301C308.324 260.697 304.767 260.006 301.781 260.163C293.867 260.477 291.566 259.598 286.899 253.385C282.607 247.595 279.556 241.037 275.949 234.917Z" fill="#505365"/>
<path d="M239.739 224.562C230.291 233.019 228.316 247.768 234.109 258.845C238.385 266.957 247.164 273.343 256.661 272.825C258.021 272.812 259.356 272.473 260.545 271.837C263.156 270.268 263.694 266.894 263.972 263.992C264.673 259.167 264.673 254.272 263.972 249.447C263.107 245.053 261.067 240.895 260.545 236.439C260.218 233.615 260.545 230.759 260.365 227.919C260.137 223.526 259.125 218.96 253.969 218.882C248.648 218.972 243.562 221.002 239.739 224.562Z" fill="url(#paint2_linear_51_144460)"/>
<path d="M256.89 234.619C257.069 236.13 257.102 237.653 256.987 239.169C256.71 240.974 256.661 242.825 256.416 244.645C255.874 248.314 254.984 251.928 253.757 255.44C253.416 256.095 253.214 256.807 253.16 257.537C253.107 258.266 253.204 258.999 253.446 259.693C254.02 260.507 254.816 261.153 255.747 261.56C257.493 262.517 259.011 263.756 260.643 264.698C262.588 265.612 264.607 266.373 266.68 266.973C272.751 268.887 284.271 271.79 286.67 263.49C289.412 254.075 291.713 244.881 293.491 235.247C294.358 231.935 294.942 228.561 295.237 225.158C295.237 222.396 292.251 221.424 289.656 220.89L289.167 220.796L287.666 220.514C284.209 219.788 280.811 218.823 277.499 217.626C273.746 216.324 267.823 214.065 262.944 216.324C262.603 216.477 262.276 216.656 261.965 216.858C256.808 219.949 256.433 227.621 256.89 234.619Z" fill="white"/>
<path d="M308.651 250.263C307.164 251.379 305.742 252.573 304.392 253.84C302.45 256.146 301.52 256.492 298.534 255.032C295.739 253.679 293.456 251.517 292.006 248.85C290.377 245.78 289.017 242.584 287.943 239.295C287.596 238.503 287.417 237.652 287.417 236.792C287.417 235.933 287.596 235.082 287.943 234.29C288.71 232.062 289.575 229.849 290.521 227.684C291.223 226.115 295.286 230.132 295.711 230.65C298.142 233.552 300.606 236.408 302.711 239.483C306.483 237.838 310.398 236.515 314.411 235.529C314.817 235.419 315.246 235.419 315.651 235.529C316.087 235.753 316.423 236.121 316.598 236.565L320.351 243.327C319.796 242.072 313.204 246.732 308.651 250.263Z" fill="white"/>
<path d="M269.65 237.789C269.977 239.466 270.643 241.065 271.609 242.496C272.702 244.065 274.611 249.4 277.157 248.772C275.973 249.26 274.691 249.491 273.404 249.447C275.9 252.585 279.784 254.53 283.423 256.445C284.397 256.884 285.268 257.509 285.985 258.28C286.337 258.668 286.568 259.142 286.652 259.65C286.736 260.158 286.669 260.679 286.458 261.152C285.61 262.721 283.195 262.548 281.4 262.093C276.945 260.979 272.522 259.693 268.019 258.845C264.184 258.123 259.86 257.794 256.596 259.912C256.357 260.115 256.062 260.245 255.747 260.289C255.497 260.272 255.261 260.172 255.079 260.006C254.897 259.84 254.782 259.618 254.752 259.379C254.714 258.897 254.792 258.414 254.98 257.967C256.087 254.458 256.696 250.821 256.792 247.156C256.792 245.681 257.249 244.285 257.281 242.872C257.281 241.115 256.922 239.326 256.89 237.569C256.839 234.022 257.201 230.48 257.967 227.009C258.489 224.577 259.598 221.8 262.144 221.235C263.079 221.085 264.04 221.199 264.909 221.564C265.778 221.929 266.518 222.529 267.04 223.291C268.014 224.823 268.575 226.565 268.671 228.359C268.827 231.516 269.154 234.664 269.65 237.789Z" fill="#D8DAE1"/>
<path d="M262.993 216.214C267.888 213.955 273.795 216.214 277.548 217.517C280.852 218.723 284.244 219.688 287.698 220.404C288.204 220.482 288.71 220.576 289.2 220.686C287.568 219.258 284.467 218.913 282.297 218.301C279.033 217.391 275.77 216.575 272.425 215.838C269.079 215.1 265.669 214.645 262.993 216.214Z" fill="white"/>
<path d="M276.977 207.6C277.59 209.229 278.82 210.575 280.42 211.369C282.021 212.163 283.874 212.347 285.61 211.884C285.61 211.884 283.864 216.701 285.887 219.651C286.262 220.215 283.651 220.717 283.505 220.733C282.026 220.701 280.57 220.375 279.229 219.776C277.149 218.803 274.959 218.066 272.702 217.579C273.78 217.123 274.642 216.294 275.117 215.257C276.097 212.999 276.258 210.49 275.574 208.134C275.744 208.227 275.94 208.268 276.136 208.251C276.331 208.234 276.517 208.161 276.667 208.04C276.817 207.929 276.926 207.775 276.977 207.6Z" fill="#D68369"/>
<path d="M281.399 213.892C286.295 215.367 290.309 211.554 292.235 205.874C292.43 205.247 292.61 204.603 292.757 203.944C293.21 202.046 293.429 200.103 293.41 198.155C293.312 188.74 279.278 189.478 279.278 189.478C267.872 191.737 272.947 211.35 281.399 213.892Z" fill="#EC9C7D"/>
<path d="M289.069 188.128C290.847 188.576 292.392 189.637 293.41 191.11C293.832 191.941 294.323 192.739 294.878 193.495C295.743 194.53 297.032 195.283 297.457 196.539C295.242 196.846 292.984 196.414 291.06 195.315C290.894 195.566 290.665 195.772 290.394 195.915C290.123 196.057 289.819 196.132 289.51 196.131C288.889 196.114 288.275 195.991 287.698 195.77C287.38 195.636 287.026 195.603 286.687 195.676C286.431 195.77 286.202 195.92 286.018 196.115C285.433 196.578 284.737 196.893 283.992 197.03C283.248 197.167 282.48 197.122 281.759 196.899C280.894 196.633 280.029 196.099 279.213 196.35C278.766 196.575 278.393 196.916 278.139 197.336C277.885 197.755 277.76 198.235 277.777 198.719C277.777 199.3 278.054 199.849 278.071 200.445C278.074 201.059 277.969 201.669 277.761 202.25C277.44 201.824 277.042 201.457 276.586 201.167C276.348 201.044 276.081 200.979 275.811 200.979C275.54 200.979 275.274 201.044 275.035 201.167C274.838 201.281 274.671 201.436 274.546 201.622C274.147 202.196 273.971 202.886 274.048 203.571C274.126 204.257 274.452 204.895 274.97 205.372C274.807 205.953 274.644 206.533 274.513 207.13C273.747 206.3 273.144 205.343 272.735 204.305C272.379 203.141 271.898 202.016 271.299 200.948C270.891 200.46 270.536 199.935 270.238 199.378C270.123 198.966 269.976 198.562 269.797 198.17C269.243 197.182 268.476 196.209 268.818 195.032C269.161 193.855 270.613 192.898 270.32 191.674C270.275 191.439 270.21 191.208 270.124 190.984C270.105 190.639 270.19 190.296 270.368 189.996C271.054 188.779 272.013 187.725 273.176 186.911C274.339 186.096 275.677 185.542 277.092 185.288C279.939 184.804 282.858 184.879 285.675 185.508C288.498 186.026 291.305 186.763 294.177 187.077C294.293 187.062 294.412 187.079 294.519 187.126C294.626 187.173 294.716 187.249 294.78 187.344C294.813 187.441 294.813 187.545 294.78 187.642C294.65 188.238 294.062 188.615 293.589 189.023C293.116 189.431 292.692 190.09 293.034 190.592" fill="#2F3554"/>
<path d="M263.613 261.717C263.613 261.717 269.553 275.995 274.317 277.486C279.082 278.976 296.673 284.232 296.673 284.232L305.371 301.194C310.266 310.89 315.831 320.367 319.405 330.613C319.574 331.259 319.892 331.859 320.335 332.371C320.917 332.78 321.589 333.055 322.299 333.175C323.009 333.295 323.738 333.256 324.431 333.061C327.417 332.669 330.403 332.277 333.34 331.618C334.76 331.288 336.49 330.551 336.473 329.138C336.457 327.726 334.841 327.052 333.601 326.612L329.505 325.247C328.56 325.111 327.689 324.673 327.032 324.005C326.375 323.336 325.971 322.476 325.883 321.56C325.152 319.186 324.638 316.755 324.349 314.295C324.169 312.004 322.407 309.729 322.407 307.564L317.202 293.129L309.271 271.162V271.021L290.048 261.607L263.613 261.717Z" fill="#2F3554"/>
<path d="M255.372 264.525C255.372 264.525 254.246 277.533 259.027 279.039C263.809 280.545 281.448 285.723 281.448 285.723L288.253 303.532C291.044 310.875 294.78 318.375 296.82 325.953C297.231 328.108 297.471 330.29 297.538 332.481C297.541 333.073 297.698 333.656 297.995 334.175C298.349 334.548 298.78 334.847 299.26 335.053C299.741 335.258 300.26 335.365 300.785 335.368C305.202 335.901 309.641 336.272 314.101 336.482C314.655 336.575 315.227 336.498 315.733 336.262C316.189 335.952 316.504 335.486 316.614 334.96C316.844 334.121 316.828 333.238 316.569 332.407C316.31 331.576 315.817 330.831 315.145 330.252C313.709 329.029 311.686 328.683 310.071 327.742C306.578 325.592 306.285 319.583 305.322 315.911L301.748 302.072L294.878 275.838C294.78 275.43 294.454 272.7 294.03 272.543L274.807 263.129C274.807 263.129 263.645 259.081 255.372 264.525Z" fill="#4C506D"/>
<path d="M255.372 264.525C255.372 264.525 254.246 277.533 259.027 279.039C263.809 280.545 281.448 285.723 281.448 285.723L288.253 303.532C291.044 310.875 294.78 318.375 296.82 325.953C297.231 328.108 297.471 330.29 297.538 332.481C297.541 333.073 297.698 333.656 297.995 334.175C298.349 334.548 298.78 334.847 299.26 335.053C299.741 335.258 300.26 335.365 300.785 335.368C305.202 335.901 309.641 336.272 314.101 336.482C314.655 336.575 315.227 336.498 315.733 336.262C316.189 335.952 316.504 335.486 316.614 334.96C316.844 334.121 316.828 333.238 316.569 332.407C316.31 331.576 315.817 330.831 315.145 330.252C313.709 329.029 311.686 328.683 310.071 327.742C306.578 325.592 306.285 319.583 305.322 315.911L301.748 302.072L294.878 275.838C294.78 275.43 294.454 272.7 294.03 272.543L274.807 263.129C274.807 263.129 263.645 259.081 255.372 264.525Z" fill="#2F3554"/>
<path d="M258.603 222.004C258.603 222.004 260.741 241.664 268.394 246.622C276.047 251.581 294.372 230.728 294.372 230.728L288.514 226.162L273.404 233.568C273.404 233.568 271.25 216.967 268.165 216.732C265.081 216.497 258.538 218.709 258.603 222.004Z" fill="white"/>
<path d="M296.445 219.227C297.11 218.629 297.935 218.222 298.827 218.05C299.638 218.004 300.449 218.144 301.193 218.458C302.695 218.929 304.359 219.745 304.653 221.22C304.701 221.795 304.599 222.374 304.357 222.902C304.115 223.431 303.74 223.893 303.266 224.248C302.368 225.001 301.291 225.534 300.377 226.288C299.088 227.355 298.126 228.892 296.526 229.426C295.85 229.646 295.131 229.721 294.421 229.645C292.055 229.441 289.526 227.527 290.897 225.174C292.38 222.902 294.256 220.891 296.445 219.227Z" fill="#EC9C7D"/>
<path d="M309.597 266.33C309.008 264.805 308.032 263.445 306.758 262.376C306.092 261.968 305.393 261.611 304.669 261.309C303.841 260.837 302.973 260.433 302.075 260.1C301.935 260.069 301.79 260.069 301.65 260.1C301.541 260.136 301.449 260.208 301.389 260.302C301.329 260.397 301.306 260.509 301.324 260.618C301.374 260.828 301.468 261.026 301.601 261.199C302.045 261.785 302.566 262.312 303.152 262.768C302.486 263.07 301.758 263.226 301.022 263.226C300.286 263.226 299.558 263.07 298.892 262.768C297.127 262.031 295.156 261.888 293.295 262.36C292.94 262.466 292.627 262.674 292.398 262.956C292.205 263.361 292.147 263.814 292.232 264.252C292.317 264.69 292.54 265.092 292.871 265.404C293.484 266.119 294.167 266.776 294.911 267.365C295.599 268.024 296.406 268.555 297.293 268.934C297.788 269.076 298.297 269.171 298.811 269.217L301.781 269.577C302.629 269.644 303.461 269.84 304.245 270.158C305.73 270.864 307.508 274.128 309.287 273.5C310.348 273.155 311.849 272.104 311.653 270.896C311.394 270.165 311.049 269.464 310.625 268.809C310.266 267.993 309.956 267.13 309.597 266.33Z" fill="url(#paint3_linear_51_144460)"/>
<path d="M322.293 313.872C322.245 316.085 322.684 318.282 323.582 320.32H323.713C326.144 320.32 328.608 320.32 331.023 320.462C335.071 320.757 339.098 321.281 343.082 322.031C344.926 322.36 346.77 322.721 348.598 323.082L353.852 324.102C357.197 324.729 360.379 325.263 363.513 325.671C367.529 324.023 371.118 321.542 374.021 318.406L374.935 317.371C375.311 316.916 375.67 316.429 376.012 315.927C377.02 314.521 377.679 312.91 377.938 311.22C378.017 310.535 377.989 309.842 377.856 309.165C377.22 306.832 375.701 304.813 373.597 303.5L372.944 303.045C368.506 300.095 363.193 298.608 357.801 298.809H356.447C353.568 299.015 350.716 299.483 347.929 300.205C343.506 301.288 339.084 302.81 334.711 304.159C331.479 304.991 328.386 306.259 325.524 307.925C324.709 308.437 323.996 309.085 323.419 309.839C322.635 311.046 322.243 312.45 322.293 313.872Z" fill="#3E3E54"/>
<path d="M322.684 320.634C323.25 323.458 323.756 326.293 324.202 329.138C325.244 335.748 325.935 342.404 326.274 349.081C326.354 349.703 326.293 350.335 326.095 350.932C325.344 352.69 322.831 352.784 320.906 352.768C318.98 352.753 316.369 353.521 316.402 355.404C316.402 356.879 318.034 357.742 319.551 358.213C323.873 359.623 328.419 360.287 332.981 360.174C333.537 360.193 334.091 360.108 334.613 359.923C337.713 358.621 335.266 355.216 334.939 353.145C334.466 350.211 335.641 346.978 336.375 344.186C338.105 337.674 342.674 331.774 342.495 324.855C342.329 323.975 342.497 323.068 342.968 322.297C343.833 321.278 347.439 322.925 348.581 323.145L353.836 324.165C363.251 325.922 371.949 327.946 381.577 326.22C382.157 326.159 382.715 325.971 383.208 325.671C383.8 325.187 384.212 324.532 384.383 323.804C385.748 319.715 385.385 315.273 383.372 311.44C381.022 306.968 377.269 305.163 372.895 303.061C367.837 300.598 363.578 298.746 357.752 298.903H356.398C353.507 299.124 350.644 299.607 347.847 300.346C340.749 302.104 324.381 304.599 321.738 312.522C320.873 315.017 321.95 317.025 322.472 319.457L322.684 320.634Z" fill="#3E3E54"/>
<path d="M322.684 320.634C323.25 323.458 323.756 326.293 324.202 329.138C325.244 335.748 325.935 342.404 326.274 349.081C326.354 349.703 326.293 350.335 326.095 350.932C325.344 352.69 322.831 352.784 320.906 352.768C318.98 352.753 316.369 353.521 316.402 355.404C316.402 356.879 318.034 357.742 319.551 358.213C323.873 359.623 328.419 360.287 332.981 360.174C333.537 360.193 334.091 360.108 334.613 359.923C337.713 358.621 335.266 355.216 334.939 353.145C334.466 350.211 335.641 346.978 336.375 344.186C338.105 337.674 342.674 331.774 342.495 324.855C342.329 323.975 342.497 323.068 342.968 322.297C343.833 321.278 347.439 322.925 348.581 323.145L353.836 324.165C363.251 325.922 371.949 327.946 381.577 326.22C382.157 326.159 382.715 325.971 383.208 325.671C383.8 325.187 384.212 324.532 384.383 323.804C385.748 319.715 385.385 315.273 383.372 311.44C381.022 306.968 377.269 305.163 372.895 303.061C367.837 300.598 363.578 298.746 357.752 298.903H356.398C353.507 299.124 350.644 299.607 347.847 300.346C340.749 302.104 324.381 304.599 321.738 312.522C320.873 315.017 321.95 317.025 322.472 319.457L322.684 320.634Z" fill="url(#paint4_linear_51_144460)"/>
<path d="M309.287 321.34C306.971 324.036 305.13 327.078 303.837 330.347C302.205 334.002 292.414 373.197 291.99 373.119L299.398 375.002C307.933 363.264 315.05 350.63 320.612 337.345C322.244 333.532 322.244 333.171 326.633 332.371C330.419 331.649 334.205 330.88 337.958 330.017C345.297 328.373 352.497 326.202 359.498 323.521C363.735 321.95 367.793 319.962 371.606 317.59C372.159 317.179 372.653 316.699 373.075 316.162C373.254 315.927 373.434 315.676 373.597 315.425C374.261 314.379 374.58 313.165 374.511 311.942C374.492 311.617 374.432 311.295 374.331 310.985C373.614 309.196 372.277 307.699 370.546 306.748C367.913 304.936 364.815 303.85 361.587 303.61C359.433 303.485 357.263 303.908 355.06 303.798C352.857 303.689 351.796 302.669 350.164 302.418C348.86 302.276 347.539 302.388 346.28 302.747C343.41 303.689 340.64 304.893 338.007 306.34L322.489 313.793H322.358L319.258 315.284C315.994 316.853 312.273 318.422 309.695 320.964L309.287 321.34Z" fill="#3E3E54"/>
<path d="M281.073 371.299C279.714 371.372 278.396 371.771 277.238 372.46C276.67 372.818 276.238 373.343 276.006 373.956C275.773 374.57 275.754 375.239 275.949 375.865C276.415 376.707 277.171 377.367 278.087 377.732C283.507 380.258 289.522 381.372 295.531 380.964C296.38 381.012 297.223 380.792 297.93 380.336C298.532 379.74 298.925 378.977 299.056 378.155C299.611 376.645 299.724 375.016 299.382 373.448C298.403 370.31 294.764 371.001 292.186 370.859C288.475 370.676 284.755 370.823 281.073 371.299Z" fill="#3E3E54"/>
<path d="M335.543 232.721C334.923 233.474 333.911 234.29 334.336 235.137C334.531 235.608 335.086 235.843 335.51 236.141C336.587 237.055 337.244 238.341 337.338 239.719C337.439 241.086 337.775 242.427 338.333 243.688C338.637 244.298 339.15 244.788 339.787 245.074C340.424 245.36 341.145 245.425 341.826 245.257C342.609 244.959 343.343 244.206 344.143 244.457C344.942 244.708 345.024 245.336 345.383 245.854C345.879 246.446 346.539 246.892 347.286 247.142C348.033 247.391 348.838 247.434 349.609 247.266C351.149 246.898 352.601 246.248 353.885 245.351C354.446 245.072 354.911 244.641 355.223 244.112C355.402 243.603 355.402 243.052 355.223 242.543C354.59 241.036 353.659 239.661 352.481 238.495C350.54 236.109 349.234 233.302 348.679 230.32C348.304 228.249 348.206 225.927 346.688 224.436C344.616 222.396 340.161 222.867 337.958 224.687C335.755 226.507 337.469 230.336 335.543 232.721Z" fill="url(#paint5_linear_51_144460)"/>
<path d="M338.333 222.836C338.37 223.188 338.481 223.53 338.66 223.84C339.215 224.719 340.781 225.283 341.728 225.786C342.73 226.312 343.483 227.188 343.833 228.233C344.436 230.147 343.572 232.391 344.388 234.258C344.665 234.619 345.301 234.258 345.513 233.929C345.726 233.599 345.824 233.019 346.199 232.752C346.835 232.313 347.733 232.878 348.092 233.552C348.476 234.345 348.532 235.25 348.247 236.08C347.962 236.911 347.358 237.607 346.558 238.024C346.705 238.62 347.553 238.793 348.19 238.652C348.794 238.417 349.433 238.274 350.083 238.228C351.567 238.354 352.318 240.346 353.803 240.409C355.288 240.472 356.381 238.197 357.491 237.271C358.601 236.345 360.608 236.157 361.163 234.855C361.424 234.227 361.277 233.427 361.815 232.987C362.225 232.752 362.693 232.627 363.17 232.627C363.702 232.498 364.192 232.242 364.594 231.882C364.996 231.523 365.298 231.072 365.471 230.571C365.793 229.542 365.753 228.438 365.356 227.433C365.239 227.041 365.02 226.685 364.72 226.397C364.227 226.084 363.671 225.876 363.088 225.786C360.494 225.079 358.65 222.946 356.708 221.078C354.766 219.211 352.204 217.595 349.56 218.16C349.007 217.486 348.303 216.941 347.501 216.563C346.699 216.186 345.819 215.986 344.926 215.979C344.016 216.148 343.154 216.501 342.397 217.015C341.1 217.726 339.985 218.707 339.133 219.886C338.563 220.769 338.284 221.797 338.333 222.836Z" fill="#DD8049"/>
<path d="M351.323 242.967C349.77 243.791 348.277 244.713 346.851 245.728C346.407 246.025 346.034 246.41 345.758 246.858C345.629 247.101 345.562 247.37 345.562 247.642C345.562 247.915 345.629 248.184 345.758 248.427C346.264 249.101 347.194 248.756 347.912 248.427C351.213 246.968 354.776 246.136 358.405 245.979C358.656 245.996 358.906 245.942 359.126 245.825C359.346 245.709 359.526 245.533 359.645 245.32C359.703 245.081 359.707 244.832 359.657 244.591C359.606 244.35 359.502 244.122 359.351 243.924C357.148 240.472 354.195 241.319 351.323 242.967Z" fill="white"/>
<path d="M345.008 287.731C343.495 284.611 342.246 281.379 341.271 278.066C341.042 277.344 340.683 274.504 339.476 274.661C338.839 274.755 337.697 277.627 337.338 278.207C334.228 283.241 330.066 287.601 325.116 291.011C324.281 291.702 323.243 292.124 322.146 292.219C321.399 292.123 320.681 291.883 320.033 291.514C319.385 291.144 318.822 290.653 318.376 290.069C313.364 284.986 308.897 279.43 305.044 273.484C307.613 271.406 310.293 269.458 313.073 267.648C315.26 271.004 318.517 273.59 322.358 275.022C323.99 270.692 324.871 265.012 327.596 261.293C329.44 258.767 331.415 256.225 333.046 253.526C333.487 252.79 334.037 252.119 334.678 251.534C335.615 250.879 336.681 250.414 337.811 250.168C346.303 247.779 354.934 245.872 363.659 244.457C364.964 244.17 366.308 244.085 367.641 244.206C371.361 244.74 373.809 248.113 375.686 251.251C385.477 267.616 392.461 286.194 391.367 305.054C391.355 306.076 391.184 307.092 390.862 308.066C390.218 309.53 389.168 310.795 387.826 311.722C383.259 314.881 377.735 316.503 372.112 316.335C363.79 316.335 352.808 313.997 346.607 308.239C343.082 304.991 346.607 303.03 348.239 299.813C350.409 295.686 346.884 291.419 345.008 287.731Z" fill="#FE4400"/>
<path d="M386.423 274.489C385.826 271.98 384.967 269.536 383.861 267.193C378.966 270.519 375.457 277.015 373.662 282.475C371.867 287.935 370.399 293.694 366.76 298.165L362.811 296.848L362.076 299.248C361.489 301.147 363.153 303.077 362.99 304.991C362.795 305.975 362.307 306.884 361.586 307.608C360.865 308.332 359.941 308.84 358.927 309.07C356.602 309.512 354.197 309.35 351.959 308.6C350.489 308.322 349.098 307.744 347.88 306.905C347.281 306.475 346.824 305.888 346.563 305.215C346.303 304.541 346.25 303.81 346.411 303.108C345.937 303.387 345.572 303.81 345.374 304.309C345.176 304.809 345.156 305.358 345.318 305.87C345.673 306.887 346.331 307.782 347.211 308.443C350.145 310.619 353.461 312.272 357.001 313.322C358.63 313.96 360.304 314.485 362.011 314.892C365.93 315.737 369.94 316.133 373.956 316.068C376.387 316.068 377.856 315.755 378.851 313.432C380.385 310.137 380.483 306.403 380.875 302.794C381.963 293.236 383.818 283.772 386.423 274.489Z" fill="url(#paint6_linear_51_144460)"/>
<path d="M421.017 284.154C420.951 286.693 420.398 289.198 419.386 291.544C419.206 292.062 419.01 292.58 418.814 293.113C416.04 300.854 413.25 308.584 410.443 316.304C409.268 319.552 407.996 322.956 405.303 325.232C402.628 327.145 399.518 328.42 396.23 328.95C385.591 331.508 374.837 334.081 363.871 334.379C356.73 334.665 349.594 333.686 342.821 331.492C339.194 330.267 335.757 328.573 332.606 326.455C329.342 324.29 326.34 320.477 328.086 317.12C329.424 314.531 332.981 313.84 335.967 313.981C343.882 314.295 346.182 313.417 350.849 307.188C355.141 301.461 358.193 294.965 361.799 288.83C366.694 280.529 373.336 272.323 382.833 269.578C388.708 267.867 395.006 268.463 401.044 269.452C405.59 269.986 409.982 271.378 413.968 273.547C415.938 274.645 417.607 276.182 418.833 278.027C420.06 279.872 420.809 281.973 421.017 284.154Z" fill="#505365"/>
<path d="M418.782 293.098C416.008 300.838 413.218 308.568 410.411 316.288C409.236 319.536 407.963 322.941 405.271 325.216C402.596 327.13 399.486 328.404 396.198 328.934C385.558 331.492 374.805 334.065 363.839 334.363C356.697 334.649 349.562 333.671 342.788 331.476C341.287 330.185 339.881 328.796 338.578 327.318C337.681 326.267 336.783 324.808 337.518 323.662C338.252 322.517 339.655 322.548 340.912 322.533C346.072 322.386 351.114 321.011 355.585 318.53C360.056 316.049 363.817 312.54 366.531 308.317C368.686 304.526 370.509 300.569 371.982 296.487C375.49 288.108 380.385 279.745 388.414 275.006C390.89 273.374 393.851 272.559 396.85 272.684C398.689 272.929 400.475 273.459 402.137 274.253C408.926 277.172 418.113 282.773 418.815 290.775C418.877 291.549 418.866 292.326 418.782 293.098Z" fill="url(#paint7_linear_51_144460)"/>
<path d="M391.873 329.719L406.805 383.694C406.875 383.963 406.888 384.243 406.843 384.517C406.798 384.791 406.697 385.054 406.545 385.289C406.392 385.525 406.193 385.729 405.957 385.889C405.721 386.049 405.455 386.161 405.173 386.22C405 386.244 404.824 386.244 404.651 386.22C404.173 386.217 403.711 386.06 403.335 385.776C402.96 385.492 402.694 385.097 402.578 384.651L387.712 330.755C387.567 330.228 387.643 329.668 387.924 329.195C388.205 328.723 388.668 328.375 389.214 328.228C389.49 328.157 389.778 328.14 390.062 328.176C390.346 328.213 390.619 328.303 390.866 328.442C391.113 328.58 391.329 328.764 391.502 328.984C391.675 329.203 391.801 329.453 391.873 329.719Z" fill="#FE4400"/>
<path d="M364.198 329.703L353.15 383.302C353.051 383.88 353.195 384.473 353.55 384.949C353.905 385.426 354.442 385.748 355.043 385.844H355.419C355.886 385.85 356.34 385.695 356.7 385.407C357.059 385.12 357.299 384.718 357.377 384.275L368.473 330.755C368.568 330.203 368.442 329.638 368.121 329.173C367.8 328.707 367.308 328.375 366.743 328.244C366.492 328.169 366.227 328.143 365.965 328.168C365.702 328.192 365.448 328.266 365.216 328.386C364.983 328.506 364.778 328.668 364.612 328.865C364.446 329.061 364.321 329.288 364.247 329.531L364.198 329.703Z" fill="#FE4400"/>
<path d="M381.854 329.923L391.449 383.71C391.488 384.009 391.465 384.312 391.382 384.602C391.299 384.893 391.157 385.164 390.964 385.402C390.772 385.639 390.532 385.838 390.26 385.987C389.988 386.135 389.687 386.231 389.377 386.267H389.115C388.652 386.273 388.202 386.117 387.848 385.829C387.494 385.54 387.261 385.139 387.19 384.698L377.579 330.927C377.498 330.369 377.638 329.802 377.97 329.337C378.302 328.873 378.803 328.544 379.374 328.417C379.871 328.276 380.407 328.33 380.863 328.568C381.319 328.807 381.658 329.209 381.805 329.688L381.854 329.923Z" fill="#FE4400"/>
<path d="M353.395 330.174L333.813 383.71C333.626 384.176 333.637 384.695 333.845 385.153C334.053 385.611 334.44 385.972 334.923 386.158C335.164 386.24 335.418 386.282 335.674 386.283C336.166 386.276 336.643 386.121 337.038 385.839C337.433 385.558 337.726 385.164 337.877 384.714L357.458 331.194C357.646 330.728 357.635 330.209 357.427 329.751C357.219 329.293 356.832 328.932 356.349 328.746H356.137C355.577 328.617 354.988 328.692 354.482 328.955C353.976 329.219 353.589 329.653 353.395 330.174Z" fill="#FE4400"/>
<path d="M425.815 161.69C421.524 161.69 415.192 158.866 412.124 163.259C411.607 164.092 411.159 164.963 410.786 165.864C408.257 170.994 402.627 173.96 397.226 176.235C400.489 172.328 403.361 167.621 402.839 162.647C402.301 157.391 395.822 157.25 391.645 155.539C387.283 153.802 383.179 151.517 379.439 148.745C373.581 144.289 368.685 137.966 368.685 130.513C368.685 113.254 394.272 99.2891 425.799 99.2891C457.326 99.2891 482.912 113.269 482.912 130.513C482.912 147.757 457.374 161.69 425.815 161.69Z" fill="#FE4400"/>
<path d="M253.822 164.012C250.844 164.201 247.857 164.201 244.879 164.012C241.273 163.542 237.797 162.741 238.63 168.186C239.609 174.462 245.532 179.012 248.143 184.896C235.758 181.931 226.57 175.074 218.052 166.303C214.267 162.396 207.772 164.012 202.436 164.012H193.265C188.066 164.012 182.918 163.028 178.115 161.115C173.312 159.202 168.948 156.398 165.272 152.863C161.596 149.329 158.68 145.132 156.691 140.514C154.701 135.896 153.677 130.946 153.677 125.947C153.677 120.948 154.701 115.999 156.691 111.38C158.68 106.762 161.596 102.566 165.272 99.0312C168.948 95.4965 173.312 92.6926 178.115 90.7797C182.918 88.8667 188.066 87.8822 193.265 87.8822H253.822C264.321 87.8822 274.39 91.8926 281.815 99.0312C289.239 106.17 293.41 115.852 293.41 125.947C293.41 136.043 289.239 145.725 281.815 152.863C274.39 160.002 264.321 164.012 253.822 164.012Z" fill="#FE4400"/>
<path d="M319.258 234.572C319.309 234.044 319.532 233.545 319.894 233.144C320.383 232.752 321.118 232.878 321.754 232.909C324.479 233.019 326.65 230.869 328.885 229.394C328.993 229.314 329.125 229.27 329.261 229.269C329.407 229.269 329.505 229.441 329.587 229.567C330.827 231.764 329.897 234.509 328.575 236.643C327.253 238.777 325.54 240.535 323.174 240.629C321.71 240.379 320.221 240.284 318.735 240.346C317.789 240.55 317.104 241.115 316.663 240.017C315.749 238.055 318.801 236.298 319.258 234.572Z" fill="#EC9C7D"/>
<path d="M281.807 268.95C281.82 269.888 281.648 270.819 281.301 271.696C282.93 270.848 284.715 270.315 286.556 270.127L289.134 269.672C289.384 269.593 289.647 269.565 289.908 269.589C290.17 269.613 290.423 269.689 290.652 269.813C290.845 269.998 290.982 270.23 291.048 270.485C291.114 270.739 291.107 271.006 291.027 271.256C290.749 272.151 290.245 272.965 289.558 273.626C288.75 274.5 287.877 275.318 286.948 276.073C286.326 276.59 285.628 277.013 284.875 277.329C283.064 277.956 281.057 277.329 279.131 277.485C278.654 277.533 278.173 277.533 277.695 277.485C277.296 277.425 276.922 277.262 276.611 277.013C276.301 276.765 276.066 276.44 275.933 276.073C275.247 274.143 277.14 273.422 278.201 272.276C279.262 271.131 280.143 269.436 281.807 268.95Z" fill="url(#paint8_linear_51_144460)"/>
<path d="M265.424 301.539C265.471 303.413 265.098 305.275 264.331 306.999H264.216C262.16 306.999 260.088 306.999 258.032 307.125C254.596 307.388 251.179 307.849 247.8 308.506C246.169 308.772 244.684 309.086 243.133 309.384L238.662 310.263C235.839 310.796 233.114 311.251 230.503 311.612C227.095 310.216 224.052 308.11 221.593 305.446C221.316 305.163 221.071 304.865 220.81 304.567C220.549 304.269 220.19 303.767 219.896 303.343C219.036 302.156 218.477 300.791 218.264 299.358C218.167 298.781 218.167 298.193 218.264 297.616C218.832 295.674 220.121 293.999 221.887 292.909L222.442 292.517C226.208 290.019 230.713 288.759 235.284 288.924H236.427C238.869 289.108 241.289 289.507 243.656 290.116C247.392 291.026 251.146 292.329 254.85 293.458C257.585 294.146 260.206 295.202 262.634 296.596C263.532 297.087 264.27 297.811 264.764 298.684C265.257 299.558 265.486 300.547 265.424 301.539Z" fill="#3E3E54"/>
<path d="M266.109 318.689C265.62 321.074 265.196 323.474 264.82 325.891C264.298 329.201 264.07 332.575 263.515 335.87C262.96 339.165 263.058 342.428 262.487 345.676C262.21 346.888 262.062 348.123 262.046 349.363C262.208 351.087 262.666 352.773 263.401 354.353C263.303 354.573 262.976 354.557 262.732 354.494C261.365 354.196 260.039 353.743 258.783 353.145C257.512 352.547 256.509 351.527 255.96 350.273C254.883 347.59 256.172 344.594 255.356 341.785C254.18 338.346 253.575 334.751 253.561 331.131C253.89 328.528 254.064 325.908 254.083 323.286C253.708 318.798 250.819 314.28 252.451 310.075C253.124 308.666 254.17 307.452 255.485 306.554C256.799 305.656 258.336 305.107 259.941 304.959C260.975 304.791 262.036 304.878 263.025 305.211C267.921 307.093 267.072 314.091 266.289 317.763L266.109 318.689Z" fill="url(#paint9_linear_51_144460)"/>
<path d="M254.801 350.211C254.867 350.131 254.951 350.067 255.046 350.022C255.421 349.865 255.78 350.289 255.992 350.634C256.916 352.108 258.314 353.254 259.974 353.898C260.174 354.001 260.406 354.029 260.627 353.976C260.871 353.882 261.002 353.631 261.198 353.459C261.347 353.344 261.525 353.269 261.713 353.238C261.901 353.208 262.095 353.225 262.275 353.286C262.635 353.402 262.972 353.577 263.27 353.804C264.218 354.413 265.113 355.095 265.946 355.844C266.185 356.027 266.365 356.272 266.466 356.549C266.567 356.827 266.585 357.126 266.517 357.413C266.355 357.686 266.094 357.893 265.783 357.993C264.623 358.345 263.372 358.301 262.242 357.868C260.121 357.193 258.26 355.969 256.188 355.169C256.045 355.106 255.889 355.074 255.731 355.075L255.388 355.153C255.201 355.133 255.021 355.072 254.863 354.974C254.704 354.876 254.571 354.744 254.475 354.588C253.923 353.962 253.649 353.154 253.71 352.336C253.771 351.517 254.162 350.755 254.801 350.211Z" fill="#3E3E54"/>
<path d="M276.031 319.897C276.948 322.154 277.381 324.567 277.304 326.989C277.304 333.265 275.509 339.259 273.763 345.237C273.028 347.747 272.408 350.336 271.543 352.815C270.679 355.294 272.588 359.625 273.975 361.743C274.319 362.183 274.594 362.67 274.791 363.187C274.893 363.463 274.903 363.763 274.818 364.045C274.733 364.326 274.558 364.575 274.318 364.756C274.017 364.91 273.678 364.981 273.338 364.96C270.497 364.791 267.776 363.795 265.538 362.104C265.082 361.904 264.71 361.56 264.485 361.129C264.259 360.698 264.193 360.206 264.298 359.735C265.114 345.959 269.194 332.7 259.403 320.854C257.151 318.124 254.328 315.629 253.365 312.287C253.218 311.773 253.218 311.231 253.365 310.718C253.564 310.224 253.925 309.805 254.393 309.525C256.629 307.956 259.68 308.16 262.373 308.757C265.431 309.38 268.28 310.724 270.664 312.669C273.049 314.613 274.893 317.097 276.031 319.897Z" fill="url(#paint10_linear_51_144460)"/>
<path d="M265.408 363.704C267.496 364.348 269.145 365.838 271.168 366.623C272.989 367.529 274.942 368.164 276.961 368.506C277.288 368.584 277.63 368.584 277.956 368.506C278.147 368.411 278.317 368.281 278.456 368.124C278.594 367.966 278.699 367.784 278.765 367.587C278.83 367.39 278.854 367.183 278.836 366.977C278.817 366.771 278.757 366.571 278.658 366.388C278.231 365.651 277.68 364.988 277.026 364.426C276.428 363.788 275.882 363.106 275.394 362.386C274.97 361.79 274.53 360.817 273.763 360.582C272.996 360.347 271.984 360.896 271.25 361.006C270.186 361.112 269.116 360.869 268.214 360.315C267.33 359.752 266.533 359.071 265.848 358.291C265.489 357.899 264.967 357.444 264.461 357.648C263.955 357.852 263.906 358.338 263.857 358.778C263.743 359.845 263.662 360.912 263.645 361.916C263.595 362.242 263.646 362.575 263.792 362.873C264.037 363.375 264.788 363.532 265.408 363.704Z" fill="#3E3E54"/>
<path d="M266.387 295.263C269.847 297.316 272.716 300.172 274.729 303.569C276.742 306.965 277.835 310.794 277.907 314.703C271.203 319.553 263.47 322.922 255.258 324.573C254.321 324.839 253.323 324.839 252.386 324.573C251.612 324.194 250.933 323.659 250.395 323.003C242.872 315.566 229.622 316.319 221.724 309.259C218.738 306.576 216.829 301.963 219.146 298.762C220.1 297.624 221.289 296.689 222.638 296.016C228.79 292.501 236.035 287.245 243.46 288.469C250.885 289.693 259.974 291.528 266.387 295.263Z" fill="#FE4400"/>
<path d="M269.291 320.226C265.522 316.351 264.837 310.671 264.396 305.383C263.314 306.279 262.098 307.014 260.79 307.564L260.153 305.917C260.104 305.749 259.994 305.604 259.843 305.509C259.673 305.462 259.492 305.462 259.321 305.509C253.969 307.252 248.36 308.158 242.709 308.192C240.537 308.364 238.362 307.893 236.476 306.842C235.563 306.283 234.909 305.406 234.651 304.395C234.393 303.384 234.549 302.316 235.089 301.413C230.522 302.609 225.869 303.48 221.169 304.018C220.98 304.012 220.792 304.042 220.616 304.107C220.439 304.171 220.278 304.269 220.141 304.395C219.782 304.85 220.141 305.493 220.451 305.964C224.22 311.06 229.902 314.549 236.296 315.692C238.075 315.99 247.507 319.379 251.749 324.698C252.047 325.035 252.438 325.284 252.877 325.418C253.316 325.551 253.785 325.562 254.23 325.451L269.291 320.226Z" fill="url(#paint11_linear_51_144460)"/>
<path d="M252.174 225.927C251.683 225.55 251.132 225.253 250.542 225.048C249.61 224.646 248.58 224.499 247.567 224.623C246.553 224.748 245.595 225.139 244.798 225.754C243.509 227.025 243.427 229.002 243.166 230.759C242.69 233.29 241.569 235.667 239.903 237.679C238.904 238.671 238.112 239.837 237.569 241.115C237.422 241.548 237.422 242.015 237.569 242.449C237.848 242.889 238.242 243.252 238.711 243.5C239.767 244.222 240.95 244.754 242.203 245.069C243.003 245.289 244.031 246.12 244.814 245.869C245.598 245.618 245.989 244.708 246.707 244.3C247.158 244.135 247.64 244.06 248.122 244.079C248.605 244.098 249.078 244.21 249.514 244.41C249.954 244.603 250.438 244.681 250.92 244.637C251.401 244.593 251.861 244.428 252.255 244.159C252.497 243.876 252.68 243.551 252.794 243.202C253.125 242.256 253.344 241.277 253.447 240.283C253.385 239.25 253.703 238.228 254.344 237.396C254.522 237.26 254.681 237.101 254.817 236.926C255.176 236.329 254.573 235.639 254.279 235.011C254.061 234.423 253.972 233.798 254.018 233.176C253.952 230.775 254.458 227.621 252.174 225.927Z" fill="url(#paint12_linear_51_144460)"/>
<path d="M234.012 242.26C233.881 242.429 233.791 242.624 233.749 242.83C233.707 243.036 233.713 243.249 233.767 243.453C233.872 243.628 234.025 243.772 234.209 243.869C234.393 243.966 234.601 244.012 234.811 244.002C237.888 244.127 240.909 244.831 243.705 246.073C244.308 246.356 245.108 246.654 245.532 246.073C245.652 245.864 245.715 245.629 245.715 245.391C245.715 245.152 245.652 244.917 245.532 244.708C245.296 244.33 244.979 244.004 244.602 243.751C243.389 242.901 242.125 242.12 240.816 241.413C238.385 240.032 235.888 239.311 234.012 242.26Z" fill="white"/>
<path d="M243.395 289.551C244.814 292.282 247.8 293.945 244.814 296.691C239.56 301.57 230.242 303.61 223.193 303.547C218.422 303.693 213.736 302.32 209.861 299.64C208.721 298.842 207.835 297.756 207.299 296.502C207.019 295.682 206.876 294.824 206.875 293.96C205.944 277.972 211.77 262.219 220.158 248.348C221.789 245.681 223.829 242.825 226.979 242.37C228.109 242.273 229.248 242.342 230.356 242.574C237.513 243.764 244.595 245.335 251.57 247.281C256.792 248.741 260.561 254.122 262.226 258.908C263.678 263.019 264.233 267.381 265.489 271.46C265.654 272.282 266.131 273.015 266.827 273.516C267.6 273.852 268.477 273.885 269.275 273.61C271.787 273.108 274.257 272.432 276.667 271.586C277.94 274.291 278.792 277.162 279.197 280.106C277.402 281.473 275.722 282.974 274.171 284.593C272.425 286.1 270.379 287.251 268.158 287.976C265.937 288.701 263.586 288.986 261.247 288.814C259.6 288.797 258.023 288.174 256.841 287.072C256.193 286.24 255.742 285.281 255.519 284.264C254.79 281.774 254.148 279.259 253.593 276.717C253.3 275.336 253.022 273.955 252.778 272.559C252.614 271.68 252.778 269.17 252.108 268.526C250.346 266.565 249.612 270.817 249.302 271.758C248.453 274.335 247.406 276.847 246.169 279.274C244.586 282.491 241.6 286.115 243.395 289.551Z" fill="white"/>
<path d="M254.246 226.413C254.594 225.399 254.633 224.31 254.36 223.275C253.889 221.755 253.07 220.355 251.962 219.18C249.964 216.597 247.069 214.788 243.803 214.08C234.991 212.7 224.743 221.345 221.398 228.484C219.293 232.972 218.656 237.899 217.481 242.747C216.306 247.595 214.397 252.444 210.448 255.597C208.816 256.884 206.907 257.888 205.944 259.661C205.439 260.784 205.272 262.021 205.463 263.23C205.653 264.44 206.193 265.574 207.021 266.502C208.476 267.979 210.188 269.201 212.08 270.111C213.728 271.247 215.039 272.778 215.882 274.551C217.906 278.317 218.705 282.616 221.202 286.162L224.808 284.248C227.914 282.798 230.765 280.893 233.261 278.6C234.497 277.442 235.445 276.031 236.033 274.471C236.621 272.911 236.834 271.243 236.655 269.593C236.093 267.66 235.389 265.767 234.55 263.929C232.527 257.92 236.949 255.503 240.8 251.941C242.102 250.695 243.077 249.168 243.645 247.487C244.212 245.807 244.356 244.021 244.064 242.276C243.837 241.507 243.765 240.702 243.852 239.907C244.259 238.793 244.942 237.792 245.842 236.988C247.474 235.074 246.185 232.595 248.127 230.838C249.628 229.473 251.929 229.269 253.349 227.7C253.737 227.335 254.042 226.897 254.246 226.413Z" fill="#2F3554"/>
<path d="M211.003 268.15C211.502 266.022 212.229 263.951 213.173 261.968C217.285 264.776 220.304 270.284 221.822 274.928C223.339 279.572 224.58 284.421 227.68 288.265L231.025 287.151L231.645 289.191C232.135 290.76 230.732 292.439 230.878 294.055C231.039 294.892 231.451 295.666 232.062 296.282C232.674 296.898 233.459 297.329 234.322 297.522C236.294 297.883 238.33 297.742 240.229 297.114C241.472 296.88 242.647 296.388 243.672 295.671C244.169 295.316 244.552 294.833 244.774 294.277C244.997 293.722 245.05 293.116 244.928 292.533C245.326 292.776 245.63 293.138 245.795 293.562C245.96 293.987 245.976 294.452 245.842 294.886C245.53 295.75 244.963 296.508 244.21 297.067C241.761 298.889 239 300.285 236.051 301.194C234.658 301.729 233.236 302.195 231.792 302.59C228.471 303.294 225.076 303.626 221.675 303.579C219.603 303.579 218.411 303.312 217.449 301.351C216.403 298.447 215.852 295.401 215.817 292.329C214.86 284.162 213.25 276.079 211.003 268.15Z" fill="url(#paint13_linear_51_144460)"/>
<path d="M197.133 312.444L176.523 364.677C176.327 365.193 176.351 365.763 176.589 366.262C176.827 366.762 177.261 367.151 177.796 367.345C177.965 367.398 178.14 367.435 178.318 367.454C178.787 367.501 179.259 367.397 179.661 367.159C180.062 366.92 180.37 366.561 180.537 366.136L201.163 313.919C201.265 313.667 201.314 313.397 201.306 313.127C201.299 312.856 201.236 312.59 201.121 312.343C201.005 312.096 200.84 311.874 200.634 311.689C200.429 311.505 200.187 311.361 199.923 311.267C199.661 311.169 199.381 311.122 199.099 311.129C198.818 311.136 198.541 311.197 198.284 311.308C198.028 311.419 197.797 311.578 197.604 311.776C197.412 311.973 197.263 312.206 197.165 312.46L197.133 312.444Z" fill="#FE4400"/>
<path d="M224.694 315.158L229.981 369.557C230.012 370.146 229.8 370.722 229.39 371.16C228.98 371.598 228.406 371.862 227.794 371.895H227.452C226.993 371.854 226.563 371.661 226.236 371.349C225.909 371.037 225.704 370.625 225.657 370.185L220.37 315.802C220.331 315.242 220.516 314.689 220.885 314.255C221.255 313.821 221.782 313.538 222.361 313.464C222.62 313.419 222.886 313.424 223.144 313.478C223.401 313.533 223.645 313.636 223.86 313.782C224.076 313.928 224.259 314.114 224.399 314.329C224.54 314.543 224.634 314.783 224.678 315.033C224.678 315.033 224.694 315.064 224.694 315.158Z" fill="#FE4400"/>
<path d="M207.119 313.652L191.845 366.199C191.772 366.49 191.76 366.791 191.808 367.087C191.856 367.382 191.965 367.665 192.127 367.92C192.289 368.175 192.502 368.397 192.753 368.573C193.004 368.749 193.289 368.875 193.591 368.945H193.885C194.34 369.002 194.801 368.898 195.182 368.653C195.563 368.407 195.839 368.037 195.958 367.611L211.248 315.064C211.386 314.516 211.307 313.937 211.027 313.441C210.746 312.945 210.284 312.568 209.73 312.381C209.493 312.289 209.24 312.243 208.985 312.245C208.729 312.248 208.477 312.298 208.242 312.394C208.007 312.491 207.794 312.63 207.616 312.806C207.437 312.981 207.296 313.189 207.201 313.417C207.166 313.493 207.139 313.571 207.119 313.652Z" fill="#FE4400"/>
<path d="M235.382 316.633L249.22 371.816C249.367 372.291 249.312 372.802 249.067 373.237C248.822 373.673 248.408 373.997 247.915 374.139C247.651 374.193 247.379 374.193 247.115 374.139C246.635 374.084 246.183 373.89 245.822 373.581C245.46 373.273 245.205 372.865 245.092 372.413L231.221 317.214C231.152 316.977 231.132 316.729 231.162 316.485C231.193 316.24 231.273 316.004 231.399 315.79C231.525 315.575 231.694 315.387 231.896 315.235C232.098 315.084 232.329 314.972 232.576 314.907H232.853C233.421 314.85 233.99 314.994 234.456 315.312C234.921 315.63 235.251 316.099 235.382 316.633Z" fill="#FE4400"/>
<path d="M231.401 274.693C227.419 265.953 221.708 257.151 212.537 253.463C206.891 251.204 200.559 251.157 194.44 251.565C189.861 251.65 185.344 252.594 181.141 254.342C179.055 255.247 177.226 256.62 175.806 258.346C174.387 260.071 173.418 262.099 172.982 264.258C172.786 266.794 173.079 269.342 173.847 271.774L180.113 297.255C180.929 300.613 181.842 304.112 184.274 306.67C186.729 308.846 189.688 310.427 192.906 311.283C203.219 314.86 213.646 318.485 224.514 319.865C235.382 321.246 246.919 320.242 256.465 315.064C259.876 313.213 263.352 309.729 261.981 306.215C260.904 303.5 257.477 302.465 254.458 302.292C246.56 301.821 244.374 300.723 240.392 294.07C236.753 287.904 234.42 281.157 231.401 274.693Z" fill="#505365"/>
<path opacity="0.18" d="M543.74 150.525C550.828 163.243 556.008 177.618 560.698 190.376C568.424 211.536 574.56 233.906 571.919 255.696C566.738 298.831 529.928 328.889 502.115 361.664C467.491 402.469 431.982 445.086 380.353 466.736C343.162 482.281 297.988 484.579 260.855 465.023C242.73 455.496 227.438 441.413 212.398 427.523C196.211 412.573 181.15 397.949 162.689 386.199C142.937 373.628 122.41 360.498 105.232 344.576C74.0783 315.558 55.6039 273.693 57.1827 232.858C58.7614 192.022 80.8415 153.195 115.705 132.307C141.728 116.724 172.97 111.327 203.306 105.543C223.922 101.623 245.267 97.027 261.214 84.1288C282.231 67.1151 290.704 38.1351 312.753 22.3946C340.032 2.92624 379.378 9.54389 412.185 22.0931C422.52 25.9023 432.544 30.5673 442.143 36.0355C461.499 47.4415 477.907 63.232 489.896 81.9911C502.221 101.235 516.98 116.463 532.255 133.869C536.672 139.024 540.524 144.609 543.74 150.525Z" fill="#FE5517"/>
</g>
<defs>
<linearGradient id="paint0_linear_51_144460" x1="333.389" y1="39.4928" x2="324.472" y2="434.453" gradientUnits="userSpaceOnUse">
<stop offset="0.01"/>
<stop offset="0.08" stop-opacity="0.69"/>
<stop offset="0.21" stop-opacity="0.32"/>
<stop offset="1" stop-opacity="0"/>
</linearGradient>
<linearGradient id="paint1_linear_51_144460" x1="457.619" y1="304.049" x2="263.154" y2="295.107" gradientUnits="userSpaceOnUse">
<stop offset="0.01"/>
<stop offset="0.08" stop-opacity="0.69"/>
<stop offset="0.21" stop-opacity="0.32"/>
<stop offset="1" stop-opacity="0"/>
</linearGradient>
<linearGradient id="paint2_linear_51_144460" x1="275.411" y1="252.412" x2="169.599" y2="217.775" gradientUnits="userSpaceOnUse">
<stop offset="0.01"/>
<stop offset="0.08" stop-opacity="0.69"/>
<stop offset="0.21" stop-opacity="0.32"/>
<stop offset="1" stop-opacity="0"/>
</linearGradient>
<linearGradient id="paint3_linear_51_144460" x1="311.67" y1="266.832" x2="292.153" y2="266.832" gradientUnits="userSpaceOnUse">
<stop stop-color="#E5C5D5"/>
<stop offset="0.42" stop-color="#EAD4D1"/>
<stop offset="1" stop-color="#F0E9CB"/>
</linearGradient>
<linearGradient id="paint4_linear_51_144460" x1="327.612" y1="270.409" x2="362.389" y2="376.666" gradientUnits="userSpaceOnUse">
<stop stop-opacity="0"/>
<stop offset="0.99"/>
</linearGradient>
<linearGradient id="paint5_linear_51_144460" x1="334.238" y1="235.231" x2="355.321" y2="235.231" gradientUnits="userSpaceOnUse">
<stop stop-color="#E5C5D5"/>
<stop offset="0.42" stop-color="#EAD4D1"/>
<stop offset="1" stop-color="#F0E9CB"/>
</linearGradient>
<linearGradient id="paint6_linear_51_144460" x1="429.862" y1="349.709" x2="327.153" y2="242.891" gradientUnits="userSpaceOnUse">
<stop offset="0.01"/>
<stop offset="0.08" stop-opacity="0.69"/>
<stop offset="0.21" stop-opacity="0.32"/>
<stop offset="1" stop-opacity="0"/>
</linearGradient>
<linearGradient id="paint7_linear_51_144460" x1="337.24" y1="303.547" x2="418.847" y2="303.547" gradientUnits="userSpaceOnUse">
<stop offset="0.01"/>
<stop offset="0.08" stop-opacity="0.69"/>
<stop offset="0.21" stop-opacity="0.32"/>
<stop offset="1" stop-opacity="0"/>
</linearGradient>
<linearGradient id="paint8_linear_51_144460" x1="275.786" y1="273.28" x2="291.076" y2="273.28" gradientUnits="userSpaceOnUse">
<stop stop-color="#E5C5D5"/>
<stop offset="0.42" stop-color="#EAD4D1"/>
<stop offset="1" stop-color="#F0E9CB"/>
</linearGradient>
<linearGradient id="paint9_linear_51_144460" x1="276.994" y1="278.349" x2="246.354" y2="371.969" gradientUnits="userSpaceOnUse">
<stop stop-color="#E5C5D5"/>
<stop offset="0.42" stop-color="#EAD4D1"/>
<stop offset="1" stop-color="#F0E9CB"/>
</linearGradient>
<linearGradient id="paint10_linear_51_144460" x1="259.876" y1="328.417" x2="292.905" y2="367.36" gradientUnits="userSpaceOnUse">
<stop stop-color="#E5C5D5"/>
<stop offset="0.42" stop-color="#EAD4D1"/>
<stop offset="1" stop-color="#F0E9CB"/>
</linearGradient>
<linearGradient id="paint11_linear_51_144460" x1="219.374" y1="328.432" x2="275.914" y2="289.502" gradientUnits="userSpaceOnUse">
<stop offset="0.01"/>
<stop offset="0.08" stop-opacity="0.69"/>
<stop offset="0.21" stop-opacity="0.32"/>
<stop offset="1" stop-opacity="0"/>
</linearGradient>
<linearGradient id="paint12_linear_51_144460" x1="254.866" y1="235.247" x2="237.39" y2="235.247" gradientUnits="userSpaceOnUse">
<stop stop-color="#E5C5D5"/>
<stop offset="0.42" stop-color="#EAD4D1"/>
<stop offset="1" stop-color="#F0E9CB"/>
</linearGradient>
<linearGradient id="paint13_linear_51_144460" x1="174.238" y1="331.916" x2="261.316" y2="241.354" gradientUnits="userSpaceOnUse">
<stop offset="0.01"/>
<stop offset="0.08" stop-opacity="0.69"/>
<stop offset="0.21" stop-opacity="0.32"/>
<stop offset="1" stop-opacity="0"/>
</linearGradient>
<clipPath id="clip0_51_144460">
<rect width="672" height="487" fill="white"/>
</clipPath>
</defs>
</svg>
