<svg width="670" height="501" viewBox="0 0 670 501" fill="none" xmlns="http://www.w3.org/2000/svg">
<g clip-path="url(#clip0_51_145285)">
<path opacity="0.18" d="M379.844 44.9187C385.08 47.3226 390.224 49.9269 395.276 52.7861C454.34 86.1133 495.675 148.67 560.342 169.449C577.85 175.077 596.644 176.625 610.789 188.936C620.996 198.169 629.878 208.745 637.189 220.369C652.647 244.454 662.905 271.452 667.318 299.662C676.154 354.297 663.791 415.815 619.938 453.24C586.98 481.395 537.929 482.816 496.649 475.203C472.968 470.851 450.28 462.364 426.838 456.773C385.854 447.038 343.221 446.286 301.913 454.57C274.669 460.033 248.343 469.449 221.08 475.222C201.496 479.392 181.104 481.705 161.116 479.137C141.936 476.679 127.147 467.609 109.676 460.288C76.4427 446.32 42.8049 428.509 21.6229 398.478C5.32892 374.945 -2.19873 346.525 0.330566 318.092C3.08704 289.703 14.8067 262.898 33.8214 241.494C42.2538 231.879 53.2766 223.392 57.3917 211.154C61.5069 198.916 62.1499 184.638 63.4359 172.09C66.2283 144.572 69.5719 116.272 83.0931 92.0867C98.1208 65.2064 124.741 45.9568 153.786 35.1209C182.831 24.285 214.227 21.189 245.256 20.8248C291.203 20.3695 338.362 25.833 379.844 44.9187Z" fill="#36357E"/>
<path d="M73.3563 284.892L104.587 306.746L243.254 403.322C253.903 410.93 264.994 417.911 276.469 424.229C285.82 429.237 291.166 438.798 302.483 441.348C308.103 442.317 313.857 442.218 319.439 441.057C328.568 439.584 337.549 437.323 346.28 434.3C347.345 433.936 348.87 433.717 349.348 434.737C349.826 435.757 347.254 435.648 348.154 434.956C429.447 424.029 507.12 394.89 587.678 379.593C588.614 379.421 589.469 378.952 590.112 378.257C590.756 377.562 591.155 376.678 591.248 375.739C591.341 374.8 591.124 373.857 590.63 373.051C590.135 372.244 589.389 371.619 588.505 371.27C582.02 368.647 574.947 367.628 567.801 366.244C554.941 363.894 542.265 361.6 529.441 359.523C503.598 355.086 477.505 352.215 451.308 350.928C407.805 349.106 363.898 353.714 320.872 347.03C279.996 340.693 241.527 324.503 203.498 308.294C194.313 304.397 184.962 300.354 177.779 293.507C172.139 288.134 167.619 281.05 160.436 277.517C152.977 273.874 143.902 274.512 135.892 274.876C114.765 275.805 93.8954 280.066 73.3563 284.892Z" fill="url(#paint0_linear_51_145285)"/>
<path d="M584.151 352.476L402.569 274.166C398.636 272.209 394.198 271.479 389.838 272.072L165.249 290.993C160.951 291.594 161.722 309.915 165.249 312.847L297.89 424.776C301.885 428.272 306.667 430.767 311.836 432.054C317.005 433.34 322.409 433.38 327.596 432.17L582.553 370.705C585.804 369.922 587.201 353.969 584.151 352.476Z" fill="#7474B4"/>
<path d="M584.151 352.476L402.569 274.166C398.636 272.209 394.198 271.479 389.838 272.072L165.249 290.993C160.951 291.594 161.722 309.915 165.249 312.847L297.89 424.776C301.885 428.272 306.667 430.767 311.836 432.054C317.005 433.34 322.409 433.38 327.596 432.17L582.553 370.705C585.804 369.922 587.201 353.969 584.151 352.476Z" fill="url(#paint1_linear_51_145285)"/>
<path d="M165.194 299.862L297.835 411.791C301.827 415.293 306.608 417.793 311.777 419.083C316.947 420.373 322.353 420.414 327.541 419.203L582.553 357.721C585.805 356.938 586.227 351.838 583.196 350.327L513.311 311.226L494.94 300.992L439.073 269.868C435.141 267.91 430.702 267.18 426.342 267.774L167.454 290.101C163.155 290.611 161.722 296.93 165.194 299.862Z" fill="#7474B4"/>
<path d="M426.36 273.875L189.72 308.568L262.562 367.209L505.412 318.493L426.36 273.875Z" fill="url(#paint2_linear_51_145285)"/>
<path d="M186.854 314.905C187.552 316.999 189.849 318.074 191.925 318.893C207.059 324.522 222.489 329.337 238.147 333.317C253.009 337.378 268.514 341.476 283.689 338.781C285.594 338.289 287.571 338.129 289.531 338.307C292.764 338.89 295.153 341.494 297.67 343.552C310.217 353.787 328.552 351.456 344.535 348.578C343.843 343.355 343.5 338.093 343.506 332.825C386.255 333.587 428.992 330.699 471.241 324.193C480.427 322.791 505.246 321.68 511.511 314.122C512.285 313.288 512.907 312.327 513.348 311.281L494.977 301.046C494.144 301.082 493.319 301.21 492.515 301.429C443.633 314.866 392.826 320.098 342.201 316.908C340.897 310.37 347.713 302.193 342.532 297.859C340.827 296.657 338.762 296.06 336.672 296.165C328.916 295.867 321.205 297.468 314.222 300.828C310.089 302.831 306.194 305.453 301.73 306.582C297.361 307.442 292.88 307.583 288.466 307.001C260.281 304.91 232 304.375 203.756 305.399C199.108 305.563 194.239 305.836 190.29 308.258C187.975 309.642 185.972 312.337 186.854 314.905Z" fill="url(#paint3_linear_51_145285)"/>
<path d="M451.125 333.026L353.61 352.567L404.039 393.342L505.412 370.797L451.125 333.026Z" fill="url(#paint4_linear_51_145285)"/>
<path d="M499.882 377.863C498.885 379.848 497.473 381.601 495.741 383.004C494.008 384.408 491.994 385.43 489.833 386.003C482.668 387.715 440.91 398.314 440.91 398.314C440.91 398.314 434.113 399.116 430.347 394.672L499.882 377.863Z" fill="url(#paint5_linear_51_145285)"/>
<path d="M433.782 267.664L166.701 305.344C164.743 305.615 162.755 305.134 161.144 304C159.532 302.866 158.418 301.164 158.029 299.243L119.927 108.514C119.519 106.478 119.549 104.38 120.013 102.356C120.478 100.333 121.368 98.4291 122.624 96.7692C123.881 95.1094 125.477 93.7307 127.307 92.723C129.137 91.7154 131.161 91.1014 133.247 90.9212L397.003 67.9928C400.885 67.6557 404.745 68.8396 407.757 71.2907C410.769 73.7418 412.692 77.265 413.115 81.1051L433.782 267.664Z" fill="#7474B4"/>
<path d="M433.782 267.664L167.399 305.235C165.247 305.537 163.059 305.011 161.286 303.765C159.513 302.518 158.289 300.646 157.864 298.533L119.927 108.514C119.519 106.478 119.549 104.38 120.013 102.356C120.478 100.333 121.368 98.4291 122.624 96.7692C123.881 95.1094 125.477 93.7307 127.307 92.7231C129.137 91.7154 131.161 91.1014 133.247 90.9212L397.003 67.9928C400.885 67.6557 404.745 68.8396 407.757 71.2907C410.769 73.7418 412.692 77.265 413.115 81.1051L433.782 267.664Z" fill="url(#paint6_linear_51_145285)"/>
<path d="M171.533 294.381L133.596 101.939L402.57 77.3171L423.954 259.524L171.533 294.381Z" fill="white"/>
<path d="M193.652 136.924L382.306 117.455L378.026 93.7803L189.316 113.248C187.721 113.351 186.166 113.784 184.751 114.521C183.336 115.257 182.093 116.28 181.102 117.523C180.112 118.766 179.395 120.202 179 121.737C178.605 123.272 178.539 124.872 178.808 126.434C179.532 129.694 181.451 132.572 184.193 134.51C186.936 136.448 190.306 137.308 193.652 136.924Z" fill="#7474B4"/>
<path opacity="0.56" d="M382.306 117.455L229.916 133.208L225.636 109.46L378.026 93.6893L382.306 117.455Z" fill="white"/>
<path d="M202.819 127.681C199.597 126.432 197.923 123.043 199.08 120.111C200.236 117.179 203.786 115.815 207.008 117.064C210.23 118.313 211.905 121.703 210.748 124.635C209.591 127.567 206.042 128.931 202.819 127.681Z" stroke="white" stroke-width="1.10815" stroke-miterlimit="10"/>
<path d="M201 132.225C201.128 131.915 202.727 127.599 202.727 127.599" stroke="white" stroke-width="1.10815" stroke-miterlimit="10"/>
<path opacity="0.18" d="M195.47 171.198L388.001 150.764L386.991 147.632L194.478 168.065L195.47 171.198Z" fill="#7474B4"/>
<path opacity="0.18" d="M319.55 146.139L384.566 138.508L383.243 132.899L318.209 139.928L319.55 146.139Z" fill="#7474B4"/>
<path opacity="0.18" d="M197.859 183.818L390.389 163.385L389.397 160.253L196.866 180.686L197.859 183.818Z" fill="#7474B4"/>
<g opacity="0.66">
<path opacity="0.18" d="M329.893 196.548L394.909 188.936L393.586 183.308L328.552 190.338L329.893 196.548Z" fill="#7474B4"/>
<path opacity="0.18" d="M206.328 222.736L398.858 202.303L397.848 199.152L205.317 219.604L206.328 222.736Z" fill="#7474B4"/>
<path opacity="0.18" d="M210.718 237.342L403.249 216.909L402.239 213.776L209.726 234.21L210.718 237.342Z" fill="#7474B4"/>
</g>
<path opacity="0.18" d="M214.448 268.903L406.777 244.008L405.785 240.893L213.456 265.789L214.448 268.903Z" fill="#7474B4"/>
<path d="M321.166 250.509C321.166 250.509 517.923 315.087 544.818 257.12C571.714 199.152 424.431 183.272 424.431 183.272C424.431 183.272 596.533 200.263 557.917 271.871C519.3 343.479 309.427 272.673 309.427 272.673L321.166 250.509Z" fill="white"/>
<path d="M320.707 247.832C320.625 250.485 319.893 253.079 318.576 255.39L313.726 265.661C312.692 268.217 311.239 270.586 309.427 272.673C308.007 274.095 306.269 275.165 304.354 275.798C302.439 276.431 300.401 276.608 298.404 276.315C297.462 276.254 296.552 275.953 295.761 275.443C294.969 274.933 294.323 274.23 293.885 273.401C293.058 271.27 294.455 268.994 295.575 267.009C298.588 261.673 299.874 255.59 301.307 249.653C302.409 245.027 304.651 238.508 310.346 237.852C315.379 237.269 320.413 242.97 320.707 247.832Z" fill="#7474B4"/>
<path d="M271.288 223.902C271.288 223.902 312.918 186.149 353.61 223.902C353.61 223.902 322.159 219.877 312.458 237.051L271.288 223.902Z" fill="#7474B4"/>
<path d="M254.276 258.413C254.276 258.413 256.261 314.323 311.944 316.69C311.944 316.69 287.014 297.258 292.581 278.355L254.276 258.413Z" fill="#7474B4"/>
<path d="M312.458 237.087C312.458 237.087 181.196 162.42 107.398 174.367C107.398 174.367 124.08 228.127 292.636 278.355L312.458 237.087Z" fill="white"/>
<path d="M107.307 174.33C107.307 174.33 123.988 228.091 292.544 278.318L298.551 265.807L312.458 237.087C312.458 237.087 195.948 170.724 120.754 173.092C116.249 173.213 111.757 173.627 107.307 174.33Z" fill="url(#paint7_linear_51_145285)"/>
<path d="M107.306 174.33C118.972 189.5 159.242 217.455 242.023 247.267C246.701 248.967 251.521 250.667 256.481 252.367C269.525 256.835 283.548 261.315 298.551 265.807L312.44 237.087C312.44 237.087 298.092 228.546 276.157 217.692C264.583 211.955 250.896 205.581 236.089 199.48C194.772 182.453 144.692 167.428 107.306 174.33Z" fill="white"/>
<path d="M208.459 202.212C215.458 205.108 223.321 204.634 230.89 205.126C233.14 205.215 235.372 205.563 237.541 206.164C241.821 207.806 245.725 210.283 249.023 213.448C249.47 213.753 249.806 214.194 249.978 214.705C250.028 215.235 249.898 215.767 249.61 216.217C247.935 219.602 246.007 222.859 243.842 225.96C241.27 229.602 238.239 233.481 238.33 237.961C238.591 241.392 239.935 244.654 242.17 247.286L242.721 248.05C245.371 251.588 248.249 254.952 251.337 258.121C253.615 260.453 252.146 267.573 257.657 265.861C262.452 264.386 260.119 258.741 258.484 255.772L256.647 252.385L253.56 246.721C251.209 242.441 248.82 237.36 250.805 232.898C252.201 229.784 255.416 227.908 258.429 226.233C264.115 222.892 270.076 220.035 276.249 217.692C264.675 211.955 250.988 205.581 236.181 199.48C226.515 200.285 216.804 200.424 207.118 199.899C206.309 200.664 207.448 201.793 208.459 202.212Z" fill="url(#paint8_linear_51_145285)"/>
<path d="M224.809 234.374C216.469 234.374 209.708 227.671 209.708 219.404C209.708 211.136 216.469 204.434 224.809 204.434C233.149 204.434 239.91 211.136 239.91 219.404C239.91 227.671 233.149 234.374 224.809 234.374Z" fill="#7474B4"/>
<path d="M224.809 229.092C219.127 229.092 214.521 224.526 214.521 218.894C214.521 213.261 219.127 208.695 224.809 208.695C230.491 208.695 235.097 213.261 235.097 218.894C235.097 224.526 230.491 229.092 224.809 229.092Z" fill="url(#paint9_linear_51_145285)"/>
<path d="M247.388 186.805C247.388 186.896 249.555 186.532 249.5 186.641C249.005 187.22 248.374 187.67 247.663 187.952C245.064 188.993 242.401 189.869 239.69 190.575C236.989 190.848 235.685 188.317 234.84 186.186C234.16 184.474 233.462 182.762 232.746 181.068C232.196 179.979 231.847 178.801 231.717 177.59C231.69 177.312 231.727 177.032 231.827 176.77C232.002 176.435 232.297 176.175 232.654 176.042C233.196 175.823 233.802 175.823 234.344 176.042C235.336 176.461 235.795 177.572 236.291 178.519C237.449 180.686 239.267 182.452 240.259 184.693C241.002 184.739 241.733 184.497 242.299 184.019L245.514 181.943C245.668 181.821 245.852 181.739 246.046 181.706C246.205 181.698 246.364 181.728 246.508 181.795C246.652 181.862 246.777 181.962 246.873 182.088C247.451 182.78 247.798 183.633 247.865 184.529C247.957 184.985 247.957 185.456 247.865 185.913C247.75 186.231 247.589 186.532 247.388 186.805Z" fill="#FCAB9A"/>
<path d="M244.907 181.851L243.768 182.544C243.603 182.544 243.438 182.726 243.383 182.908C243.346 183.039 243.346 183.177 243.383 183.308L244.136 186.623C244.365 188.107 244.903 189.527 245.716 190.793C246.157 191.394 249.39 189.173 249.941 188.881C251.316 187.976 252.517 186.835 253.487 185.512C253.935 184.973 254.278 184.355 254.497 183.691C254.829 182.011 254.569 180.269 253.762 178.756C252.476 176.261 250.309 177.499 248.674 179.029C247.51 180.084 246.249 181.03 244.907 181.851Z" fill="#7474B4"/>
<path d="M265.648 264.568C265.593 264.807 265.464 265.023 265.281 265.188C262.661 267.72 259.54 269.686 256.114 270.961C255.906 271.076 255.672 271.138 255.434 271.143C255.206 271.095 255.002 270.968 254.861 270.784C254.719 270.6 254.649 270.372 254.662 270.141C254.709 269.68 254.88 269.239 255.158 268.866C255.832 267.808 256.588 266.804 257.418 265.861C258.192 265.227 258.686 264.319 258.796 263.33C258.724 262.837 258.594 262.354 258.41 261.891C257.859 259.833 261.313 259.414 262.764 259.906C263.585 260.4 264.274 261.08 264.776 261.891C265.278 262.702 265.577 263.62 265.648 264.568Z" fill="#FCAB9A"/>
<path d="M274.099 206.729C274.099 206.729 280.364 215.397 273.916 223.119C269.452 228.473 262.746 232.115 256.573 235.175C255.489 235.721 254.203 236.158 253.156 236.814C251.117 238.089 252.366 239.163 253.45 240.857C256.169 245.191 258.913 249.495 261.68 253.769C263.28 255.933 264.378 258.42 264.895 261.054L257.896 263.166C254.125 256.794 249.823 250.744 245.036 245.082C242.96 242.642 240.278 239.619 240.664 236.231C241.148 233.096 242.539 230.167 244.669 227.799L257.767 212.72L274.099 206.729Z" fill="#473F47"/>
<path d="M243.677 165.297C243.456 165.935 242.832 166.445 242.74 167.118C242.648 167.792 243.346 168.593 243.805 169.34C244.264 170.087 244.577 171.526 245.201 172.527C245.313 172.748 245.494 172.926 245.716 173.037C245.916 173.109 246.127 173.146 246.34 173.146C247.175 173.123 248.003 172.988 248.802 172.746C248.944 172.656 249.113 172.618 249.28 172.636C249.42 172.718 249.524 172.848 249.574 173.001C250.508 174.916 250.956 177.03 250.878 179.156C250.878 179.848 250.878 180.722 251.448 181.068C251.654 181.203 251.899 181.266 252.146 181.251C253.762 181.251 254.993 179.812 255.82 178.391C256.496 177.114 257.02 175.764 257.382 174.367C257.513 173.961 257.563 173.534 257.529 173.11C257.443 172.616 257.269 172.141 257.014 171.708C256.199 170.13 255.541 168.477 255.048 166.772C254.62 164.539 253.852 162.384 252.77 160.38C252.351 159.743 251.74 159.253 251.025 158.978C250.208 158.801 249.358 158.845 248.563 159.105C246.904 159.369 245.411 160.256 244.393 161.582C244.081 162.056 243.934 164.478 243.677 165.297Z" fill="#FCAB9A"/>
<path d="M259.788 213.849C261.191 214.071 262.626 213.99 263.995 213.612C266.002 213.214 268.055 213.098 270.094 213.266C271.306 213.568 272.491 213.964 273.64 214.45C274.572 214.699 275.547 214.744 276.498 214.584C277.45 214.424 278.355 214.061 279.151 213.521C279.151 213.248 279.151 212.957 279.151 212.684C278.876 210.243 279.905 206.783 279.151 204.434C276.451 195.055 274.154 188.043 268.772 179.994C267.228 177.681 261.147 174.713 258.649 173.474C258.081 173.172 257.455 172.992 256.812 172.946C256.072 172.976 255.348 173.175 254.699 173.529C252.476 174.603 251.613 176.607 250.529 178.683C249.266 180.798 248.407 183.125 247.994 185.548C247.718 188.681 246.597 191.613 248.398 194.527C250.878 198.624 254.993 201.393 257.289 205.818C257.697 206.457 257.925 207.193 257.951 207.949C257.951 209.005 257.198 209.97 257.198 211.026C257.273 211.708 257.564 212.349 258.029 212.856C258.495 213.363 259.111 213.711 259.788 213.849Z" fill="#7474B4"/>
<path d="M245.624 199.08C244.742 199.48 243.787 199.826 243.033 200.118C238.716 201.481 234.24 202.289 229.714 202.522C224.022 203.234 218.27 203.338 212.556 202.831C210.222 202.654 207.959 201.95 205.942 200.773C205.354 200.391 204.748 199.699 205.042 199.061C205.213 198.777 205.47 198.554 205.777 198.424C207.983 197.27 210.472 196.753 212.96 196.931C212.96 196.075 213.18 194.982 214.025 194.909C214.87 194.836 215.366 195.984 215.862 196.73C216.965 198.552 219.537 198.752 221.594 198.734C226.35 198.803 231.098 198.32 235.74 197.295C238.067 196.745 240.323 195.932 242.464 194.873C243.842 194.181 246.616 191.322 247.975 192.851C249.335 194.381 250.602 195.401 248.765 197.022C247.829 197.862 246.77 198.555 245.624 199.08Z" fill="#FCAB9A"/>
<path d="M252.789 181.505C252.789 181.505 245.587 191.576 244.54 192.177C243.493 192.778 251.007 200.099 251.007 200.099C251.007 200.099 259.715 190.757 260.725 185.985C261.736 181.214 257.235 177.936 252.789 181.505Z" fill="#7474B4"/>
<path d="M244.448 160.599C244.758 161.018 245.15 161.37 245.602 161.633C246.054 161.896 246.555 162.065 247.075 162.128C247.981 162.271 248.896 162.35 249.813 162.365C249.813 162.365 249.978 162.365 250.033 162.365C250.066 162.402 250.092 162.445 250.107 162.492C250.123 162.539 250.129 162.589 250.125 162.638C250.163 163.338 250.346 164.022 250.662 164.648C250.978 165.275 251.421 165.83 251.962 166.281C252.104 166.369 252.219 166.495 252.293 166.645C252.367 166.857 252.367 167.088 252.293 167.3C252.164 168.029 252.164 168.775 252.293 169.504C252.397 170.244 252.746 170.929 253.285 171.453C253.419 171.544 253.516 171.68 253.56 171.835C253.561 171.97 253.523 172.103 253.45 172.218C253.197 172.979 253.25 173.807 253.597 174.53C254.288 174.005 255.088 173.638 255.939 173.455C256.791 173.272 257.672 173.279 258.521 173.474C259.036 173.518 259.525 173.722 259.917 174.057C262.379 176.625 264.399 179.666 266.99 182.143C268.092 183.199 269.323 184.128 270.352 185.275C271.903 187.151 273.143 189.26 274.026 191.522C274.7 193.295 275.595 194.977 276.69 196.53C277.24 197.302 277.939 197.958 278.746 198.461C279.553 198.964 280.453 199.304 281.393 199.462C282.283 199.535 283.178 199.423 284.023 199.135C284.867 198.847 285.642 198.387 286.298 197.787C287.445 196.744 288.263 195.396 288.655 193.903C289.046 192.41 288.993 190.837 288.503 189.373C288.263 188.919 288.198 188.395 288.319 187.898C288.462 187.622 288.662 187.38 288.907 187.187C290.033 186.024 290.662 184.474 290.662 182.862C290.662 181.25 290.033 179.7 288.907 178.537C287.676 177.39 284.718 176.279 284.553 174.385C284.387 172.491 286.096 170.615 285.398 168.43C285.145 167.765 284.778 167.149 284.314 166.608C283.428 165.319 282.227 164.272 280.823 163.567C279.403 163.093 277.913 162.853 276.414 162.857C271.601 162.529 266.567 161.036 263.389 157.393C262.674 156.45 261.888 155.561 261.037 154.734C260.041 153.97 258.906 153.402 257.694 153.059C254.779 151.954 251.564 151.908 248.618 152.932C247.595 153.355 246.682 154.003 245.947 154.826C245.212 155.649 244.674 156.626 244.375 157.685C244.176 158.147 244.08 158.647 244.092 159.15C244.105 159.652 244.226 160.146 244.448 160.599Z" fill="#FC682D"/>
<path d="M244.981 168.484C245.688 168.46 246.393 168.4 247.093 168.302C247.296 168.685 246.377 170.123 246.175 170.233C246.078 170.316 245.954 170.362 245.826 170.362C245.698 170.362 245.574 170.316 245.477 170.233C245.396 170.118 245.339 169.987 245.311 169.85L244.981 168.466" fill="white"/>
<path d="M246.634 165.388C246.33 165.388 246.083 165.144 246.083 164.842C246.083 164.54 246.33 164.296 246.634 164.296C246.939 164.296 247.186 164.54 247.186 164.842C247.186 165.144 246.939 165.388 246.634 165.388Z" fill="#231F20"/>
<path d="M233.51 171.729L234.304 171.579C234.803 171.485 235.284 171.809 235.379 172.303L236.389 177.563C236.484 178.057 236.157 178.534 235.658 178.628L234.864 178.777C234.366 178.872 233.885 178.547 233.79 178.053L232.78 172.794C232.685 172.3 233.012 171.823 233.51 171.729Z" fill="#7474B4"/>
<path d="M235.116 172.163C235.598 172.214 236.058 172.395 236.443 172.687C236.829 172.98 237.126 173.372 237.302 173.82C237.454 174.404 237.423 175.02 237.213 175.586C237.003 176.152 236.624 176.642 236.126 176.989C235.116 177.661 233.956 178.08 232.746 178.209C232.569 178.269 232.38 178.287 232.195 178.262C232.01 178.237 231.834 178.169 231.68 178.063C231.522 177.891 231.42 177.675 231.386 177.444C231.097 176.633 230.978 175.771 231.037 174.913C231.289 174.056 231.834 173.314 232.578 172.812C233.322 172.31 234.219 172.081 235.116 172.163Z" fill="#FCAB9A"/>
<path d="M238.459 168.247L238.643 170.324C238.703 170.599 238.653 170.886 238.501 171.125C238.35 171.363 238.111 171.533 237.834 171.598C234.314 171.843 230.869 172.732 227.675 174.221C225.943 175.187 224.296 176.296 222.752 177.535C222.127 178.027 221.227 177.535 221.08 176.479L219.445 165.552C219.298 164.587 219.996 163.913 220.731 164.277C223.799 165.825 230.688 168.666 237.063 166.918C237.743 166.754 238.386 167.392 238.459 168.247Z" fill="#7474B4"/>
<path d="M265.207 262.328C266.087 262.889 266.738 263.741 267.045 264.732C267.146 265.04 267.146 265.372 267.045 265.679C266.916 265.953 266.72 266.191 266.475 266.371C263.537 268.965 260.232 271.119 256.665 272.764C256.212 272.993 255.72 273.135 255.213 273.182C254.963 273.211 254.708 273.173 254.477 273.074C254.245 272.975 254.043 272.818 253.891 272.618C253.716 272.326 253.627 271.992 253.634 271.653C253.614 271.028 253.721 270.405 253.95 269.822C254.179 269.239 254.524 268.708 254.965 268.261C255.406 267.814 255.934 267.459 256.516 267.219C257.099 266.979 257.724 266.858 258.355 266.863C258.807 266.9 259.262 266.9 259.714 266.863C260.138 266.756 260.537 266.571 260.89 266.317C261.855 265.759 262.766 265.113 263.609 264.386C264.178 263.729 264.712 263.042 265.207 262.328Z" fill="#473F47"/>
</g>
<defs>
<linearGradient id="paint0_linear_51_145285" x1="866.646" y1="-64.9335" x2="-504.081" y2="969.235" gradientUnits="userSpaceOnUse">
<stop offset="0.01"/>
<stop offset="0.08" stop-opacity="0.69"/>
<stop offset="0.21" stop-opacity="0.32"/>
<stop offset="1" stop-opacity="0"/>
</linearGradient>
<linearGradient id="paint1_linear_51_145285" x1="404.388" y1="234.592" x2="263.118" y2="687.164" gradientUnits="userSpaceOnUse">
<stop offset="0.01"/>
<stop offset="0.08" stop-opacity="0.69"/>
<stop offset="0.21" stop-opacity="0.32"/>
<stop offset="1" stop-opacity="0"/>
</linearGradient>
<linearGradient id="paint2_linear_51_145285" x1="322.985" y1="148.798" x2="409.257" y2="737.103" gradientUnits="userSpaceOnUse">
<stop offset="0.01"/>
<stop offset="0.08" stop-opacity="0.69"/>
<stop offset="0.21" stop-opacity="0.32"/>
<stop offset="1" stop-opacity="0"/>
</linearGradient>
<linearGradient id="paint3_linear_51_145285" x1="382.692" y1="162.274" x2="279.275" y2="644.38" gradientUnits="userSpaceOnUse">
<stop offset="0.01"/>
<stop offset="0.08" stop-opacity="0.69"/>
<stop offset="0.21" stop-opacity="0.32"/>
<stop offset="1" stop-opacity="0"/>
</linearGradient>
<linearGradient id="paint4_linear_51_145285" x1="410.01" y1="231.023" x2="476.489" y2="684.331" gradientUnits="userSpaceOnUse">
<stop offset="0.01"/>
<stop offset="0.08" stop-opacity="0.69"/>
<stop offset="0.21" stop-opacity="0.32"/>
<stop offset="1" stop-opacity="0"/>
</linearGradient>
<linearGradient id="paint5_linear_51_145285" x1="457.022" y1="365.588" x2="492.451" y2="457.529" gradientUnits="userSpaceOnUse">
<stop offset="0.01"/>
<stop offset="0.08" stop-opacity="0.69"/>
<stop offset="0.21" stop-opacity="0.32"/>
<stop offset="1" stop-opacity="0"/>
</linearGradient>
<linearGradient id="paint6_linear_51_145285" x1="297.872" y1="2.90465" x2="146.353" y2="1337.8" gradientUnits="userSpaceOnUse">
<stop offset="0.01"/>
<stop offset="0.08" stop-opacity="0.69"/>
<stop offset="0.21" stop-opacity="0.32"/>
<stop offset="1" stop-opacity="0"/>
</linearGradient>
<linearGradient id="paint7_linear_51_145285" x1="218.673" y1="163.203" x2="175.442" y2="376.645" gradientUnits="userSpaceOnUse">
<stop offset="0.01"/>
<stop offset="0.08" stop-opacity="0.69"/>
<stop offset="0.21" stop-opacity="0.32"/>
<stop offset="1" stop-opacity="0"/>
</linearGradient>
<linearGradient id="paint8_linear_51_145285" x1="319.642" y1="238.417" x2="74.815" y2="219.293" gradientUnits="userSpaceOnUse">
<stop offset="0.01"/>
<stop offset="0.08" stop-opacity="0.69"/>
<stop offset="0.21" stop-opacity="0.32"/>
<stop offset="1" stop-opacity="0"/>
</linearGradient>
<linearGradient id="paint9_linear_51_145285" x1="286.188" y1="165.57" x2="64.4171" y2="361.661" gradientUnits="userSpaceOnUse">
<stop offset="0.01"/>
<stop offset="0.08" stop-opacity="0.69"/>
<stop offset="0.21" stop-opacity="0.32"/>
<stop offset="1" stop-opacity="0"/>
</linearGradient>
<clipPath id="clip0_51_145285">
<rect width="670" height="500.586" fill="white" transform="matrix(-1 0 0 1 670 0.207153)"/>
</clipPath>
</defs>
</svg>
