<svg xmlns="http://www.w3.org/2000/svg" width="367" height="277" viewBox="0 0 367 277" fill="none">
<path opacity="0.18" d="M350.227 200.299C349.575 211.748 348.251 223.375 343.646 233.865C335.237 253.053 316.471 266.313 296.372 272.151C291.262 273.619 286.05 274.704 280.779 275.397C265.384 277.485 249.543 276.575 234.069 274.665C220.788 273.022 207.586 270.647 194.325 268.826C186.854 267.837 179.354 266.946 171.834 266.501C157.437 265.66 143.01 266.293 128.622 267.332C127.95 267.332 127.268 267.421 126.646 267.48C113.572 268.47 100.292 269.727 87.3566 268.143C84.3636 267.791 81.3939 267.263 78.4631 266.56C76.9545 266.204 75.4624 265.788 73.9868 265.313C59.115 260.593 46.0712 250.687 34.5987 240.465C22.7902 229.946 17.2565 213.638 16.7229 198.141C16.0905 179.894 13.6201 149.425 75.4394 99.4517C88.4238 88.9029 87.3269 68.2308 93.5029 52.655C102.396 30.3205 120.618 11.2713 143.514 4.01775C153.395 0.870918 163.899 -0.0691714 174.285 0.0594725C187.488 0.168693 200.629 1.89005 213.416 5.18544C237.567 11.3702 266.223 23.9279 284.435 43.2145C287.584 46.5233 290.429 50.1103 292.933 53.9316C308.448 77.7604 306.699 108.764 322.667 132.444C329.584 142.666 339.466 150.8 344.96 161.854C350.82 173.531 350.978 187.217 350.227 200.299Z" fill="#6263AB"/>
<path d="M128.623 267.332C127.951 267.332 127.269 267.421 126.647 267.48C113.573 268.47 100.292 269.727 87.3574 268.143C84.3644 267.791 81.3947 267.263 78.464 266.56C76.9554 266.204 75.4632 265.788 73.9876 265.313C72.6635 223.098 108.86 167.188 113.267 160.478L126.834 161.052L169.711 162.863C130.945 199.715 127.309 244.037 128.623 267.332Z" fill="#FE662E"/>
<path d="M128.623 267.332C127.951 267.332 127.269 267.421 126.647 267.48C113.573 268.47 100.292 269.727 87.3574 268.143C84.3644 267.791 81.3947 267.263 78.464 266.56C76.9554 266.204 75.4632 265.788 73.9876 265.313C72.6635 223.098 108.86 167.188 113.267 160.478L126.834 161.052L169.711 162.863C130.945 199.715 127.309 244.037 128.623 267.332Z" fill="url(#paint0_linear_231_61269)"/>
<path d="M128.089 159.825C127.655 160.231 127.23 160.637 126.815 161.052C87.051 199.843 85.4305 246.403 87.308 268.124C84.3149 267.772 81.3453 267.243 78.4145 266.54C76.9059 266.184 75.4138 265.768 73.9381 265.293C72.6634 223.098 108.86 167.188 113.267 160.478L113.712 159.825H128.089Z" fill="#FE662E"/>
<path d="M226.974 70.2099C225.353 73.1786 225.857 76.7608 225.146 80.0363C224.935 80.9632 224.664 81.8755 224.336 82.7675C223.091 86.3498 221.519 90.0309 218.525 92.3564C217.603 92.8902 216.842 93.6628 216.322 94.5929C216.171 95.0751 216.138 95.5866 216.226 96.0843C216.313 96.5819 216.519 97.0512 216.826 97.4527C217.454 98.2255 218.201 98.8936 219.039 99.4318C218.871 101.144 218.92 103.172 218.743 104.874C218.357 108.645 218.11 112.89 220.6 115.76C222.577 117.966 225.62 118.728 228.506 119.065C231.391 119.401 234.435 119.579 237.024 121.044C242.478 124.082 243.941 131.801 249.366 134.898C250.981 135.754 252.752 136.275 254.573 136.432C258.417 136.978 262.333 136.255 265.73 134.374C269.04 132.394 279.87 129.168 276.935 126.665C273.734 123.943 268.823 116.225 266.53 112.118C263.978 107.553 262.242 102.577 261.402 97.4131C260.71 93.1085 260.641 88.7346 259.998 84.43C259.356 80.1254 258.022 75.7713 255.265 72.4265C251.105 67.4787 244.306 65.4995 237.844 65.1334C236.039 64.9515 234.217 65.0854 232.458 65.5292C231.577 65.7524 230.751 66.1548 230.032 66.7115C229.313 67.2683 228.716 67.9673 228.278 68.7651" fill="#BB856E"/>
<path d="M290.651 90.4367C290.394 92.7246 289.763 94.9546 288.783 97.0372C288.22 98.4407 287.414 99.7338 286.402 100.857C284.425 102.618 284.366 105.597 283.151 107.922C282.32 109.408 281.169 110.689 279.781 111.673C277.003 113.726 273.764 115.063 270.348 115.565C266.932 116.067 263.445 115.719 260.196 114.553L259.207 114.176C256.305 112.82 253.553 111.161 250.996 109.229C250.835 109.123 250.706 108.976 250.62 108.803C250.452 108.388 250.808 107.972 251.124 107.645C252.168 106.572 252.99 105.302 253.543 103.91C254.096 102.517 254.369 101.029 254.346 99.5309C254.396 98.2498 254.002 96.9908 253.229 95.9684C252.829 95.4736 252.272 95.1298 251.651 94.9931C251.03 94.8565 250.381 94.9352 249.81 95.2164C248.822 95.7804 247.834 97.1262 246.984 96.4038C246.734 96.1309 246.581 95.7831 246.549 95.4143C246.266 93.2114 245.684 91.0575 244.82 89.0118C243.658 87.036 242.228 85.231 240.571 83.6483C236.72 79.398 233.625 74.518 231.42 69.2204C231.288 68.7435 230.995 68.3272 230.59 68.0428C230.212 67.8763 229.794 67.8214 229.385 67.8845C227.583 67.9901 225.776 67.957 223.98 67.7855C223.063 67.785 222.173 67.4786 221.45 66.9147C220.225 65.7371 220.778 63.6392 221.766 62.2637C224.009 59.107 227.754 57.4544 231.322 55.9602C230.403 55.3565 228.95 54.0305 228.031 53.4269C227.713 53.2607 227.457 52.9972 227.3 52.6748C227.102 52.0613 227.695 51.4675 228.288 51.1707C229.321 50.6462 230.492 50.456 231.638 50.6264C231.47 47.8952 228.545 45.3619 229.661 42.8682C230.422 41.2255 232.626 40.8 234.385 41.2354C236.144 41.6708 237.666 42.7494 239.375 43.3234C239.76 42.126 238.693 40.8792 238.891 39.6323C238.997 39.1856 239.227 38.7779 239.553 38.4559C239.88 38.1339 240.291 37.9105 240.739 37.8115C241.65 37.6318 242.592 37.6862 243.476 37.9698C245.546 38.5248 247.464 39.5395 249.089 40.9385C250.038 41.9435 251.111 42.8245 252.28 43.5609C254.593 44.7583 257.37 44.0953 259.968 44.0953C263.032 44.2187 266.047 44.9064 268.862 46.1239C270.73 46.8261 272.558 47.6322 274.336 48.5384C276.708 49.7206 278.923 51.1968 280.927 52.9321C285.987 57.3852 289.149 63.7283 290.542 70.3188C291.784 76.9639 291.821 83.7786 290.651 90.4367Z" fill="#474747"/>
<path d="M60.5186 58.7704L65.5582 53.4861L185.333 58.7704L213.179 157.569L208.14 162.853H83.0783L60.5186 58.7704Z" fill="#FE662E"/>
<path d="M60.5186 58.7704L65.5582 53.4861L185.333 58.7704L213.179 157.569L208.14 162.853H83.0783L60.5186 58.7704Z" fill="url(#paint1_linear_231_61269)"/>
<path d="M65.5576 53.4861H190.372L213.179 157.569H88.1173L65.5576 53.4861Z" fill="#FE662E"/>
<path d="M70.5977 57.0388H186.894L208.14 154.017H91.6158L70.5977 57.0388Z" fill="white"/>
<path d="M161.053 194.335C160.971 195.035 160.715 195.703 160.31 196.278C159.904 196.854 159.361 197.319 158.731 197.631C156.912 198.699 154.689 198.759 152.574 198.788C151.108 198.918 149.631 198.725 148.246 198.224C147.065 197.586 146.005 196.746 145.114 195.74C139.975 190.793 133.147 187.042 130.598 180.402C129.362 177.176 129.303 173.643 129.264 170.21C129.264 166.558 129.264 162.55 131.685 159.809C133.572 157.642 136.695 156.544 137.92 153.941C135.857 152.779 133.984 151.307 132.366 149.577C131.569 148.703 130.977 147.66 130.635 146.526C130.293 145.393 130.209 144.197 130.39 143.026C133.253 143.982 135.995 145.267 138.562 146.856C143.244 149.754 147.298 153.564 150.482 158.06C153.666 162.556 155.917 167.647 157.1 173.03C158.088 177.79 158.187 182.738 159.492 187.438C160.075 189.615 161.31 192.148 161.053 194.335Z" fill="#BB856E"/>
<path d="M161.37 193.965C160.9 194.175 160.479 194.482 160.135 194.866C158.801 196.845 155.51 196.34 153.831 194.609C152.151 192.877 151.498 190.433 150.352 188.305C147.487 182.912 141.281 178.855 141.301 172.749C141.301 168.029 145.253 163.843 144.898 159.202C144.7 156.748 143.366 154.749 141.933 152.888C140.602 150.921 139.579 148.762 138.899 146.486C143.582 149.384 147.635 153.194 150.819 157.69C154.004 162.186 156.254 167.277 157.437 172.66C158.425 177.42 158.524 182.368 159.829 187.068C160.392 189.245 161.627 191.778 161.37 193.965Z" fill="url(#paint2_linear_231_61269)"/>
<path d="M287.39 258.07C286.175 264.155 284.356 270.449 280.779 275.397C280.265 275.466 279.791 275.535 279.238 275.585C276.155 275.961 273.058 276.228 269.949 276.386C257.962 276.852 245.957 276.276 234.069 274.665C220.788 273.022 207.586 270.647 194.325 268.826C194.945 268.124 195.656 267.508 196.44 266.995C200.404 264.043 203.672 260.255 206.011 255.897C208.351 251.54 209.705 246.721 209.978 241.781C209.191 241.256 208.274 240.961 207.329 240.93C204.819 240.693 201.588 241.237 199.74 241.009C184.384 239.08 145.737 201.347 145.737 201.347L164.937 191.729L193.505 201.347C193.505 201.347 224.227 153.037 236.707 139.173C249.188 125.309 271.698 125.022 271.698 125.022C274.395 124.921 277.091 125.255 279.682 126.012C294.979 130.494 302.865 149.069 303.892 164.793C305.958 195.727 293.359 228.234 287.39 258.07Z" fill="white"/>
<path d="M290.651 90.4367C290.394 92.7246 289.763 94.9545 288.784 97.0372C288.22 98.4407 287.414 99.7338 286.402 100.857C284.426 102.618 284.366 105.597 283.151 107.922C282.321 109.408 281.169 110.689 279.781 111.673C277.004 113.726 273.764 115.063 270.348 115.565C266.932 116.067 263.446 115.719 260.196 114.553L259.208 114.176C258.783 113.509 258.45 112.787 258.22 112.029L262.172 111.891C262.096 110.503 261.537 109.187 260.591 108.17L269.593 107.992C270.823 108.138 272.067 107.872 273.13 107.237C274.193 106.602 275.017 105.632 275.473 104.479C276.837 102.361 278.25 100.045 278.022 97.5517C277.792 96.0846 277.278 94.6764 276.511 93.4054C274.534 89.5362 272.558 85.4889 272.005 81.2041C271.451 76.9192 272.726 72.0802 276.175 69.4084C276.902 68.9572 277.544 68.3811 278.072 67.7064C278.513 66.8939 278.667 65.9554 278.507 65.0444C278.052 60.908 274.841 57.6919 271.817 54.8222L265.127 48.4395C265.878 49.1618 269.297 49.2509 270.414 49.6071C272.294 50.2524 274.138 50.9989 275.937 51.8436C275.661 51.0222 274.949 49.8644 274.327 48.5384C276.699 49.7206 278.913 51.1968 280.918 52.9321C285.977 57.3852 289.139 63.7283 290.533 70.3188C291.778 76.9633 291.818 83.778 290.651 90.4367Z" fill="#322F2F"/>
<path d="M287.39 258.069C286.174 264.155 284.356 270.449 280.779 275.397C280.265 275.466 279.791 275.535 279.237 275.585C265.472 276.96 252.557 278.108 238.881 275.11C236.756 274.645 234.246 273.715 233.871 271.567C233.792 270.326 234.11 269.092 234.78 268.044C244.148 249.104 250.146 227.136 249.889 205.899C244.79 205.256 238.496 215.142 234.78 218.516L221.114 230.926C215.185 236.269 208.367 241.969 200.451 241.346C195.787 240.98 191.617 238.436 187.605 235.962L173.544 227.136C169.403 224.553 164.907 221.495 163.82 216.725C170.431 217.23 176.222 221.069 182.151 224.028C188.08 226.987 195.224 229.154 201.183 226.255C205.471 224.167 208.199 219.902 210.748 215.874C227.492 189.369 245.851 163.922 265.719 139.677C270.512 133.829 271.312 125.111 279.712 126.051C295.008 130.534 302.894 149.108 303.922 164.832C305.957 195.727 293.358 228.234 287.39 258.069Z" fill="url(#paint3_linear_231_61269)"/>
<path opacity="0.18" d="M99.2546 76.2165C100.295 74.878 101.6 73.7695 103.089 72.9608C104.79 71.9429 106.662 71.2422 108.613 70.8926C111.129 70.5689 113.686 70.8799 116.052 71.7976C118.418 72.7153 120.518 74.2104 122.16 76.1472C125.416 80.1093 127.104 85.1314 126.903 90.2585C127.568 90.0327 128.29 90.0455 128.947 90.2946C129.603 90.5438 130.152 91.0138 130.5 91.6241C131.15 92.8775 131.392 94.3031 131.192 95.7011C131.172 96.8728 130.83 98.0165 130.204 99.0062C129.88 99.4935 129.414 99.8684 128.869 100.079C128.324 100.29 127.727 100.327 127.16 100.184C127.498 101.625 127.506 103.123 127.185 104.568C126.863 106.012 126.22 107.365 125.303 108.526C124.532 109.515 123.534 110.396 123.326 111.613C123.129 113.137 124.314 114.523 125.737 115.186C127.179 115.706 128.651 116.138 130.145 116.482C133.377 117.724 136.034 120.122 137.605 123.211C139.151 126.278 140.309 129.526 141.054 132.879C141.232 133.552 141.37 134.373 140.856 134.858C140.487 135.125 140.034 135.248 139.581 135.205L100.44 136.422C99.9957 131.88 99.7388 126.744 102.792 123.35C105.154 120.737 108.869 119.936 112.328 119.263C112.286 117.26 111.817 115.29 110.954 113.484C110.73 112.92 110.358 112.428 109.877 112.059C109.354 111.788 108.79 111.604 108.207 111.514C104.363 110.525 102.278 106.379 101.29 102.529C101.164 101.832 100.917 101.162 100.559 100.55C99.9929 99.8542 99.2766 99.2959 98.4641 98.9172C93.6913 96.1761 92.6932 93.1183 96.132 89.0215C99.225 85.4887 96.2506 80.3628 99.2546 76.2165Z" fill="#7474B4"/>
<path opacity="0.32" d="M27.7217 22.2158L44.1746 103.786H93.3158L79.3926 22.2158H27.7217Z" fill="#FE662E"/>
<path opacity="0.32" d="M42.7715 133.334L59.2145 214.914H108.356L94.4325 133.334H42.7715Z" fill="#FE662E"/>
<path opacity="0.32" d="M143.01 22.2158L159.453 103.786H208.594L194.671 22.2158H143.01Z" fill="#FE662E"/>
<path d="M148.218 13.844L164.661 95.4141H213.802L199.879 13.844H148.218Z" fill="url(#paint4_linear_231_61269)"/>
<path d="M36.5947 24.4424L51.1207 96.4928H94.5207L82.228 24.4424H36.5947Z" fill="url(#paint5_linear_231_61269)"/>
<path d="M46.4473 129.752L62.8903 211.322H112.031L98.1083 129.752H46.4473Z" fill="url(#paint6_linear_231_61269)"/>
<defs>
<linearGradient id="paint0_linear_231_61269" x1="72.4164" y1="105.3" x2="195.852" y2="376.309" gradientUnits="userSpaceOnUse">
<stop offset="0.01"/>
<stop offset="0.13" stop-opacity="0.69"/>
<stop offset="0.25" stop-opacity="0.32"/>
<stop offset="1" stop-opacity="0"/>
</linearGradient>
<linearGradient id="paint1_linear_231_61269" x1="158.811" y1="74.8608" x2="43.838" y2="248.746" gradientUnits="userSpaceOnUse">
<stop offset="0.01"/>
<stop offset="0.13" stop-opacity="0.69"/>
<stop offset="0.25" stop-opacity="0.32"/>
<stop offset="1" stop-opacity="0"/>
</linearGradient>
<linearGradient id="paint2_linear_231_61269" x1="178.989" y1="153.908" x2="105.537" y2="195.963" gradientUnits="userSpaceOnUse">
<stop offset="0.01"/>
<stop offset="0.13" stop-opacity="0.69"/>
<stop offset="0.25" stop-opacity="0.32"/>
<stop offset="1" stop-opacity="0"/>
</linearGradient>
<linearGradient id="paint3_linear_231_61269" x1="573.274" y1="168.395" x2="-128.758" y2="245.305" gradientUnits="userSpaceOnUse">
<stop offset="0.01"/>
<stop offset="0.13" stop-opacity="0.69"/>
<stop offset="0.25" stop-opacity="0.32"/>
<stop offset="1" stop-opacity="0"/>
</linearGradient>
<linearGradient id="paint4_linear_231_61269" x1="136.31" y1="20.7116" x2="592.833" y2="356.623" gradientUnits="userSpaceOnUse">
<stop offset="0.01" stop-color="white"/>
<stop offset="0.13" stop-color="white" stop-opacity="0.69"/>
<stop offset="0.15" stop-color="white" stop-opacity="0.61"/>
<stop offset="0.2" stop-color="white" stop-opacity="0.47"/>
<stop offset="0.25" stop-color="white" stop-opacity="0.34"/>
<stop offset="0.3" stop-color="white" stop-opacity="0.23"/>
<stop offset="0.36" stop-color="white" stop-opacity="0.15"/>
<stop offset="0.44" stop-color="white" stop-opacity="0.08"/>
<stop offset="0.52" stop-color="white" stop-opacity="0.03"/>
<stop offset="0.65" stop-color="white" stop-opacity="0.01"/>
<stop offset="1" stop-color="white" stop-opacity="0"/>
</linearGradient>
<linearGradient id="paint5_linear_231_61269" x1="26.0708" y1="30.5084" x2="429.337" y2="327.236" gradientUnits="userSpaceOnUse">
<stop offset="0.01" stop-color="white"/>
<stop offset="0.13" stop-color="white" stop-opacity="0.69"/>
<stop offset="0.15" stop-color="white" stop-opacity="0.61"/>
<stop offset="0.2" stop-color="white" stop-opacity="0.47"/>
<stop offset="0.25" stop-color="white" stop-opacity="0.34"/>
<stop offset="0.3" stop-color="white" stop-opacity="0.23"/>
<stop offset="0.36" stop-color="white" stop-opacity="0.15"/>
<stop offset="0.44" stop-color="white" stop-opacity="0.08"/>
<stop offset="0.52" stop-color="white" stop-opacity="0.03"/>
<stop offset="0.65" stop-color="white" stop-opacity="0.01"/>
<stop offset="1" stop-color="white" stop-opacity="0"/>
</linearGradient>
<linearGradient id="paint6_linear_231_61269" x1="34.5399" y1="136.62" x2="491.062" y2="472.532" gradientUnits="userSpaceOnUse">
<stop offset="0.01" stop-color="white"/>
<stop offset="0.13" stop-color="white" stop-opacity="0.69"/>
<stop offset="0.15" stop-color="white" stop-opacity="0.61"/>
<stop offset="0.2" stop-color="white" stop-opacity="0.47"/>
<stop offset="0.25" stop-color="white" stop-opacity="0.34"/>
<stop offset="0.3" stop-color="white" stop-opacity="0.23"/>
<stop offset="0.36" stop-color="white" stop-opacity="0.15"/>
<stop offset="0.44" stop-color="white" stop-opacity="0.08"/>
<stop offset="0.52" stop-color="white" stop-opacity="0.03"/>
<stop offset="0.65" stop-color="white" stop-opacity="0.01"/>
<stop offset="1" stop-color="white" stop-opacity="0"/>
</linearGradient>
</defs>
</svg>