<svg xmlns="http://www.w3.org/2000/svg" width="496" height="374" viewBox="0 0 496 374" fill="none">
<g clip-path="url(#clip0_208_61465)">
<path opacity="0.18" d="M202.398 70.3642C196.522 84.5123 195.28 100.574 187.165 113.562C174.855 133.269 150.265 140.885 132.298 155.598C114.437 170.236 103.092 193.318 104.873 216.35C106.654 239.383 122.633 261.317 144.765 267.892C152.435 270.176 160.757 270.747 167.661 274.794C183.057 283.816 185.384 305.995 199.168 317.326C211.498 327.459 229.622 326.204 244.874 321.536C260.126 316.868 274.782 309.289 290.704 308.329C300.199 307.758 309.75 309.584 319.208 308.599C331.261 307.344 342.336 301.609 352.935 295.724C371.366 285.485 391.19 271.795 394.256 250.927C397.768 226.885 377.123 205.082 377.449 180.782C377.6 169.489 382.341 158.616 382.78 147.304C383.407 131.7 375.053 116.059 361.771 107.865C350.903 101.151 337.658 99.4196 326.3 93.5784C310.904 85.6605 300.312 70.9916 287.249 59.648C263.612 39.1254 216.095 37.3624 202.398 70.3642Z" fill="#B93200"/>
<path d="M302.632 142.266C304.614 139.436 308.785 138.965 312.039 140.139C315.294 141.312 317.903 143.734 320.606 145.886C323.309 148.038 326.42 150.033 329.875 150.089C331.255 150.089 332.653 149.813 334.014 150.052C335.266 150.316 336.388 151.006 337.188 152.005C337.989 153.003 338.418 154.249 338.404 155.529C328.481 154.96 318.538 156.236 309.079 159.294C304.42 160.799 299.045 162.663 294.925 159.99C293.389 158.986 292.203 157.418 290.485 156.784C286.942 155.479 282.959 158.666 279.366 157.468C277.817 156.941 276.663 155.673 275.296 154.764C270.774 151.758 264.497 153.032 259.718 150.453C259.312 150.279 258.948 150.022 258.649 149.698C258.349 149.373 258.122 148.989 257.981 148.571C257.73 147.379 258.784 146.237 259.956 145.892C261.129 145.547 262.377 145.748 263.594 145.836C266.717 146.044 269.839 145.42 272.643 144.029C273.822 143.439 275.045 142.692 276.349 142.88C278.939 143.251 280.846 147.097 283.173 145.917C281.473 146.777 282.107 141.055 282.408 140.503C283.386 138.74 286.572 137.497 288.409 137.027C293.614 135.678 299.679 137.692 302.632 142.266Z" fill="#FE5517"/>
<path d="M302.632 142.266C304.614 139.436 308.785 138.965 312.039 140.139C315.294 141.312 317.903 143.734 320.606 145.886C323.309 148.038 326.42 150.033 329.875 150.089C331.255 150.089 332.653 149.813 334.014 150.052C335.266 150.316 336.388 151.006 337.188 152.005C337.989 153.003 338.418 154.249 338.404 155.529C328.481 154.96 318.538 156.236 309.079 159.294C304.42 160.799 299.045 162.663 294.925 159.99C293.389 158.986 292.203 157.418 290.485 156.784C286.942 155.479 282.959 158.666 279.366 157.468C277.817 156.941 276.663 155.673 275.296 154.764C270.774 151.758 264.497 153.032 259.718 150.453C259.312 150.279 258.948 150.022 258.649 149.698C258.349 149.373 258.122 148.989 257.981 148.571C257.73 147.379 258.784 146.237 259.956 145.892C261.129 145.547 262.377 145.748 263.594 145.836C266.717 146.044 269.839 145.42 272.643 144.029C273.822 143.439 275.045 142.692 276.349 142.88C278.939 143.251 280.846 147.097 283.173 145.917C281.473 146.777 282.107 141.055 282.408 140.503C283.386 138.74 286.572 137.497 288.409 137.027C293.614 135.678 299.679 137.692 302.632 142.266Z" fill="url(#paint0_linear_208_61465)"/>
<path d="M266.504 0L199.319 71.6065H230.293V142.059H298.5V71.0293H327.887L266.504 0Z" fill="#36357E"/>
<path d="M118.451 136.933L159.91 91.4076L202.737 136.042H176.435V193.519H139.923V136.933H118.451Z" fill="#36357E"/>
<path d="M325.981 113.787L367.44 68.2624L410.267 112.896H383.965V170.374H347.453V113.787H325.981Z" fill="#36357E"/>
<path d="M256.607 199.203C256.607 199.203 256.658 255.363 254.162 260.62C252.199 264.755 235.028 270.841 227.784 273.257C225.821 273.915 224.58 274.298 224.58 274.298L225.972 247.495C225.402 251.123 224.508 254.693 223.3 258.161C221.613 262.747 219.074 266.826 215.511 265.69C208.03 263.312 205.923 261.925 205.923 261.925L202.737 250.632C202.737 250.632 214.715 245.224 214.941 238.655C215.167 232.086 218.998 212.423 229.402 208.081L231.547 207.184L239.807 203.739C239.807 203.739 246.705 182.451 245.212 164.583C243.72 146.714 245.212 144.035 245.212 144.035H255.723C255.723 144.035 256.425 162.336 256.607 167.444C256.789 172.551 256.607 199.203 256.607 199.203Z" fill="#FE662E"/>
<path d="M248.837 189.422C247.677 194.071 245.846 198.519 244.021 202.949C243.08 204.831 242.516 208.947 240.597 210.164C238.552 211.463 234.783 208.702 232.858 207.836C232.425 207.636 231.98 207.428 231.547 207.209L239.807 203.764C239.807 203.764 246.705 182.476 245.212 164.608C243.72 146.739 245.212 144.06 245.212 144.06H246.279C246.449 144.143 246.607 144.249 246.749 144.374C247.784 145.258 247.934 146.777 248.003 148.138C248.241 152.053 248.474 156.018 247.715 159.864C247.247 161.663 246.876 163.485 246.605 165.323C246.442 167.174 246.768 169.169 247.997 170.562C248.574 171.189 249.339 171.716 249.753 172.482C250.073 173.16 250.234 173.902 250.223 174.653C250.5 179.617 250.033 184.595 248.837 189.422Z" fill="#FE4400"/>
<path d="M231.027 267.597C230.509 268.432 230.089 269.322 229.772 270.251C229.687 270.683 229.555 271.104 229.377 271.506C229.19 271.826 228.956 272.116 228.681 272.366L227.778 273.282C225.815 273.94 224.574 274.323 224.574 274.323L225.966 247.52C225.396 251.148 224.502 254.718 223.294 258.186C223.765 253.518 225.351 246.748 225.414 244.007C225.521 240.074 226.203 236.178 227.44 232.443C228.449 233.152 228.782 234.47 228.97 235.681C229.71 240.386 229.459 245.268 230.851 249.823C231.76 252.803 233.36 255.626 233.567 258.744C233.774 261.863 232.532 264.868 231.027 267.597Z" fill="#FE5517"/>
<path d="M230.086 252.64L224.987 257.54C224.724 257.794 224.385 257.954 224.022 257.998L193.336 261.762C192.943 261.814 192.545 261.724 192.212 261.509C191.879 261.294 191.633 260.968 191.517 260.589L184.475 237.657C184.404 237.42 184.385 237.17 184.42 236.925C184.456 236.679 184.545 236.445 184.68 236.237C184.816 236.03 184.995 235.855 185.206 235.724C185.416 235.593 185.652 235.51 185.898 235.48L214.37 232.236C214.761 232.191 215.155 232.285 215.483 232.5C215.812 232.716 216.055 233.04 216.17 233.416L220.817 248.543C221.03 249.252 221.206 249.735 221.206 249.735H228.932C229.267 249.738 229.594 249.841 229.871 250.03C230.147 250.22 230.361 250.488 230.485 250.799C230.609 251.111 230.637 251.453 230.566 251.78C230.495 252.108 230.328 252.407 230.086 252.64Z" fill="#6263AB"/>
<path d="M244.836 139.122C244.797 138.92 244.807 138.712 244.865 138.514C244.923 138.317 245.027 138.136 245.169 137.987C245.331 137.885 245.522 137.837 245.714 137.851C245.905 137.865 246.088 137.938 246.235 138.062C246.531 138.309 246.767 138.62 246.924 138.972L247.746 140.459C247.937 140.873 248.218 141.239 248.568 141.531C249.164 141.858 249.851 141.981 250.524 141.883L253.873 141.739C254.017 141.722 254.162 141.746 254.293 141.808C254.382 141.883 254.45 141.981 254.49 142.091C254.529 142.201 254.539 142.32 254.519 142.435C254.507 142.98 254.374 143.516 254.13 144.003L250.367 144.141C249.333 144.179 247.715 144.556 246.73 144.242C245.238 143.746 244.905 140.452 244.836 139.122Z" fill="url(#paint1_linear_208_61465)"/>
<path d="M255.372 323.023C255.021 325.137 251.609 334.906 251.609 334.906L249.038 333.237L245.67 331.054C245.67 331.054 251.797 303.008 251.252 300.141C250.706 297.274 246.442 289.864 246.442 289.864L243.519 357.355L235.994 360.26C235.994 360.26 223.877 287.442 224.561 274.304L254.143 260.627C254.143 260.627 262.923 286.482 263.976 291.947C265.03 297.412 255.729 320.908 255.372 323.023Z" fill="#36357E"/>
<path d="M244.328 338.558L257.498 346.877C257.498 346.877 259.047 344.33 256.601 341.117C254.155 337.905 251.584 334.906 251.584 334.906L245.633 331.054L244.328 338.558Z" fill="#3F3D56"/>
<path d="M236.012 360.26C236.012 360.26 231.792 368.184 233.372 372.406C234.953 376.629 238.521 371.465 240.59 368.36C242.346 365.712 244.316 360.26 244.316 360.26L243.519 357.355L236.012 360.26Z" fill="#3F3D56"/>
<path d="M257.968 296.352L249.038 333.237L245.67 331.054C245.67 331.054 251.797 303.008 251.252 300.141C250.706 297.274 246.442 289.864 246.442 289.864C246.442 289.864 249.916 283.703 251.151 285.02C252.387 286.338 257.968 296.352 257.968 296.352Z" fill="url(#paint2_linear_208_61465)"/>
<path d="M229.653 271.952L237.568 359.657L236.012 360.285C236.012 360.285 223.915 287.135 224.58 274.329L229.653 271.952Z" fill="url(#paint3_linear_208_61465)"/>
<path d="M228.92 249.71L222.981 255.193L220.817 248.543C221.03 249.252 221.206 249.735 221.206 249.735L228.92 249.71Z" fill="url(#paint4_linear_208_61465)"/>
<path d="M184.475 237.682L212.765 234.589C213.244 234.537 213.727 234.648 214.135 234.906C214.543 235.163 214.851 235.552 215.01 236.007L222.792 258.149L193.317 261.787L184.475 237.682Z" fill="#7474B4"/>
<path d="M238.847 198.206C238.12 199.824 239.807 203.764 239.807 203.764C239.807 203.764 241.631 207.259 241.017 210.785C241.017 210.955 240.948 211.13 240.91 211.3C239.995 214.995 228.267 211.086 228.625 205.923C228.982 200.759 223.275 187.596 223.275 187.596C226.624 172.808 237.599 177.495 238.577 178.285C239.556 179.076 243.206 190.764 242.208 193.418C241.925 194.187 241.516 194.904 240.998 195.539C240.183 196.568 239.324 197.145 238.847 198.206Z" fill="url(#paint5_linear_208_61465)"/>
<path d="M238.577 178.298C238.577 178.298 240.22 174.207 238.577 172.751C236.934 171.296 234.187 170.907 231.083 170.775C227.979 170.643 227.007 170.11 224.58 172.751C222.153 175.393 221.338 179.528 219.832 180.236C218.327 180.945 217.01 183.33 217.801 185.682C218.591 188.035 220.572 191.781 220.968 191.906C221.363 192.032 224.072 194.937 224.204 196.656C224.335 198.375 227.828 199.203 227.828 199.203L227.634 192.427C227.634 192.427 227.239 194.209 225.589 192.691C223.94 191.172 226.38 189.39 226.574 189.459C226.768 189.528 224.693 185.984 225.351 184.252C226.01 182.52 229.791 173.166 238.577 178.298Z" fill="#3F3D56"/>
<path d="M241.017 210.81C240.912 211.074 240.754 211.313 240.553 211.513C240.239 211.776 239.861 211.95 239.457 212.017C239.053 212.083 238.639 212.039 238.258 211.889C237.502 211.573 236.84 211.07 236.332 210.428C235.183 209.097 234.351 207.521 233.9 205.821C233.449 204.121 233.391 202.341 233.73 200.615C233.836 199.986 234.067 199.385 234.407 198.846C235.235 197.641 236.784 197.208 238.138 196.65C239.493 196.091 240.484 195.181 240.998 195.564C240.183 196.581 239.324 197.158 238.847 198.218C238.12 199.837 239.807 203.777 239.807 203.777C239.807 203.777 241.631 207.259 241.017 210.81Z" fill="url(#paint6_linear_208_61465)"/>
<path d="M302.77 180.381C301.516 186.028 304.928 192.302 310.334 194.278C314.88 195.941 319.91 194.73 324.758 194.736C333.236 194.736 341.295 198.576 349.755 199.128C355.356 199.486 360.956 198.406 366.023 195.991C368.952 194.592 371.767 192.735 374.985 192.327C377.681 191.982 380.497 192.697 383.106 191.919C387.54 190.601 389.753 184.961 388.154 180.626C386.555 176.29 381.983 173.511 377.374 173.097C372.896 172.72 368.268 174.251 363.966 172.959C359.156 171.515 355.857 166.86 351.078 165.304C344.08 163.033 336.999 168.04 331.336 172.745C330.731 171.047 329.631 169.569 328.177 168.502C326.724 167.435 324.985 166.828 323.183 166.76C319.483 166.684 315.827 169.759 312.466 171.152C307.988 173.071 303.962 175.129 302.77 180.381Z" fill="#FE5517"/>
<path d="M302.77 180.381C301.516 186.028 304.928 192.302 310.334 194.278C314.88 195.941 319.91 194.73 324.758 194.736C333.236 194.736 341.295 198.576 349.755 199.128C355.356 199.486 360.956 198.406 366.023 195.991C368.952 194.592 371.767 192.735 374.985 192.327C377.681 191.982 380.497 192.697 383.106 191.919C387.54 190.601 389.753 184.961 388.154 180.626C386.555 176.29 381.983 173.511 377.374 173.097C372.896 172.72 368.268 174.251 363.966 172.959C359.156 171.515 355.857 166.86 351.078 165.304C344.08 163.033 336.999 168.04 331.336 172.745C330.731 171.047 329.631 169.569 328.177 168.502C326.724 167.435 324.985 166.828 323.183 166.76C319.483 166.684 315.827 169.759 312.466 171.152C307.988 173.071 303.962 175.129 302.77 180.381Z" fill="url(#paint7_linear_208_61465)"/>
<path d="M85.9839 189.679C84.7297 195.326 88.1413 201.6 93.5534 203.576C98.1001 205.239 103.123 204.022 107.977 204.034C116.45 204.034 124.509 207.868 132.969 208.426C138.572 208.785 144.174 207.705 149.243 205.289C152.171 203.896 154.981 202.033 158.204 201.625C160.901 201.286 163.717 202.001 166.326 201.223C170.753 199.906 172.973 194.259 171.374 189.93C169.775 185.601 165.197 182.809 160.594 182.401C156.116 182.018 151.488 183.549 147.186 182.263C142.369 180.82 139.071 176.158 134.298 174.609C127.299 172.331 120.219 177.344 114.556 182.043C113.95 180.346 112.849 178.869 111.396 177.804C109.943 176.738 108.204 176.132 106.403 176.064C102.703 175.989 99.0471 179.057 95.6856 180.456C91.2017 182.37 87.188 184.459 85.9839 189.679Z" fill="#FE5517"/>
<path d="M85.9839 189.679C84.7297 195.326 88.1413 201.6 93.5534 203.576C98.1001 205.239 103.123 204.022 107.977 204.034C116.45 204.034 124.509 207.868 132.969 208.426C138.572 208.785 144.174 207.705 149.243 205.289C152.171 203.896 154.981 202.033 158.204 201.625C160.901 201.286 163.717 202.001 166.326 201.223C170.753 199.906 172.973 194.259 171.374 189.93C169.775 185.601 165.197 182.809 160.594 182.401C156.116 182.018 151.488 183.549 147.186 182.263C142.369 180.82 139.071 176.158 134.298 174.609C127.299 172.331 120.219 177.344 114.556 182.043C113.95 180.346 112.849 178.869 111.396 177.804C109.943 176.738 108.204 176.132 106.403 176.064C102.703 175.989 99.0471 179.057 95.6856 180.456C91.2017 182.37 87.188 184.459 85.9839 189.679Z" fill="url(#paint8_linear_208_61465)"/>
<path d="M203.646 261.725C204.284 261.854 204.939 261.878 205.584 261.794L209.077 261.549C209.528 261.533 209.975 261.459 210.407 261.329C210.79 261.188 211.134 260.956 211.407 260.652C211.68 260.348 211.875 259.982 211.974 259.585C212.009 259.469 212.009 259.344 211.974 259.228C211.855 258.87 211.347 258.895 211.015 259.108C210.683 259.322 210.457 259.654 210.087 259.736C209.888 259.753 209.687 259.73 209.497 259.667L207.522 259.165C207.411 259.128 207.293 259.115 207.177 259.127C206.744 259.196 206.707 259.799 206.776 260.231C206.642 260.054 206.471 259.909 206.275 259.806C206.079 259.703 205.862 259.645 205.64 259.635C205.418 259.637 205.205 259.726 205.048 259.884C204.891 260.041 204.802 260.254 204.8 260.476L204.022 259.849C203.916 259.767 203.772 259.679 203.652 259.748C203.595 259.795 203.556 259.859 203.54 259.93L203.276 260.602C203.345 260.426 202.285 259.974 202.216 260.602C202.179 261.141 203.289 261.631 203.646 261.725Z" fill="url(#paint9_linear_208_61465)"/>
</g>
<defs>
<linearGradient id="paint0_linear_208_61465" x1="302.77" y1="134.467" x2="294.78" y2="164.644" gradientUnits="userSpaceOnUse">
<stop stop-color="white" stop-opacity="0"/>
<stop offset="0.06" stop-color="white" stop-opacity="0.13"/>
<stop offset="0.16" stop-color="white" stop-opacity="0.33"/>
<stop offset="0.26" stop-color="white" stop-opacity="0.51"/>
<stop offset="0.37" stop-color="white" stop-opacity="0.66"/>
<stop offset="0.48" stop-color="white" stop-opacity="0.79"/>
<stop offset="0.59" stop-color="white" stop-opacity="0.88"/>
<stop offset="0.71" stop-color="white" stop-opacity="0.95"/>
<stop offset="0.84" stop-color="white" stop-opacity="0.99"/>
<stop offset="1" stop-color="white"/>
</linearGradient>
<linearGradient id="paint1_linear_208_61465" x1="244.83" y1="141.099" x2="254.519" y2="141.099" gradientUnits="userSpaceOnUse">
<stop stop-color="#ECC4D7"/>
<stop offset="0.42" stop-color="#EFD4D1"/>
<stop offset="1" stop-color="#F2EAC9"/>
</linearGradient>
<linearGradient id="paint2_linear_208_61465" x1="272.568" y1="298.585" x2="152.008" y2="353.744" gradientUnits="userSpaceOnUse">
<stop stop-opacity="0.07"/>
<stop offset="0.08" stop-opacity="0.25"/>
<stop offset="1"/>
</linearGradient>
<linearGradient id="paint3_linear_208_61465" x1="216.208" y1="318.512" x2="337.81" y2="300.947" gradientUnits="userSpaceOnUse">
<stop stop-opacity="0.07"/>
<stop offset="0.08" stop-opacity="0.25"/>
<stop offset="1"/>
</linearGradient>
<linearGradient id="paint4_linear_208_61465" x1="227.891" y1="246.698" x2="198.317" y2="272.215" gradientUnits="userSpaceOnUse">
<stop stop-opacity="0.07"/>
<stop offset="0.08" stop-opacity="0.25"/>
<stop offset="1"/>
</linearGradient>
<linearGradient id="paint5_linear_208_61465" x1="223.275" y1="194.868" x2="242.378" y2="194.868" gradientUnits="userSpaceOnUse">
<stop stop-color="#ECC4D7"/>
<stop offset="0.42" stop-color="#EFD4D1"/>
<stop offset="1" stop-color="#F2EAC9"/>
</linearGradient>
<linearGradient id="paint6_linear_208_61465" x1="232.877" y1="194.127" x2="261.435" y2="238.311" gradientUnits="userSpaceOnUse">
<stop stop-color="#ECC4D7"/>
<stop offset="0.42" stop-color="#EFD4D1"/>
<stop offset="1" stop-color="#F2EAC9"/>
</linearGradient>
<linearGradient id="paint7_linear_208_61465" x1="349.341" y1="163.165" x2="339.87" y2="213.463" gradientUnits="userSpaceOnUse">
<stop offset="0.02" stop-color="white" stop-opacity="0"/>
<stop offset="0.06" stop-color="white" stop-opacity="0.13"/>
<stop offset="0.13" stop-color="white" stop-opacity="0.33"/>
<stop offset="0.2" stop-color="white" stop-opacity="0.51"/>
<stop offset="0.27" stop-color="white" stop-opacity="0.66"/>
<stop offset="0.35" stop-color="white" stop-opacity="0.79"/>
<stop offset="0.43" stop-color="white" stop-opacity="0.88"/>
<stop offset="0.51" stop-color="white" stop-opacity="0.95"/>
<stop offset="0.6" stop-color="white" stop-opacity="0.99"/>
<stop offset="0.71" stop-color="white"/>
</linearGradient>
<linearGradient id="paint8_linear_208_61465" x1="128.528" y1="170.53" x2="129.144" y2="217.16" gradientUnits="userSpaceOnUse">
<stop stop-color="white" stop-opacity="0"/>
<stop offset="0.06" stop-color="white" stop-opacity="0.13"/>
<stop offset="0.16" stop-color="white" stop-opacity="0.33"/>
<stop offset="0.26" stop-color="white" stop-opacity="0.51"/>
<stop offset="0.37" stop-color="white" stop-opacity="0.66"/>
<stop offset="0.48" stop-color="white" stop-opacity="0.79"/>
<stop offset="0.59" stop-color="white" stop-opacity="0.88"/>
<stop offset="0.71" stop-color="white" stop-opacity="0.95"/>
<stop offset="0.84" stop-color="white" stop-opacity="0.99"/>
<stop offset="1" stop-color="white"/>
</linearGradient>
<linearGradient id="paint9_linear_208_61465" x1="202.229" y1="260.395" x2="212.006" y2="260.395" gradientUnits="userSpaceOnUse">
<stop stop-color="#ECC4D7"/>
<stop offset="0.42" stop-color="#EFD4D1"/>
<stop offset="1" stop-color="#F2EAC9"/>
</linearGradient>
<clipPath id="clip0_208_61465">
<rect width="496" height="374" fill="white"/>
</clipPath>
</defs>
</svg>