<svg xmlns="http://www.w3.org/2000/svg" width="421" height="340" viewBox="0 0 421 340" fill="none">
<path opacity="0.18" d="M420.628 266.259C419.477 277.43 416.005 288.238 410.434 297.991C404.864 307.743 397.317 316.224 388.279 322.892C386.625 324.105 384.924 325.251 383.175 326.33C365.701 337.044 345.261 340.387 324.538 339.95C313.011 339.61 301.526 338.401 290.181 336.335L283.493 335.154C281.26 334.764 279.016 334.292 276.783 333.843C263.349 331.173 249.927 328.196 236.459 326.117C227.625 324.698 218.711 323.838 209.769 323.542H209.568C204.949 323.412 200.317 323.542 195.686 323.825C187.981 324.44 180.319 325.513 172.741 327.038C169.197 327.688 165.747 328.409 162.262 329.117C158.776 329.826 155.598 330.488 152.254 331.138C145.91 332.319 139.813 333.441 133.906 334.292C126.562 335.388 119.162 336.066 111.741 336.324C107.531 336.469 103.315 336.402 99.1114 336.123C90.8939 335.616 82.7625 334.162 74.8792 331.787C61.4222 330.275 34.9688 317.245 27.4782 305.207C19.5032 292.354 15.4862 277.611 12.6742 262.821C12.1426 259.986 11.6345 257.151 11.1738 254.327C10.9611 253.028 10.7484 251.728 10.5476 250.441C7.5348 231.929 6.19972 217.706 12.2607 199.384C22.9649 166.743 48.1187 138.639 80.2668 126.035C98.7097 118.793 119.256 116.123 135.466 104.653C162.309 85.6213 169.398 47.7478 194.008 25.7514C212.215 9.47263 237.569 4.0385 261.884 1.5577C282.241 -0.533256 302.976 -0.97035 323.049 3.10525C346.466 7.83057 373.286 19.8802 385.467 41.404C398.522 64.4636 402.008 92.0359 399.822 118.12C398.345 135.745 394.222 154.316 398.168 171.894C401.393 186.2 409.404 199.065 413.303 213.465C417.97 230.712 422.317 248.48 420.628 266.259Z" fill="#B93200"/>
<path d="M381.568 262.821V322.904C379.914 324.116 378.212 325.262 376.464 326.341C360.88 335.898 342.933 339.584 324.538 339.962C313.011 339.622 301.526 338.413 290.18 336.347L283.493 335.166C281.26 334.776 279.015 334.304 276.782 333.855V262.821H381.568Z" fill="#FE662E"/>
<path d="M381.568 262.821V322.904C379.914 324.116 378.212 325.262 376.464 326.341C360.88 335.898 342.933 339.584 324.538 339.962C313.011 339.622 301.526 338.413 290.18 336.347L283.493 335.166C281.26 334.776 279.015 334.304 276.782 333.855V262.821H381.568Z" fill="url(#paint0_linear_251_61242)"/>
<path d="M332.064 254.315H278.401L268.642 212.768H322.305L332.064 254.315Z" fill="#FE662E"/>
<path d="M329.181 254.315H275.518L265.759 212.768H319.422L329.181 254.315Z" fill="#FE662E"/>
<path d="M329.181 254.315H275.518L265.759 212.768H319.422L329.181 254.315Z" fill="url(#paint1_linear_251_61242)"/>
<path d="M375.578 105.113H219.351C210.131 105.113 202.656 112.587 202.656 121.806V209.165C202.656 218.384 210.131 225.857 219.351 225.857H375.578C384.798 225.857 392.272 218.384 392.272 209.165V121.806C392.272 112.587 384.798 105.113 375.578 105.113Z" fill="#FE662E"/>
<path d="M371.596 105.113H215.369C206.149 105.113 198.675 112.587 198.675 121.806V209.165C198.675 218.384 206.149 225.857 215.369 225.857H371.596C380.816 225.857 388.291 218.384 388.291 209.165V121.806C388.291 112.587 380.816 105.113 371.596 105.113Z" fill="#4C506D"/>
<path d="M388.279 201.9V209.153C388.279 213.58 386.52 217.826 383.389 220.956C380.258 224.087 376.012 225.845 371.584 225.845H215.357C210.929 225.845 206.683 224.087 203.552 220.956C200.421 217.826 198.663 213.58 198.663 209.153V201.9H388.279Z" fill="url(#paint2_linear_251_61242)"/>
<path d="M212.226 310.748C212.32 315.123 211.482 319.468 209.769 323.494H209.568C204.948 323.364 200.317 323.494 195.686 323.778C187.98 324.393 180.319 325.466 172.741 326.991C169.197 327.641 165.747 328.361 162.261 329.07C158.776 329.779 155.598 330.441 152.254 331.09C145.91 332.272 139.813 333.394 133.906 334.244C126.228 330.999 119.368 326.089 113.821 319.868C113.218 319.194 112.639 318.509 112.072 317.812C111.351 316.902 110.666 315.957 110.028 314.965C108.102 312.198 106.852 309.018 106.377 305.68C106.223 304.326 106.271 302.956 106.519 301.616C107.405 296.973 110.796 293.276 114.624 290.429C115.038 290.122 115.451 289.815 115.876 289.531C124.309 283.684 134.415 280.74 144.669 281.144C145.52 281.144 146.382 281.214 147.233 281.273C152.728 281.703 158.17 282.644 163.49 284.085C171.902 286.235 180.303 289.247 188.608 291.905C194.758 293.547 200.642 296.057 206.083 299.36C207.642 300.364 209 301.65 210.088 303.152C211.505 305.43 212.247 308.064 212.226 310.748Z" fill="#3E3E54"/>
<path d="M209.568 323.494C204.949 323.364 200.317 323.494 195.686 323.778C187.981 324.393 180.319 325.466 172.742 326.991C169.197 327.641 165.747 328.361 162.262 329.07C158.776 329.779 155.598 330.441 152.255 331.09C134.367 334.575 117.826 338.58 99.4188 335.154C98.3246 335.026 97.272 334.659 96.3352 334.079C95.2263 333.112 94.4459 331.824 94.1022 330.393C91.5356 322.306 92.2265 313.537 96.028 305.952C100.518 297.103 107.642 293.595 115.971 289.413C125.577 284.546 133.694 280.872 144.764 281.144C145.615 281.144 146.477 281.214 147.328 281.274C152.79 281.719 158.199 282.66 163.491 284.085C171.761 286.235 180.114 289.212 188.302 291.846C194.453 293.484 200.337 295.994 205.776 299.301C207.341 300.297 208.704 301.579 209.793 303.081C211.187 305.347 211.919 307.957 211.908 310.618C212.062 315.028 211.264 319.42 209.568 323.494Z" fill="#3E3E54"/>
<path d="M236.458 326.07C227.625 324.651 218.71 323.791 209.769 323.494H209.568C204.948 323.364 200.317 323.494 195.685 323.778C187.98 324.393 180.319 325.466 172.741 326.991C169.197 327.641 165.747 328.361 162.261 329.07C152.278 327.286 142.176 325.845 132.299 323.66C127.383 322.883 122.702 321.023 118.594 318.214C117.553 317.398 116.62 316.453 115.817 315.402C115.454 314.932 115.123 314.439 114.825 313.926C113.558 311.868 112.949 309.474 113.076 307.062C113.115 306.422 113.226 305.788 113.407 305.172C114.763 301.628 117.306 298.664 120.602 296.784C125.604 293.18 131.494 291.007 137.639 290.5C141.763 290.275 145.91 291.102 149.974 290.878C153.636 290.677 156.165 288.645 159.426 288.161C161.906 287.867 164.42 288.088 166.81 288.81C172.398 290.346 178.164 293.701 182.547 295.898L212.084 310.641L212.309 310.748L218.216 313.701C223.758 316.255 229.01 319.396 233.883 323.069C235.089 323.709 236.009 324.78 236.458 326.07Z" fill="#3E3E54"/>
<path d="M355.504 254.316V262.821H12.6736C12.1419 259.986 11.6339 257.151 11.1731 254.327L355.504 254.316Z" fill="#FE662E"/>
<path d="M355.504 254.316V262.821H12.6736C12.1419 259.986 11.6339 257.151 11.1731 254.327L355.504 254.316Z" fill="url(#paint3_linear_251_61242)"/>
<path d="M182.394 134.493C178.306 130.866 169.752 129.992 165.854 133.997C162.971 136.95 162.782 141.557 162.073 145.657C161.019 151.554 158.541 157.106 154.854 161.829C152.869 164.357 150.482 166.743 149.632 169.827C149.278 170.824 149.278 171.913 149.632 172.91C150.223 173.964 151.11 174.823 152.184 175.379C154.623 177.154 157.383 178.438 160.312 179.159C161.779 179.501 163.313 179.42 164.735 178.924C166.158 178.428 167.41 177.539 168.346 176.359C169.032 175.343 169.528 173.997 170.709 173.595C172.245 173.111 173.628 174.599 175.116 175.19C177.633 176.147 180.516 174.339 181.768 171.953C182.831 169.462 183.47 166.811 183.659 164.109C183.835 161.383 185.079 158.836 187.12 157.021C187.935 156.418 188.975 155.97 189.377 155.036C190.098 153.312 188.195 151.74 187.014 150.311C183.387 145.586 187.026 138.356 182.394 134.493Z" fill="url(#paint4_linear_251_61242)"/>
<path d="M181.106 117.801C175.966 111.894 168.109 108.551 161.399 112.674C158.87 114.233 156.862 116.584 154.203 117.895C152.564 118.616 150.848 119.147 149.088 119.478C144.527 120.565 139.801 122.101 136.717 125.621C133.634 129.142 133.055 135.214 136.658 138.202C135.916 139.198 135.552 140.425 135.63 141.665C135.708 142.904 136.223 144.076 137.084 144.971C138.193 145.845 139.379 146.616 140.628 147.275C144.173 149.638 144.173 152.296 143.901 155.887C143.962 156.485 144.206 157.05 144.598 157.505L147.835 162.231C148.958 163.826 150.446 165.527 152.348 165.527C155.16 165.397 156.602 161.451 159.437 161.215C160.654 161.312 161.848 161.59 162.982 162.042C164.163 162.325 165.77 161.983 166.065 160.789C164.546 159.965 163.398 158.591 162.858 156.948C162.318 155.306 162.425 153.519 163.159 151.953C163.832 150.63 165.522 149.508 166.703 150.382C167.424 150.914 167.601 151.894 168.015 152.745C168.428 153.595 169.622 154.127 170.153 153.406C171.725 149.709 170.059 145.279 171.217 141.498C171.744 139.87 172.748 138.437 174.098 137.384C175.447 136.331 177.082 135.707 178.79 135.592C180.267 135.474 181.756 135.781 183.232 135.592C183.976 135.551 184.688 135.276 185.267 134.808C185.846 134.339 186.263 133.7 186.458 132.981C187.226 127.83 184.91 122.136 181.106 117.801Z" fill="#3E3E54"/>
<path d="M141.763 172.485C141.471 172.878 141.271 173.331 141.177 173.811C141.083 174.291 141.097 174.787 141.219 175.261C141.452 175.676 141.797 176.017 142.215 176.245C142.633 176.473 143.107 176.578 143.582 176.548C150.281 177.198 157.275 178.12 163.537 181.392C164.896 182.042 166.68 182.739 167.625 181.392C167.893 180.905 168.034 180.359 168.034 179.803C168.034 179.247 167.893 178.701 167.625 178.214C167.114 177.323 166.407 176.56 165.558 175.981C162.847 173.985 160.009 172.165 157.063 170.535C151.593 167.31 145.969 165.609 141.763 172.485Z" fill="#7474B4"/>
<path d="M162.817 282.809C166.007 289.165 172.694 293.04 166.007 299.454C154.192 310.831 133.316 315.603 117.496 315.449C106.862 315.355 95.9336 312.921 87.6041 306.353C85.0506 304.513 83.0554 302.003 81.8385 299.1C81.2356 297.188 80.9171 295.198 80.8933 293.193C78.8021 255.887 92.0347 219.147 110.702 186.791C114.247 180.6 118.972 173.914 125.99 172.875C128.524 172.629 131.08 172.789 133.564 173.347C150.139 176.216 166.531 180.058 182.654 184.853C184.582 185.179 186.407 185.948 187.986 187.1C189.565 188.253 190.854 189.756 191.752 191.492L217.26 230.559C220.946 236.206 224.774 242.372 224.349 249.094C224.327 251.066 223.663 252.978 222.458 254.54C220.519 256.354 218.018 257.45 215.37 257.647C206.076 259.146 196.563 258.499 187.557 255.757C192.591 251.894 191.007 243.873 187.687 238.45C185.439 234.799 182.651 231.509 179.417 228.692C177.27 239.244 173.776 249.475 169.02 259.135C165.476 266.365 158.765 274.8 162.817 282.809Z" fill="#7474B4"/>
<path d="M90.1553 232.863C90.8051 230.429 92.6955 222.703 95.0112 218.45C104.239 225.03 111.008 237.871 114.423 248.681C117.837 259.49 120.614 270.854 127.549 279.809L135.063 277.198L136.458 281.923C137.568 285.656 134.414 289.496 134.733 293.276C135.052 297.056 138.856 300.364 142.448 301.356C146.772 302.537 151.38 301.569 155.716 300.423C158.516 299.876 161.167 298.736 163.49 297.08C165.676 295.284 167.117 292.284 166.302 289.578C167.199 290.136 167.887 290.975 168.259 291.964C168.631 292.953 168.665 294.037 168.358 295.048C167.71 297.057 166.476 298.827 164.813 300.128C159.567 304.735 152.892 307.298 146.37 309.767C143.247 311.016 140.06 312.1 136.824 313.016C129.451 314.965 121.736 315.154 114.116 315.379C109.484 315.485 106.708 314.764 104.664 310.181C101.734 303.648 101.521 296.276 100.812 289.141C98.7189 270.135 95.156 251.319 90.1553 232.863Z" fill="url(#paint5_linear_251_61242)"/>
<path d="M115.44 301.309C115.44 303.341 115.393 305.408 115.298 307.511C115.192 309.602 115.003 311.74 114.743 313.926L114.566 315.355C114.365 316.843 114.14 318.344 113.869 319.868C113.857 319.922 113.857 319.978 113.869 320.033C113.715 320.872 113.55 321.722 113.384 322.585C114.104 327.222 113.515 331.968 111.683 336.288C107.472 336.434 103.257 336.367 99.0527 336.087C90.856 335.592 82.7443 334.149 74.8796 331.787C66.8437 327.676 59.4262 322.454 52.845 316.276C51.0256 314.722 49.5765 312.78 48.6035 310.594C47.8988 308.233 47.6541 305.759 47.8828 303.305C48.1164 289.62 46.3126 275.976 42.5307 262.821C41.7155 259.962 40.7939 257.127 39.7897 254.327C38.6082 251.15 37.4267 248.019 36.0207 244.877C32.7835 237.588 28.861 230.476 27.3841 222.644C26.5576 218.356 26.5096 213.954 27.2423 209.649C27.2793 208.884 27.5703 208.152 28.0694 207.57C28.4445 207.27 28.8767 207.049 29.3398 206.921C29.8029 206.793 30.2871 206.761 30.7631 206.826C40.6167 207.098 49.5723 212.733 59.3077 214.398C64.3054 215.249 69.4921 215.024 74.348 216.466C81.2596 218.498 86.5763 223.554 90.7706 229.46C92.9383 232.594 94.8581 235.892 96.5126 239.324C99.0409 244.463 101.404 249.378 103.601 254.162C104.877 257.033 106.071 259.856 107.146 262.656C110.785 271.455 113.313 280.673 114.672 290.098V290.275C115.158 293.934 115.414 297.619 115.44 301.309Z" fill="#3E3E54"/>
<path d="M115.44 301.309C115.44 303.341 115.393 305.408 115.298 307.511C115.192 309.602 115.003 311.74 114.743 313.926L114.566 315.355C114.365 316.843 114.14 318.344 113.869 319.868C113.857 319.922 113.857 319.978 113.869 320.033C113.715 320.872 113.55 321.722 113.384 322.585C114.104 327.222 113.515 331.968 111.683 336.288C107.472 336.434 103.257 336.367 99.0527 336.087C90.856 335.592 82.7443 334.149 74.8796 331.787C66.8437 327.676 59.4262 322.454 52.845 316.276C51.0256 314.722 49.5765 312.78 48.6035 310.594C47.8988 308.233 47.6541 305.759 47.8828 303.305C48.1164 289.62 46.3126 275.976 42.5307 262.821C41.7155 259.962 40.7939 257.127 39.7897 254.327C38.6082 251.15 37.4267 248.019 36.0207 244.877C32.7835 237.588 28.861 230.476 27.3841 222.644C26.5576 218.356 26.5096 213.954 27.2423 209.649C27.2793 208.884 27.5703 208.152 28.0694 207.57C28.4445 207.27 28.8767 207.049 29.3398 206.921C29.8029 206.793 30.2871 206.761 30.7631 206.826C40.6167 207.098 49.5723 212.733 59.3077 214.398C64.3054 215.249 69.4921 215.024 74.348 216.466C81.2596 218.498 86.5763 223.554 90.7706 229.46C92.9383 232.594 94.8581 235.892 96.5126 239.324C99.0409 244.463 101.404 249.378 103.601 254.162C104.877 257.033 106.071 259.856 107.146 262.656C110.785 271.455 113.313 280.673 114.672 290.098V290.275C115.158 293.934 115.414 297.619 115.44 301.309Z" fill="url(#paint6_linear_251_61242)"/>
<path d="M415.89 254.316H306.781V262.809H415.89V254.316Z" fill="#FE662E"/>
<path d="M415.89 254.316H306.781V262.809H415.89V254.316Z" fill="url(#paint7_linear_251_61242)"/>
<path d="M388.279 262.821V322.904C386.625 324.116 384.923 325.262 383.175 326.341C356.001 343.01 321.584 341.84 290.18 336.347L283.493 335.166V262.821H388.279Z" fill="#FE662E"/>
<path d="M258.245 135.06C258.259 135.018 258.282 134.979 258.313 134.946C258.343 134.913 258.381 134.888 258.422 134.871C258.524 134.872 258.624 134.905 258.706 134.966C258.782 135.002 258.851 135.053 258.908 135.115C258.965 135.178 259.009 135.252 259.037 135.332C259.072 135.451 259.072 135.578 259.037 135.698C258.977 135.947 258.882 136.186 258.753 136.407C258.689 136.518 258.6 136.613 258.494 136.685C258.387 136.757 258.266 136.803 258.139 136.82C258.02 136.82 257.843 136.549 257.843 136.442C257.843 136.336 257.961 136.277 258.009 136.171C258.15 135.84 258.009 135.426 258.245 135.06Z" fill="url(#paint8_linear_251_61242)"/>
<path d="M312.9 184.522C312.9 184.522 312.723 186.034 313.408 186.602C314.093 187.169 316.799 188.48 318.134 186.602C318.95 185.394 319.48 184.016 319.682 182.573L312.9 184.522Z" fill="url(#paint9_linear_251_61242)"/>
<path opacity="0.5" d="M244.752 175.249C244.714 175.152 244.67 175.058 244.622 174.965C244.597 174.919 244.559 174.88 244.513 174.853C244.467 174.826 244.415 174.812 244.362 174.812C244.31 174.821 244.263 174.847 244.227 174.885C244.191 174.924 244.168 174.972 244.161 175.024C244.138 175.126 244.138 175.231 244.161 175.332C244.215 175.541 244.295 175.744 244.398 175.934C244.456 176.061 244.54 176.174 244.646 176.265C244.766 176.349 244.903 176.405 245.047 176.43C245.073 176.442 245.102 176.448 245.13 176.448C245.159 176.448 245.187 176.442 245.213 176.43C245.244 176.402 245.264 176.365 245.272 176.324C245.272 176.147 245.39 175.769 245.272 175.615C245.154 175.462 245.106 175.615 245.024 175.521C244.906 175.462 244.811 175.367 244.752 175.249Z" fill="url(#paint10_linear_251_61242)"/>
<rect x="220.051" y="118.887" width="152.241" height="72.2221" fill="white"/>
<path d="M254.095 127.26L251.151 128.42L254.095 129.58V130.076L250.615 128.684V128.156L254.095 126.756V127.26ZM257.096 124.484H257.616L254.976 132.02H254.456L257.096 124.484ZM261.376 128.156V128.684L257.896 130.076V129.58L260.84 128.42L257.896 127.26V126.756L261.376 128.156Z" fill="#7474B4"/>
<path d="M254.095 127.26L254.278 127.725L254.595 127.601V127.26H254.095ZM251.151 128.42L250.967 127.955L249.787 128.42L250.967 128.885L251.151 128.42ZM254.095 129.58H254.595V129.24L254.278 129.115L254.095 129.58ZM254.095 130.076L253.909 130.541L254.595 130.815V130.076H254.095ZM250.615 128.684H250.115V129.023L250.429 129.149L250.615 128.684ZM250.615 128.156L250.428 127.692L250.115 127.819V128.156H250.615ZM254.095 126.756H254.595V126.016L253.908 126.292L254.095 126.756ZM253.911 126.795L250.967 127.955L251.334 128.885L254.278 127.725L253.911 126.795ZM250.967 128.885L253.911 130.045L254.278 129.115L251.334 127.955L250.967 128.885ZM253.595 129.58V130.076H254.595V129.58H253.595ZM254.28 129.612L250.8 128.22L250.429 129.149L253.909 130.541L254.28 129.612ZM251.115 128.684V128.156H250.115V128.684H251.115ZM250.801 128.62L254.281 127.22L253.908 126.292L250.428 127.692L250.801 128.62ZM253.595 126.756V127.26H254.595V126.756H253.595ZM257.096 124.484V123.984H256.742L256.624 124.319L257.096 124.484ZM257.616 124.484L258.088 124.65L258.321 123.984H257.616V124.484ZM254.976 132.02V132.52H255.331L255.448 132.186L254.976 132.02ZM254.456 132.02L253.984 131.855L253.751 132.52H254.456V132.02ZM257.096 124.984H257.616V123.984H257.096V124.984ZM257.144 124.319L254.504 131.855L255.448 132.186L258.088 124.65L257.144 124.319ZM254.976 131.52H254.456V132.52H254.976V131.52ZM254.928 132.186L257.568 124.65L256.624 124.319L253.984 131.855L254.928 132.186ZM261.376 128.156H261.876V127.819L261.563 127.692L261.376 128.156ZM261.376 128.684L261.562 129.149L261.876 129.023V128.684H261.376ZM257.896 130.076H257.396V130.815L258.082 130.541L257.896 130.076ZM257.896 129.58L257.713 129.115L257.396 129.24V129.58H257.896ZM260.84 128.42L261.023 128.885L262.204 128.42L261.023 127.955L260.84 128.42ZM257.896 127.26H257.396V127.601L257.713 127.725L257.896 127.26ZM257.896 126.756L258.083 126.292L257.396 126.016V126.756H257.896ZM260.876 128.156V128.684H261.876V128.156H260.876ZM261.19 128.22L257.71 129.612L258.082 130.541L261.562 129.149L261.19 128.22ZM258.396 130.076V129.58H257.396V130.076H258.396ZM258.079 130.045L261.023 128.885L260.657 127.955L257.713 129.115L258.079 130.045ZM261.023 127.955L258.079 126.795L257.713 127.725L260.657 128.885L261.023 127.955ZM258.396 127.26V126.756H257.396V127.26H258.396ZM257.709 127.22L261.189 128.62L261.563 127.692L258.083 126.292L257.709 127.22Z" fill="#7474B4"/>
<path d="M254.095 177.26L251.151 178.42L254.095 179.58V180.076L250.615 178.684V178.156L254.095 176.756V177.26ZM257.096 174.484H257.616L254.976 182.02H254.456L257.096 174.484ZM261.376 178.156V178.684L257.896 180.076V179.58L260.84 178.42L257.896 177.26V176.756L261.376 178.156Z" fill="#7474B4"/>
<path d="M254.095 177.26L254.278 177.725L254.595 177.601V177.26H254.095ZM251.151 178.42L250.967 177.955L249.787 178.42L250.967 178.885L251.151 178.42ZM254.095 179.58H254.595V179.24L254.278 179.115L254.095 179.58ZM254.095 180.076L253.909 180.54L254.595 180.815V180.076H254.095ZM250.615 178.684H250.115V179.023L250.429 179.148L250.615 178.684ZM250.615 178.156L250.428 177.692L250.115 177.818V178.156H250.615ZM254.095 176.756H254.595V176.016L253.908 176.292L254.095 176.756ZM253.911 176.795L250.967 177.955L251.334 178.885L254.278 177.725L253.911 176.795ZM250.967 178.885L253.911 180.045L254.278 179.115L251.334 177.955L250.967 178.885ZM253.595 179.58V180.076H254.595V179.58H253.595ZM254.28 179.612L250.8 178.22L250.429 179.148L253.909 180.54L254.28 179.612ZM251.115 178.684V178.156H250.115V178.684H251.115ZM250.801 178.62L254.281 177.22L253.908 176.292L250.428 177.692L250.801 178.62ZM253.595 176.756V177.26H254.595V176.756H253.595ZM257.096 174.484V173.984H256.742L256.624 174.319L257.096 174.484ZM257.616 174.484L258.088 174.649L258.321 173.984H257.616V174.484ZM254.976 182.02V182.52H255.331L255.448 182.185L254.976 182.02ZM254.456 182.02L253.984 181.855L253.751 182.52H254.456V182.02ZM257.096 174.984H257.616V173.984H257.096V174.984ZM257.144 174.319L254.504 181.855L255.448 182.185L258.088 174.649L257.144 174.319ZM254.976 181.52H254.456V182.52H254.976V181.52ZM254.928 182.185L257.568 174.649L256.624 174.319L253.984 181.855L254.928 182.185ZM261.376 178.156H261.876V177.818L261.563 177.692L261.376 178.156ZM261.376 178.684L261.562 179.148L261.876 179.023V178.684H261.376ZM257.896 180.076H257.396V180.815L258.082 180.54L257.896 180.076ZM257.896 179.58L257.713 179.115L257.396 179.24V179.58H257.896ZM260.84 178.42L261.023 178.885L262.204 178.42L261.023 177.955L260.84 178.42ZM257.896 177.26H257.396V177.601L257.713 177.725L257.896 177.26ZM257.896 176.756L258.083 176.292L257.396 176.016V176.756H257.896ZM260.876 178.156V178.684H261.876V178.156H260.876ZM261.19 178.22L257.71 179.612L258.082 180.54L261.562 179.148L261.19 178.22ZM258.396 180.076V179.58H257.396V180.076H258.396ZM258.079 180.045L261.023 178.885L260.657 177.955L257.713 179.115L258.079 180.045ZM261.023 177.955L258.079 176.795L257.713 177.725L260.657 178.885L261.023 177.955ZM258.396 177.26V176.756H257.396V177.26H258.396ZM257.709 177.22L261.189 178.62L261.563 177.692L258.083 176.292L257.709 177.22Z" fill="#7474B4"/>
<rect x="250.055" y="134.442" width="23" height="2" fill="#7474B4"/>
<rect x="250.055" y="139.442" width="13" height="2" fill="#7474B4"/>
<rect x="250.055" y="144.442" width="13" height="2" fill="#7474B4"/>
<rect x="250.055" y="149.442" width="23" height="2" fill="#7474B4"/>
<rect x="265.055" y="139.442" width="38" height="2" fill="#7474B4"/>
<rect x="275.055" y="134.442" width="28" height="2" fill="#7474B4"/>
<rect x="265.055" y="144.442" width="8" height="2" fill="#7474B4"/>
<rect x="275.055" y="144.442" width="28" height="2" fill="#7474B4"/>
<rect x="250.055" y="156.554" width="13" height="2" fill="#7474B4"/>
<rect x="250.055" y="161.554" width="13" height="2" fill="#7474B4"/>
<rect x="250.055" y="170.554" width="13" height="2" fill="#7474B4"/>
<rect x="250.055" y="166.554" width="23" height="2" fill="#7474B4"/>
<rect x="265.055" y="156.554" width="38" height="2" fill="#7474B4"/>
<rect x="265.055" y="161.554" width="8" height="2" fill="#7474B4"/>
<rect x="265.055" y="170.554" width="8" height="2" fill="#7474B4"/>
<rect x="275.055" y="161.554" width="28" height="2" fill="#7474B4"/>
<rect x="275.055" y="170.554" width="28" height="2" fill="#7474B4"/>
<path d="M242.832 126.665V181.109" stroke="#D03800"/>
<ellipse cx="233.942" cy="128.331" rx="1.66687" ry="1.66667" fill="#FE662E"/>
<ellipse cx="233.942" cy="138.331" rx="1.66687" ry="1.66666" fill="#FE662E"/>
<ellipse cx="233.942" cy="149.442" rx="1.66687" ry="1.66667" fill="#FE662E"/>
<ellipse cx="233.942" cy="162.776" rx="1.66687" ry="1.66666" fill="#FE662E"/>
<ellipse cx="233.942" cy="174.998" rx="1.66687" ry="1.66666" fill="#FE662E"/>
<path d="M2.49426 164.48C10.1045 157.036 19.023 166.153 26.6343 158.707C34.2457 151.262 25.3308 142.141 32.9443 134.693C40.5578 127.246 49.4741 136.365 57.0855 128.92C64.7026 121.468 55.7841 112.351 63.4002 104.901C71.0162 97.4511 79.9357 106.567 87.5518 99.1171" stroke="#7474B4" stroke-width="4.67486" stroke-linecap="round" stroke-linejoin="round"/>
<path d="M14.5814 177.33C22.1916 169.886 31.1091 179.002 38.7204 171.556C46.3318 164.111 37.4179 154.991 45.0314 147.544C52.645 140.096 61.5602 149.214 69.1715 141.769C76.7887 134.318 67.8712 125.202 75.4873 117.752C83.1033 110.301 92.0222 119.416 99.6382 111.966" stroke="#7474B4" stroke-width="4.67486" stroke-linecap="round" stroke-linejoin="round"/>
<path d="M26.6671 190.18C34.2774 182.736 43.1959 191.853 50.8072 184.407C58.4185 176.962 49.5037 167.841 57.1172 160.394C64.7307 152.946 73.647 162.065 81.2583 154.62C88.8754 147.169 79.957 138.052 87.573 130.601C95.189 123.151 104.109 132.267 111.725 124.817" stroke="#7474B4" stroke-width="4.67486" stroke-linecap="round" stroke-linejoin="round"/>
<path d="M121.162 60.1811L121.162 60.1811C121.361 60.6195 121.643 61.0145 121.994 61.3435C122.345 61.6726 122.758 61.9293 123.208 62.099C123.658 62.2687 124.137 62.348 124.618 62.3325C125.099 62.317 125.572 62.2068 126.01 62.0084L126.01 62.0084L155.161 48.8177L155.161 48.8177C155.6 48.6194 155.995 48.3367 156.324 47.9858C156.653 47.6348 156.91 47.2225 157.079 46.7723C157.249 46.3222 157.328 45.843 157.313 45.3622C157.297 44.8813 157.187 44.4082 156.989 43.97L157.54 43.7204L156.989 43.97C156.588 43.0845 155.852 42.3945 154.942 42.0516C154.033 41.7088 153.024 41.7412 152.139 42.1418L121.162 60.1811ZM121.162 60.1811C120.762 59.2955 120.729 58.2871 121.072 57.3776C121.415 56.4681 122.105 55.732 122.99 55.3312C122.991 55.3312 122.991 55.3311 122.991 55.3311L152.139 42.1418L121.162 60.1811Z" fill="#7474B4" stroke="#7474B4" stroke-width="1.21016"/>
<path d="M130.97 34.1625L130.97 34.1624C131.408 33.964 131.881 33.8539 132.362 33.8383L132.343 33.2336L132.362 33.8383C132.843 33.8228 133.322 33.9022 133.772 34.0718C134.223 34.2415 134.635 34.4982 134.986 34.8273L135.4 34.3859L134.986 34.8273C135.337 35.1564 135.62 35.5514 135.818 35.9897L135.818 35.9898L149.009 65.1388C149.009 65.1388 149.009 65.1389 149.009 65.1389C149.41 66.0245 149.442 67.0329 149.099 67.9423C148.757 68.8518 148.067 69.5878 147.181 69.9887C146.296 70.3893 145.287 70.4217 144.378 70.0789C143.468 69.736 142.732 69.046 142.331 68.1605L129.143 39.0103L129.143 39.0102C128.944 38.5719 128.834 38.0988 128.819 37.618C128.803 37.1372 128.882 36.658 129.052 36.2078C129.222 35.7576 129.478 35.3453 129.808 34.9944L129.366 34.5805L129.808 34.9944C130.137 34.6434 130.532 34.3608 130.97 34.1625Z" fill="#7474B4" stroke="#7474B4" stroke-width="1.21016"/>
<defs>
<linearGradient id="paint0_linear_251_61242" x1="304.76" y1="213.016" x2="344.224" y2="350.939" gradientUnits="userSpaceOnUse">
<stop offset="0.01"/>
<stop offset="0.08" stop-opacity="0.69"/>
<stop offset="0.21" stop-opacity="0.32"/>
<stop offset="1" stop-opacity="0"/>
</linearGradient>
<linearGradient id="paint1_linear_251_61242" x1="260.915" y1="188.645" x2="330.765" y2="274.466" gradientUnits="userSpaceOnUse">
<stop offset="0.01"/>
<stop offset="0.08" stop-opacity="0.69"/>
<stop offset="0.21" stop-opacity="0.32"/>
<stop offset="1" stop-opacity="0"/>
</linearGradient>
<linearGradient id="paint2_linear_251_61242" x1="263.88" y1="141.439" x2="319.753" y2="265.839" gradientUnits="userSpaceOnUse">
<stop offset="0.01"/>
<stop offset="0.08" stop-opacity="0.69"/>
<stop offset="0.21" stop-opacity="0.32"/>
<stop offset="1" stop-opacity="0"/>
</linearGradient>
<linearGradient id="paint3_linear_251_61242" x1="87.2369" y1="148.043" x2="214.298" y2="293.079" gradientUnits="userSpaceOnUse">
<stop offset="0.01"/>
<stop offset="0.08" stop-opacity="0.69"/>
<stop offset="0.21" stop-opacity="0.32"/>
<stop offset="1" stop-opacity="0"/>
</linearGradient>
<linearGradient id="paint4_linear_251_61242" x1="189.53" y1="155.367" x2="149.419" y2="155.367" gradientUnits="userSpaceOnUse">
<stop stop-color="#E5C5D5"/>
<stop offset="0.42" stop-color="#EAD4D1"/>
<stop offset="1" stop-color="#F0E9CB"/>
</linearGradient>
<linearGradient id="paint5_linear_251_61242" x1="7.66424" y1="381.58" x2="210.936" y2="178.295" gradientUnits="userSpaceOnUse">
<stop offset="0.01"/>
<stop offset="0.08" stop-opacity="0.69"/>
<stop offset="0.21" stop-opacity="0.32"/>
<stop offset="1" stop-opacity="0"/>
</linearGradient>
<linearGradient id="paint6_linear_251_61242" x1="26.7343" y1="271.575" x2="115.44" y2="271.575" gradientUnits="userSpaceOnUse">
<stop stop-opacity="0"/>
<stop offset="0.99"/>
</linearGradient>
<linearGradient id="paint7_linear_251_61242" x1="273.215" y1="125.054" x2="404.926" y2="324.644" gradientUnits="userSpaceOnUse">
<stop offset="0.01"/>
<stop offset="0.08" stop-opacity="0.69"/>
<stop offset="0.21" stop-opacity="0.32"/>
<stop offset="1" stop-opacity="0"/>
</linearGradient>
<linearGradient id="paint8_linear_251_61242" x1="258.8" y1="135.911" x2="255.587" y2="135.533" gradientUnits="userSpaceOnUse">
<stop stop-color="#010101" stop-opacity="0"/>
<stop offset="0.95" stop-color="#010101"/>
</linearGradient>
<linearGradient id="paint9_linear_251_61242" x1="314.495" y1="186.968" x2="326.119" y2="170.971" gradientUnits="userSpaceOnUse">
<stop stop-color="#010101" stop-opacity="0"/>
<stop offset="0.95" stop-color="#010101"/>
</linearGradient>
<linearGradient id="paint10_linear_251_61242" x1="244.598" y1="175.721" x2="246.063" y2="174.918" gradientUnits="userSpaceOnUse">
<stop stop-color="#010101" stop-opacity="0"/>
<stop offset="0.95" stop-color="#010101"/>
</linearGradient>
</defs>
</svg>