<svg xmlns="http://www.w3.org/2000/svg" width="419" height="418" viewBox="0 0 419 418" fill="none">
<path opacity="0.1" fill-rule="evenodd" clip-rule="evenodd" d="M201.756 3.71958C246.983 8.51391 270.958 54.5082 305.269 84.3329C344.412 118.358 404.964 136.608 413.459 187.743C422.507 242.202 390.618 299.113 346.468 332.311C306.198 362.59 251.555 354.691 201.756 346.928C161.18 340.603 123.011 324.282 96.1078 293.286C71.0145 264.375 67.2531 225.834 63.5924 187.743C59.3373 143.468 46.952 95.3636 73.6667 59.7816C102.743 21.0542 153.568 -1.38865 201.756 3.71958Z" fill="#7474B4"/>
<g clip-path="url(#clip0_272_73111)">
<path opacity="0.3" d="M205.252 314.788C295.554 314.788 368.759 306.479 368.759 296.228C368.759 285.978 295.554 277.668 205.252 277.668C114.95 277.668 41.7451 285.978 41.7451 296.228C41.7451 306.479 114.95 314.788 205.252 314.788Z" fill="#E6E6E6"/>
<path d="M91.6974 185.073C91.6974 185.073 67.4027 196.713 64.2329 223.536C61.0631 250.359 52.1114 302.157 118.016 299.203C183.92 296.249 214.999 292.572 199.46 242.2C183.92 191.828 91.6974 185.073 91.6974 185.073Z" fill="#5251A2"/>
<path opacity="0.09" d="M89.2093 199.006C88.5281 202.791 88.9995 206.694 90.5626 210.208C92.1257 213.722 94.7082 216.685 97.9753 218.713C106.917 224.61 120.69 245.567 131.356 256.164C133.02 257.815 134.335 259.784 135.222 261.954C136.109 264.124 136.55 266.451 136.519 268.796C136.519 270.706 137.293 272.824 139.812 274.889C147.226 280.952 178.335 283.978 195.732 265.325C213.13 246.672 190.188 237.438 190.188 237.438L113.721 196.031L89.2093 199.006Z" fill="black"/>
<path d="M258.24 290.32C258.24 290.32 259.861 294.452 263.929 295.34C267.997 296.228 270.207 301.268 261.317 300.504C252.427 299.74 247.543 301.082 248.824 296.197C250.104 291.312 249.526 290.578 249.526 290.578L258.24 290.32Z" fill="#F4A28C"/>
<path d="M198.541 286.881C198.541 286.881 197.859 291.229 200.884 294.111C203.91 296.992 203.27 302.374 196.032 297.209C188.794 292.045 183.89 290.692 187.472 287.139C191.055 283.586 190.931 282.656 190.931 282.656L198.541 286.881Z" fill="#F4A28C"/>
<path d="M206.305 225.065C206.305 225.065 260.666 225.622 260.14 290.475L247.316 292.654C247.316 292.654 244.848 224.166 174.205 256.794L177.891 229.816L206.305 225.065Z" fill="#24285B"/>
<path opacity="0.09" d="M206.305 225.065C206.305 225.065 260.666 225.622 260.14 290.475L247.316 292.654C247.316 292.654 244.848 224.166 174.205 256.794L177.891 229.816L206.305 225.065Z" fill="black"/>
<path d="M210.569 165.366L215.288 166.626L211.932 163.011L210.569 165.366Z" fill="#5251A2"/>
<path d="M136.415 197.467C136.415 197.467 145.811 221.223 168.743 217.039C191.674 212.856 200.389 164.736 200.389 164.736C200.389 164.736 209.454 158.838 205.066 152.259C200.678 145.68 193.543 159.912 193.543 159.912C193.543 159.912 183.662 200.462 162.279 187.314L136.415 197.467Z" fill="#F4A28C"/>
<path opacity="0.09" d="M136.415 197.467C136.415 197.467 145.811 221.223 168.743 217.039C191.674 212.856 200.389 164.736 200.389 164.736C200.389 164.736 209.454 158.838 205.066 152.259C200.678 145.68 193.543 159.912 193.543 159.912C193.543 159.912 183.662 200.462 162.279 187.314L136.415 197.467Z" fill="black"/>
<path d="M136.704 149.212L141.66 150.245C141.66 150.245 179.966 171.047 172.842 191.879C165.717 212.712 181.277 232.491 181.277 232.491L147.969 255.957C147.969 255.957 104.459 234.36 110.974 174.868C110.974 174.868 113.999 147.157 136.704 149.212Z" fill="#FE4400"/>
<path d="M224.733 160.973L218.452 157.952L192.667 211.596L198.948 214.617L224.733 160.973Z" fill="#E6E6E6"/>
<path opacity="0.58" d="M313.685 286.003C313.685 286.003 303.112 283.111 300.81 273.268C300.81 273.268 317.196 269.952 317.66 286.87L313.685 286.003Z" fill="#FE4400"/>
<path opacity="0.73" d="M314.955 284.97C314.955 284.97 307.562 273.289 314.067 262.361C314.067 262.361 326.529 270.273 320.995 285.001L314.955 284.97Z" fill="#FE4400"/>
<path d="M316.855 284.97C316.855 284.97 320.758 272.627 332.559 270.293C332.559 270.293 334.779 278.308 324.919 285.001L316.855 284.97Z" fill="#FE4400"/>
<path d="M309.184 284.671L311.331 299.347L324.836 299.399L326.829 284.743L309.184 284.671Z" fill="#24285B"/>
<path opacity="0.66" d="M290.753 81.798H215.814V134.287H290.753V81.798Z" fill="#E6E6E6"/>
<path opacity="0.43" d="M357.99 155.327H290.309V202.735H357.99V155.327Z" fill="#E6E6E6"/>
<path d="M235.587 106.194C240.417 106.194 244.332 102.277 244.332 97.4456C244.332 92.6141 240.417 88.6974 235.587 88.6974C230.757 88.6974 226.842 92.6141 226.842 97.4456C226.842 102.277 230.757 106.194 235.587 106.194Z" fill="#E6E6E6"/>
<path opacity="0.45" d="M279.664 90.0194H255.039V124.238H279.664V90.0194Z" fill="#C1C1C1"/>
<path d="M245.261 112.763H228.349V124.238H245.261V112.763Z" fill="#C1C1C1"/>
<path d="M134.887 123.081L127.99 147.405L141.66 150.245L141.196 131.406L134.887 123.081Z" fill="#F4A28C"/>
<path opacity="0.31" d="M141.474 135.527C139.815 134.88 138.38 133.764 137.344 132.315C137.344 132.315 136.993 136.932 141.474 142.065V135.527Z" fill="#CE8172"/>
<path d="M149.043 123.845C149.043 123.845 148.361 131.53 146.193 136.333C145.984 136.801 145.683 137.223 145.309 137.573C144.935 137.924 144.495 138.197 144.014 138.376C143.534 138.555 143.022 138.636 142.51 138.615C141.998 138.594 141.495 138.471 141.03 138.254C138.625 137.128 135.703 134.907 135.569 130.745L134.474 123.711C134.405 122.279 134.781 120.861 135.55 119.652C136.319 118.442 137.444 117.501 138.769 116.956C143.622 114.55 149.693 119.136 149.043 123.845Z" fill="#F4A28C"/>
<path d="M139.822 128.865C139.822 128.865 140.287 125.932 138.047 125.766C135.806 125.601 135.114 129.836 138.047 130.755L139.822 128.865Z" fill="#F4A28C"/>
<path d="M148.361 128.607L149.962 131.912C150.052 132.1 150.093 132.308 150.082 132.516C150.071 132.724 150.007 132.926 149.897 133.104C149.787 133.281 149.634 133.427 149.452 133.529C149.27 133.632 149.065 133.686 148.857 133.688H145.863L148.361 128.607Z" fill="#F4A28C"/>
<path d="M211.937 163.01L188.349 149.386L186.991 151.739L210.58 165.362L211.937 163.01Z" fill="#24285B"/>
<path opacity="0.18" d="M155.609 243.036L147.969 255.957C147.969 255.957 120.267 242.53 112.327 206.195C104.387 169.859 130.581 184.019 130.581 184.019L155.609 243.036Z" fill="black"/>
<path d="M147.969 255.957C147.969 255.957 173.637 203.612 211.591 203.809C249.546 204.005 200.234 288.275 200.234 288.275L187.72 283.183C187.72 283.183 206.305 247.033 201.576 235.393C196.847 223.753 189.62 304.047 147.969 255.957Z" fill="#24285B"/>
<path d="M126.007 152.145C126.007 152.145 137.427 146.351 143.23 158.126C149.032 169.9 144.458 220.541 168.01 223.195C191.561 225.85 203.507 201.309 203.507 201.309C203.507 201.309 205.448 190.981 208.669 189.266C211.891 187.552 214.73 198.407 208.669 204.759C208.669 204.759 198.283 243.79 165.304 244.668C132.326 245.546 93.494 178.876 126.007 152.145Z" fill="#F4A28C"/>
<path d="M149.094 113.827C149.094 113.827 156.6 122.657 146.885 124.506C137.169 126.355 135.166 128.101 136.095 137.933C137.024 147.766 140.875 156.824 127.99 162.99C115.104 169.156 126.183 179.516 123.808 191.6C121.433 203.685 110.107 212.03 95.6003 203.788C81.0937 195.546 72.1419 174.455 87.6914 161.823C103.241 149.191 122.796 146.124 122.796 125.756C122.796 105.388 139.048 104.335 149.094 113.827Z" fill="#24285B"/>
<path opacity="0.43" d="M311.816 190.072C317.598 190.072 322.286 185.383 322.286 179.599C322.286 173.814 317.598 169.125 311.816 169.125C306.034 169.125 301.347 173.814 301.347 179.599C301.347 185.383 306.034 190.072 311.816 190.072Z" fill="#C1C1C1"/>
<path opacity="0.43" d="M328.76 163.548H310.557V181.757H328.76V163.548Z" fill="#C1C1C1"/>
<path opacity="0.43" d="M348.284 163.548H334.707V193.728H348.284V163.548Z" fill="#C1C1C1"/>
<path d="M211.174 204.074L201.556 200.406L199.485 205.839L209.103 209.508L211.174 204.074Z" fill="#FE4400"/>
<path opacity="0.44" d="M211.174 204.074L201.556 200.406L199.485 205.839L209.103 209.508L211.174 204.074Z" fill="white"/>
<path d="M12.6389 85.8003C22.4727 81.7222 27.3583 93.5032 37.1936 89.4246C47.0289 85.3459 42.1479 73.563 51.986 69.4831C61.8241 65.4033 66.7068 77.1855 76.5421 73.1069C86.3848 69.0251 81.4992 57.2441 91.3406 53.1629C101.182 49.0817 106.069 60.8622 115.91 56.781" stroke="#FF7B42" stroke-width="4.67486" stroke-linecap="round" stroke-linejoin="round"/>
<path d="M19.0762 102.225C28.9101 98.1474 33.7951 109.927 43.6304 105.848C53.4656 101.77 48.5853 89.9881 58.4234 85.9083C68.2614 81.8285 73.1436 93.6093 82.9789 89.5306C92.8216 85.4489 87.9366 73.6693 97.7779 69.5881C107.619 65.5069 112.506 77.2858 122.347 73.2046" stroke="#FF7B42" stroke-width="4.67486" stroke-linecap="round" stroke-linejoin="round"/>
<path d="M25.5129 118.65C35.3468 114.572 40.2323 126.353 50.0676 122.274C59.9029 118.196 55.022 106.413 64.86 102.333C74.6981 98.2529 79.5808 110.035 89.4161 105.956C99.2588 101.875 94.3733 90.0937 104.215 86.0125C114.056 81.9314 118.943 93.7118 128.784 89.6306" stroke="#FF7B42" stroke-width="4.67486" stroke-linecap="round" stroke-linejoin="round"/>
</g>
<path d="M118.227 342.79C108.125 346.152 104.098 334.051 93.9955 337.413C83.8928 340.775 87.9153 352.878 77.8097 356.241C67.7042 359.604 63.6798 347.502 53.5771 350.864C43.4668 354.228 47.4941 366.33 37.3852 369.694C27.2763 373.058 23.2476 360.957 13.1387 364.321" stroke="#FF7B42" stroke-width="4.67486" stroke-linecap="round" stroke-linejoin="round"/>
<path d="M112.985 325.945C102.884 329.307 98.857 317.207 88.7543 320.569C78.6516 323.931 82.6736 336.033 72.568 339.396C62.4625 342.759 58.4386 330.658 48.3359 334.02C38.2256 337.385 42.2524 349.485 32.1435 352.849C22.0346 356.213 18.0059 344.114 7.89697 347.478" stroke="#FF7B42" stroke-width="4.67486" stroke-linecap="round" stroke-linejoin="round"/>
<path d="M107.744 309.101C97.6428 312.463 93.6155 300.362 83.5128 303.724C73.4101 307.086 77.4326 319.189 67.3271 322.552C57.2215 325.915 53.1971 313.813 43.0945 317.175C32.9841 320.539 37.0114 332.641 26.9025 336.005C16.7936 339.369 12.7649 327.268 2.65601 330.632" stroke="#FF7B42" stroke-width="4.67486" stroke-linecap="round" stroke-linejoin="round"/>
<path d="M107.053 394.212C110.094 396.429 114.357 395.762 116.574 392.721C118.792 389.68 118.124 385.417 115.083 383.2C112.042 380.982 107.78 381.65 105.562 384.691C103.345 387.732 104.012 391.994 107.053 394.212Z" fill="#FF7B42"/>
<path d="M127.483 24.8956C125.037 22.0351 120.736 21.6988 117.875 24.1444C115.015 26.5901 114.679 30.8917 117.124 33.7522C119.57 36.6127 123.871 36.949 126.732 34.5034C129.592 32.0577 129.929 27.7561 127.483 24.8956Z" fill="#FF7B42"/>
<path d="M71.2983 399.81C74.3392 402.028 78.6019 401.36 80.8193 398.319C83.0367 395.279 82.3692 391.016 79.3283 388.798C76.2874 386.581 72.0247 387.249 69.8073 390.289C67.5899 393.33 68.2574 397.593 71.2983 399.81Z" fill="#FF7B42"/>
<path d="M163.563 27.7171C161.118 24.8566 156.816 24.5203 153.956 26.966C151.095 29.4117 150.759 33.7132 153.205 36.5737C155.65 39.4343 159.952 39.7706 162.812 37.3249C165.673 34.8792 166.009 30.5777 163.563 27.7171Z" fill="#FF7B42"/>
<path d="M91.8608 413.66C94.9017 415.878 99.1644 415.21 101.382 412.169C103.599 409.128 102.932 404.866 99.8908 402.648C96.8499 400.431 92.5872 401.098 90.3698 404.139C88.1524 407.18 88.8199 411.443 91.8608 413.66Z" fill="#FF7B42"/>
<path d="M146.761 9.48765C144.316 6.62712 140.014 6.29081 137.153 8.73648C134.293 11.1822 133.957 15.4837 136.402 18.3442C138.848 21.2048 143.149 21.5411 146.01 19.0954C148.871 16.6497 149.207 12.3482 146.761 9.48765Z" fill="#FF7B42"/>
<path d="M86.7441 380.986C89.785 383.203 94.0477 382.536 96.2651 379.495C98.4825 376.454 97.815 372.191 94.7741 369.974C91.7332 367.756 87.4705 368.424 85.2531 371.465C83.0357 374.506 83.7032 378.768 86.7441 380.986Z" fill="#FF7B42"/>
<path d="M144.183 42.4598C141.737 39.5993 137.436 39.263 134.575 41.7087C131.715 44.1543 131.378 48.4559 133.824 51.3164C136.27 54.1769 140.571 54.5132 143.432 52.0676C146.292 49.6219 146.629 45.3204 144.183 42.4598Z" fill="#FF7B42"/>
<path d="M179.517 358.754C180.64 358.609 181.775 358.917 182.671 359.609C183.568 360.301 184.153 361.32 184.298 362.443L188.385 394.175C188.529 395.298 188.222 396.433 187.53 397.329C186.838 398.226 185.818 398.81 184.695 398.955C184.139 399.027 183.574 398.988 183.033 398.842C182.492 398.695 181.985 398.444 181.542 398.101C181.098 397.759 180.726 397.332 180.447 396.846C180.168 396.36 179.988 395.823 179.916 395.267L175.829 363.533C175.757 362.977 175.796 362.412 175.942 361.871C176.089 361.33 176.341 360.823 176.683 360.379C177.026 359.935 177.452 359.564 177.939 359.285C178.425 359.006 178.961 358.825 179.517 358.754Z" fill="#FF7B42"/>
<path d="M48.7834 42.6347C47.6573 42.5155 46.6246 41.954 45.9124 41.0735C45.2002 40.1931 44.8669 39.0658 44.9857 37.9396L48.3476 6.12328C48.4668 4.99715 49.0283 3.96445 49.9088 3.25228C50.7892 2.54011 51.9165 2.20679 53.0427 2.32562C53.6001 2.38442 54.1406 2.55249 54.6331 2.8202C55.1256 3.08791 55.5605 3.45002 55.9131 3.88586C56.2656 4.3217 56.5288 4.82272 56.6877 5.3603C56.8466 5.89789 56.898 6.46151 56.839 7.01897L53.4767 38.8384C53.4179 39.3959 53.2499 39.9363 52.9822 40.4288C52.7145 40.9213 52.3523 41.3563 51.9165 41.7088C51.4807 42.0613 50.9796 42.3246 50.4421 42.4834C49.9045 42.6423 49.3409 42.6937 48.7834 42.6347Z" fill="#FF7B42"/>
<path d="M202.207 376.266C202.278 376.822 202.24 377.386 202.093 377.927C201.947 378.468 201.695 378.975 201.353 379.419C201.01 379.863 200.583 380.235 200.097 380.514C199.611 380.793 199.074 380.973 198.519 381.044L166.786 385.133C165.663 385.278 164.528 384.97 163.632 384.278C162.735 383.586 162.15 382.567 162.005 381.444C161.861 380.32 162.168 379.186 162.86 378.289C163.552 377.393 164.572 376.808 165.695 376.663L197.428 372.577C197.984 372.506 198.549 372.544 199.09 372.691C199.631 372.837 200.138 373.089 200.581 373.432C201.025 373.774 201.397 374.201 201.676 374.687C201.955 375.173 202.135 375.71 202.207 376.266Z" fill="#FF7B42"/>
<path d="M30.7587 20.3505C30.8175 19.7931 30.9855 19.2526 31.2532 18.7601C31.5209 18.2676 31.8831 17.8327 32.3189 17.4801C32.7547 17.1276 33.2558 16.8644 33.7933 16.7055C34.3309 16.5466 34.8945 16.4953 35.452 16.5543L67.2701 19.9148C68.3962 20.0339 69.4289 20.5955 70.1411 21.4759C70.8532 22.3564 71.1866 23.4836 71.0677 24.6098C70.9486 25.7359 70.387 26.7686 69.5066 27.4808C68.6261 28.193 67.4989 28.5263 66.3727 28.4075L34.5549 25.0439C33.9975 24.9851 33.457 24.817 32.9645 24.5493C32.472 24.2816 32.0371 23.9195 31.6845 23.4836C31.332 23.0478 31.0688 22.5468 30.9099 22.0092C30.751 21.4716 30.6997 20.908 30.7587 20.3505Z" fill="#FF7B42"/>
<defs>
<clipPath id="clip0_272_73111">
<rect width="413" height="311.382" fill="white" transform="translate(6 45.6183)"/>
</clipPath>
</defs>
</svg>