<svg xmlns="http://www.w3.org/2000/svg" width="470" height="354" viewBox="0 0 470 354" fill="none">
<path d="M233.45 318.454C332.745 318.454 413.24 310.327 413.24 300.302C413.24 290.276 332.745 282.149 233.45 282.149C134.155 282.149 53.6602 290.276 53.6602 300.302C53.6602 310.327 134.155 318.454 233.45 318.454Z" fill="url(#paint0_linear_51_145691)"/>
<path d="M282.432 235.634H214.308L201.921 182.912H270.045L282.432 235.634Z" fill="#FE662E"/>
<path d="M278.403 235.634H214.308L201.921 182.912H266.016L278.403 235.634Z" fill="url(#paint1_linear_51_145691)"/>
<path d="M372.677 233.718H129.732V298.397H372.677V233.718Z" fill="#FE662E"/>
<path d="M372.677 233.718H129.732V298.397H372.677V233.718Z" fill="url(#paint2_linear_51_145691)"/>
<path d="M332.608 46.3338H134.304C122.599 46.3338 113.111 55.8155 113.111 67.5118V178.332C113.111 190.028 122.599 199.51 134.304 199.51H332.608C344.312 199.51 353.8 190.028 353.8 178.332V67.5118C353.8 55.8155 344.312 46.3338 332.608 46.3338Z" fill="#7474B4"/>
<path d="M353.801 169.123V178.32C353.794 183.935 351.559 189.318 347.586 193.288C343.613 197.258 338.227 199.492 332.608 199.498H134.292C128.671 199.498 123.281 197.267 119.307 193.295C115.332 189.323 113.1 183.937 113.1 178.32V169.123H353.801Z" fill="url(#paint3_linear_51_145691)"/>
<path opacity="0.1" d="M325.589 150.175V209.792H273.953C272.523 209.792 271.152 209.224 270.141 208.214C269.13 207.203 268.562 205.833 268.562 204.404V155.563C268.562 154.134 269.13 152.763 270.141 151.753C271.152 150.743 272.523 150.175 273.953 150.175H325.589Z" fill="#020202"/>
<path d="M191.946 200.86H230.435C230.764 200.86 231.091 200.925 231.395 201.051C231.699 201.177 231.976 201.361 232.209 201.594C232.442 201.827 232.627 202.103 232.753 202.408C232.879 202.712 232.944 203.038 232.944 203.367C232.944 203.696 232.879 204.022 232.753 204.327C232.627 204.631 232.442 204.907 232.209 205.14C231.976 205.373 231.699 205.557 231.395 205.683C231.091 205.809 230.764 205.874 230.435 205.874H191.946C191.617 205.874 191.291 205.809 190.986 205.683C190.682 205.557 190.405 205.373 190.172 205.14C189.939 204.907 189.755 204.631 189.628 204.327C189.502 204.022 189.438 203.696 189.438 203.367C189.438 202.702 189.702 202.064 190.172 201.594C190.643 201.124 191.281 200.86 191.946 200.86Z" fill="#473F47"/>
<path d="M198.17 187.444L197.024 195.002L200.197 195.364L203.658 187.372L198.17 187.444Z" fill="#FCBDBA"/>
<path d="M201.149 194.255C200.995 194.131 200.861 193.985 200.751 193.821C200.589 193.922 200.407 193.986 200.217 194.009C200.027 194.032 199.835 194.013 199.653 193.953L198.061 193.688C197.781 193.655 197.509 193.577 197.253 193.459H197.145L196.807 194.11C196.229 195.273 195.889 196.539 195.806 197.835C198.818 198.548 201.915 198.844 205.009 198.714C205.256 198.748 205.508 198.716 205.739 198.621C205.97 198.526 206.172 198.371 206.323 198.172C206.383 198.037 206.414 197.891 206.414 197.744C206.414 197.597 206.383 197.451 206.323 197.316C206.177 197.011 205.972 196.737 205.72 196.512C205.467 196.286 205.172 196.113 204.852 196.002C204.032 195.665 203.199 195.376 202.44 194.99C201.978 194.804 201.544 194.557 201.149 194.255Z" fill="#FE662E"/>
<path d="M219.447 189.747L218.458 197.328L221.642 197.618L224.935 189.566L219.447 189.747Z" fill="#FCBDBA"/>
<path opacity="0.1" d="M327.603 84.1216V107.517C327.603 110.593 326.381 113.542 324.205 115.717C322.029 117.891 319.077 119.113 316 119.113H248.057L220.521 150.766V72.5261H316C317.524 72.5261 319.033 72.826 320.44 73.4087C321.848 73.9914 323.127 74.8456 324.205 75.9223C325.282 76.999 326.137 78.2773 326.72 79.6842C327.303 81.091 327.603 82.5988 327.603 84.1216Z" fill="#020202"/>
<path d="M313.201 62.5699H236.369C229.961 62.5699 224.766 67.7613 224.766 74.1653V97.5612C224.766 103.965 229.961 109.157 236.369 109.157H313.201C319.609 109.157 324.804 103.965 324.804 97.5612V74.1653C324.804 67.7613 319.609 62.5699 313.201 62.5699Z" fill="white"/>
<path opacity="0.1" d="M238.251 103.383C237.861 103.418 237.468 103.36 237.105 103.214C236.518 102.805 236.115 102.182 235.983 101.479C234.09 95.6327 230.17 89.9434 224.284 88.2198C222.752 94.4514 222.86 100.96 222.981 107.385C222.981 109.096 223.174 111.061 224.549 112.074C225.445 112.626 226.488 112.895 227.54 112.845C234.215 113.098 240.848 111.686 246.839 108.735C248.636 107.843 252.339 104.359 248.889 103.226C247.852 102.877 245.56 103.407 244.451 103.407L238.251 103.383Z" fill="#020202"/>
<path d="M197.893 134.843L202.621 161.107L197.893 189.361L205.552 189.952L216.709 158.13L212.933 132.914L197.893 134.843Z" fill="#473F47"/>
<path d="M224.332 132.914L232.835 167.882L225.96 191.952L219.145 191.603L220.098 171.064L208.097 137.856L224.332 132.914Z" fill="#473F47"/>
<path d="M247.743 103.913C248.766 103.316 249.86 102.851 251 102.527C251.179 102.447 251.374 102.412 251.57 102.425C251.765 102.437 251.955 102.497 252.122 102.6C252.299 102.765 252.413 102.986 252.447 103.226C252.624 103.998 252.561 104.806 252.266 105.541C253.551 106.252 254.9 106.841 256.295 107.3C256.586 107.35 256.864 107.459 257.111 107.621C257.358 107.783 257.568 107.994 257.73 108.241C257.817 108.499 257.824 108.777 257.751 109.039C257.678 109.301 257.528 109.535 257.32 109.711C256.898 110.061 256.39 110.29 255.849 110.374C252.351 111.194 246.658 110.374 245.825 106.192C245.644 105.275 245.982 105.119 246.706 104.6C247.092 104.347 247.442 104.13 247.743 103.913Z" fill="#FCBDBA"/>
<path d="M221.46 71.6462C222.255 73.2411 222.766 74.9625 222.968 76.7327C223.062 77.6166 222.923 78.5095 222.565 79.3233C222.208 80.1372 221.644 80.8437 220.93 81.3734C220.494 81.5743 220.089 81.8339 219.724 82.1448C218.445 83.4586 219.905 85.8332 219.169 87.5327C218.885 88.0922 218.403 88.5258 217.816 88.7487C217.229 88.9717 216.581 88.9678 215.997 88.7381C215.412 88.4827 214.893 88.1002 214.475 87.6185C214.058 87.1368 213.754 86.568 213.584 85.9537C213.259 84.7194 213.113 83.4448 213.15 82.1689L213.017 74.5752C212.848 72.8851 213.114 71.1798 213.789 69.6212C214.249 68.8274 214.919 68.1757 215.726 67.7377C216.532 67.2996 217.444 67.0922 218.361 67.1381C220.278 67.3792 220.821 70.1515 221.46 71.6462Z" fill="#FCBDBA"/>
<path d="M247.972 109.567C247.972 109.567 233.402 122.572 232.353 122.572C231.303 122.572 224.826 114.4 224.826 114.4L224.332 132.962C222.533 134.023 220.658 134.95 218.723 135.735C215.392 137.255 211.758 137.997 208.097 137.904C201.017 137.266 197.893 134.891 197.893 134.891L202.259 91.2934C202.259 91.2934 210.509 85.3631 213.331 86.2671C215.35 86.6286 217.416 86.6286 219.435 86.2671C223.511 85.7247 227.673 91.2934 227.673 91.2934L233.088 109.072L245.789 104.564C246.616 105.08 247.267 105.834 247.657 106.727C248.047 107.62 248.157 108.61 247.972 109.567Z" fill="white"/>
<path d="M223.065 63.4618C223.158 62.5043 222.934 61.5427 222.425 60.7257C221.448 59.3636 219.446 59.2431 217.806 59.6047C216.678 59.9138 215.586 60.3421 214.549 60.8824C213.786 61.1964 212.955 61.3045 212.137 61.1958C209.972 61.1573 207.872 61.9413 206.263 63.3895C204.044 65.4868 203.525 68.5846 203.296 71.4895C203.055 74.7801 204.502 77.5162 206.685 80.0234C208.53 82.2051 211.896 84.3506 214.296 81.5903C215.366 80.1872 215.854 78.4259 215.659 76.6725C215.084 76.6137 214.542 76.3763 214.109 75.9936C213.677 75.6108 213.375 75.1021 213.247 74.539C213.164 74.1852 213.181 73.8153 213.296 73.4706C213.411 73.1259 213.619 72.8198 213.898 72.5863C214.069 72.4834 214.259 72.4151 214.456 72.3854C214.654 72.3557 214.855 72.3652 215.049 72.4134C215.242 72.4615 215.425 72.5473 215.585 72.6659C215.746 72.7846 215.882 72.9336 215.985 73.1046C216.054 73.2128 216.107 73.3306 216.141 73.4542C216.489 72.7549 216.745 72.0134 216.901 71.2484C217.179 70.5131 218.107 69.8743 218.71 70.3685C219.06 70.6457 219.265 71.2605 219.712 71.164C219.86 71.1085 219.989 71.0124 220.085 70.8868C220.964 70.0427 221.704 69.0667 222.281 67.9939C222.82 66.7282 223.103 65.368 223.113 63.9922C223.067 63.8193 223.051 63.64 223.065 63.4618Z" fill="#FC682D"/>
<path d="M194.43 61.8467C192.897 61.6647 191.344 61.9551 189.979 62.6788C188.615 63.4025 187.504 64.5251 186.795 65.8966C185.119 69.3319 186.325 73.3939 186.602 77.2149C186.854 78.5412 186.648 79.9137 186.017 81.1073C185.385 82.3009 184.367 83.2448 183.129 83.7841C180.427 85.4113 177.315 86.5082 175.156 88.8104C173.456 90.7028 172.452 93.1176 172.309 95.6568C172.175 96.7152 172.359 97.7898 172.84 98.7425C173.312 99.4471 173.929 100.043 174.649 100.49C176.648 101.934 178.915 102.965 181.318 103.522C183.721 104.078 186.21 104.15 188.641 103.733C191.065 103.273 193.309 102.134 195.109 100.448C196.91 98.7615 198.193 96.5982 198.809 94.2104C199.87 89.1238 197.289 84.0733 196.312 78.9627C196.133 78.3639 196.076 77.7354 196.145 77.1144C196.213 76.4933 196.405 75.8922 196.71 75.3466C197.518 74.2618 199.014 74.0087 200.184 73.3216C206.516 69.5971 199.074 62.4734 194.43 61.8467Z" fill="#FC682D"/>
<path d="M203.453 66.7645H203.345C202.019 66.7645 200.944 67.8384 200.944 69.1631V69.2716C200.944 70.5964 202.019 71.6703 203.345 71.6703H203.453C204.779 71.6703 205.853 70.5964 205.853 69.2716V69.1631C205.853 67.8384 204.779 66.7645 203.453 66.7645Z" fill="#FE662E"/>
<path d="M222.559 196.497C222.407 196.37 222.274 196.224 222.161 196.063C222.001 196.169 221.82 196.239 221.631 196.269C221.441 196.298 221.247 196.285 221.063 196.231L219.471 195.99C219.188 195.959 218.912 195.886 218.651 195.773H218.542L218.216 196.436C217.672 197.615 217.361 198.888 217.3 200.185C220.327 200.827 223.426 201.062 226.515 200.884C226.764 200.914 227.017 200.877 227.246 200.775C227.476 200.673 227.673 200.511 227.817 200.306C227.877 200.171 227.908 200.025 227.908 199.878C227.908 199.73 227.877 199.585 227.817 199.45C227.668 199.147 227.458 198.877 227.201 198.657C226.944 198.438 226.645 198.273 226.322 198.172C225.49 197.847 224.645 197.581 223.837 197.196C223.381 197.023 222.95 196.788 222.559 196.497Z" fill="#FE662E"/>
<path d="M223.234 205.874H218.349L214.453 216.409H194.322L198.218 205.874H193.333L159.066 298.397H163.951L167.341 289.248H187.435L184.046 298.397H188.931L192.32 289.248H192.465V288.863L222.945 206.585V298.397H227.829V205.874H223.234ZM213.126 220.001L208.048 233.718H187.906L192.984 220.001H213.126ZM181.489 251.087L186.567 237.382H206.734L201.632 251.087H181.489ZM200.305 254.703L195.227 268.408H175.084L180.198 254.631L200.305 254.703ZM168.667 285.729L173.745 272.012H193.888L188.81 285.729H168.667Z" fill="#7474B4"/>
<path d="M347.396 143.762H273.953C270.975 143.762 268.562 146.175 268.562 149.15V197.979C268.562 200.955 270.975 203.367 273.953 203.367H347.396C350.374 203.367 352.788 200.955 352.788 197.979V149.15C352.788 146.175 350.374 143.762 347.396 143.762Z" fill="white"/>
<path d="M339.906 195.135H281.443V152.007H282.493V194.074H339.906V195.135Z" fill="#FE662E"/>
<path d="M282.131 179.634L281.576 178.73L296.315 169.677L317.99 173.016L337.144 161.975L337.675 162.891L318.195 174.125L318.014 174.089L296.545 170.786L282.131 179.634Z" fill="#FE662E"/>
<path d="M297.087 172.643C298.366 172.643 299.403 171.607 299.403 170.328C299.403 169.05 298.366 168.014 297.087 168.014C295.808 168.014 294.771 169.05 294.771 170.328C294.771 171.607 295.808 172.643 297.087 172.643Z" fill="#FE662E"/>
<path d="M318.086 175.885C319.365 175.885 320.402 174.849 320.402 173.571C320.402 172.293 319.365 171.257 318.086 171.257C316.807 171.257 315.771 172.293 315.771 173.571C315.771 174.849 316.807 175.885 318.086 175.885Z" fill="#FE662E"/>
<path d="M337.011 165.097C338.29 165.097 339.327 164.061 339.327 162.783C339.327 161.505 338.29 160.469 337.011 160.469C335.732 160.469 334.695 161.505 334.695 162.783C334.695 164.061 335.732 165.097 337.011 165.097Z" fill="#FE662E"/>
<path opacity="0.28" d="M297.087 172.643C298.366 172.643 299.403 171.607 299.403 170.328C299.403 169.05 298.366 168.014 297.087 168.014C295.808 168.014 294.771 169.05 294.771 170.328C294.771 171.607 295.808 172.643 297.087 172.643Z" fill="#020202"/>
<path opacity="0.28" d="M318.086 175.885C319.365 175.885 320.402 174.849 320.402 173.571C320.402 172.293 319.365 171.257 318.086 171.257C316.807 171.257 315.771 172.293 315.771 173.571C315.771 174.849 316.807 175.885 318.086 175.885Z" fill="#020202"/>
<path opacity="0.28" d="M337.011 165.097C338.29 165.097 339.327 164.061 339.327 162.783C339.327 161.505 338.29 160.469 337.011 160.469C335.732 160.469 334.695 161.505 334.695 162.783C334.695 164.061 335.732 165.097 337.011 165.097Z" fill="#020202"/>
<path d="M345.188 218.313C345.188 218.313 328.435 249.954 325.299 259.898C322.163 269.842 322.452 299.144 322.452 299.144H331.571C331.571 299.144 331.571 269.577 335.443 264.599C339.314 259.621 360.893 234.212 360.893 234.212L345.188 218.313Z" fill="#473F47"/>
<path d="M343.331 222.159C343.331 222.159 353.487 263.14 358.746 272.313C364.005 281.486 378.382 298.011 378.382 298.011L386.126 293.865C386.126 293.865 366.212 267.757 367.322 260.115C368.431 252.473 371.254 223.231 371.254 223.231C371.254 223.231 357.226 215.626 343.331 222.159Z" fill="#473F47"/>
<path d="M377.767 163.265C377.767 163.265 385.86 167.399 382.845 177.344C379.829 187.288 370.289 209.683 371.326 216.313C372.363 222.942 371.254 223.159 371.254 223.159C371.254 223.159 349.965 230.825 343.331 222.122C343.331 222.122 355.996 177.343 358.685 171.751C361.375 166.158 369.058 159.962 377.767 163.265Z" fill="#FE662E"/>
<path d="M373.569 185.371C372.783 187.818 371.68 190.152 370.288 192.314C369.587 193.607 368.745 194.82 367.78 195.93C365.042 198.871 360.941 199.992 357.274 201.607C356.618 201.865 356.01 202.231 355.477 202.692C354.931 203.311 354.498 204.021 354.198 204.789C352.208 209.141 349.53 213.552 345.164 215.517C346.961 208.659 348.783 201.8 350.833 195.026C351.072 193.77 351.58 192.581 352.324 191.54C353.067 190.5 354.028 189.633 355.139 188.999C359.722 185.636 364.27 182.213 368.901 178.91C370.481 177.777 372.134 176.5 373.473 178.549C374.643 180.345 374.112 183.491 373.569 185.371Z" fill="url(#paint4_linear_51_145691)"/>
<path d="M362.714 145.787C362.256 146.257 361.665 146.74 361.665 147.391C361.743 147.88 361.946 148.341 362.256 148.728C363.655 151.139 362.377 154.514 364.065 156.696C364.695 157.442 365.536 157.98 366.478 158.239C367.435 158.368 368.362 158.666 369.216 159.119C369.862 159.755 370.231 160.622 370.241 161.529C370.337 162.614 370.144 163.699 370.241 164.784C370.217 165.147 370.286 165.511 370.442 165.84C370.598 166.169 370.836 166.453 371.133 166.664C371.433 166.796 371.759 166.858 372.086 166.845C373.966 166.93 375.85 166.784 377.695 166.411C377.96 166.376 378.213 166.277 378.431 166.122C378.644 165.872 378.783 165.567 378.829 165.242C379.625 161.626 380.445 158.01 381.241 154.394C381.708 153.093 382.294 151.839 382.99 150.645C383.625 148.841 383.839 146.916 383.617 145.016C383.411 143.594 382.928 142.226 382.194 140.99C381.592 139.824 380.714 138.823 379.637 138.073C378.842 137.605 377.985 137.252 377.092 137.024C374.004 136.072 369.179 134.795 366.502 137.446C364.306 139.664 365.03 143.485 362.714 145.787Z" fill="#FCBDBA"/>
<path d="M362.388 149.837C363.052 149.428 365.199 150.283 366.007 150.271C368.552 150.199 370.627 151.477 372.665 149.91C374.329 148.704 374.993 146.547 375.572 144.57C375.584 144.462 375.584 144.353 375.572 144.245C375.548 144.106 375.495 143.974 375.415 143.859C374.474 142.485 372.556 142.34 370.94 141.942C368.057 141.11 365.466 139.485 363.462 137.253C362.931 136.797 362.573 136.171 362.449 135.482C362.479 135.083 362.604 134.698 362.814 134.359C363.024 134.019 363.312 133.734 363.655 133.529C365.717 132.227 368.21 131.794 370.59 132.324C372.937 132.865 375.252 133.533 377.526 134.324C379.721 134.939 381.988 135.313 384.172 136.012C384.638 136.146 385.081 136.349 385.486 136.615C386.02 137.037 386.435 137.589 386.693 138.218C387.079 139.01 387.281 139.88 387.281 140.761C387.281 141.642 387.079 142.512 386.693 143.304C386.535 143.537 386.417 143.793 386.343 144.064C386.33 144.337 386.367 144.611 386.451 144.871C386.994 147.282 385.8 149.693 384.642 151.778L381.627 157.395C381.321 158.073 380.868 158.674 380.3 159.155C380.013 159.388 379.657 159.522 379.287 159.535C378.917 159.548 378.552 159.44 378.249 159.227C377.622 158.685 377.586 157.6 376.85 157.238C376.601 157.157 376.337 157.13 376.076 157.162C375.816 157.193 375.565 157.281 375.343 157.419C374.016 158.058 372.93 159.07 371.628 159.83C369.376 161.084 366.722 161.408 364.234 160.734C363.503 160.553 362.82 160.216 362.232 159.745C360.941 158.636 361.026 157.154 361.291 155.647C361.556 154.14 361.026 150.681 362.388 149.837Z" fill="#473F47"/>
<path d="M375.886 178.874C375.886 178.874 367.177 201.258 332.609 205.537L331.402 200.715C331.402 200.715 354.488 191.591 359.47 182.334C360.901 179.732 362.139 177.029 363.173 174.246C364.741 169.906 369.77 167.568 373.799 169.822C376.187 171.16 377.671 173.812 375.886 178.874Z" fill="#FE662E"/>
<path d="M325.552 199.715C325.592 200.326 325.848 200.903 326.276 201.342C324.061 202.168 321.718 202.601 319.353 202.62C318.922 202.57 318.489 202.691 318.147 202.957C317.688 203.451 318.05 204.259 318.472 204.777C320.269 206.803 322.753 208.091 325.444 208.393C327.197 208.734 329.015 208.439 330.57 207.562C331.644 206.757 332.549 205.749 333.236 204.597C333.375 204.42 333.481 204.22 333.549 204.006C333.601 203.582 333.498 203.154 333.26 202.801C332.982 202.282 332.596 201.258 332.054 201.005C331.511 200.751 330.763 201.005 330.208 200.908C328.616 200.547 327.193 199.534 325.552 199.715Z" fill="#FCBDBA"/>
<path d="M392.542 298.602C392.716 298.727 392.858 298.892 392.956 299.082C393.054 299.273 393.105 299.484 393.105 299.699C393.105 299.913 393.054 300.125 392.956 300.315C392.858 300.506 392.716 300.671 392.542 300.796C388.798 304.826 384.315 308.1 379.335 310.438C377.96 311.077 376.066 311.535 375.125 310.342C374.184 309.149 375.185 307.341 375.981 305.967C377.057 304.122 377.715 302.065 377.911 299.94C377.913 299.212 378.056 298.491 378.333 297.818C379.31 296.022 384.111 294.202 386.101 294.202C388.743 294.178 390.926 296.77 392.542 298.602Z" fill="#36357E"/>
<path d="M334.586 305.629C334.681 305.822 334.727 306.036 334.721 306.251C334.715 306.466 334.656 306.676 334.551 306.864C334.445 307.051 334.295 307.21 334.114 307.327C333.934 307.444 333.727 307.515 333.512 307.534C328.263 309.173 322.747 309.787 317.266 309.342C315.746 309.209 313.876 308.667 313.647 307.16C313.418 305.653 315.191 304.581 316.566 303.797C318.403 302.725 319.99 301.275 321.222 299.542C321.579 298.908 322.063 298.353 322.645 297.915C324.382 296.83 329.472 297.59 331.209 298.59C333.5 299.904 334.104 303.231 334.586 305.629Z" fill="#36357E"/>
<path d="M108.046 294.697C107.994 296.234 108.278 297.764 108.878 299.181C109.635 300.501 110.774 301.56 112.147 302.218C115.087 303.749 118.505 304.086 121.687 303.158C122.119 303.072 122.507 302.837 122.785 302.495C122.95 302.207 123.017 301.873 122.978 301.543C122.737 299.789 121.846 298.189 120.481 297.059C119.122 295.953 117.959 294.624 117.044 293.13C115.584 290.165 116.67 282.281 111.109 283.583C106.466 284.632 107.913 291.418 108.046 294.697Z" fill="#FBB9AD"/>
<path d="M107.274 300.012C107.274 300.012 106.477 301.965 107.454 303.098C108.431 304.231 118.43 310.439 125.161 305.436C131.891 300.434 116.018 299.795 116.018 299.795L107.274 300.012Z" fill="#FE662E"/>
<path d="M107.66 295.504C107.964 295.351 108.314 295.313 108.644 295.397C108.975 295.481 109.263 295.682 109.457 295.962C110.113 296.71 110.95 297.278 111.886 297.613C112.823 297.948 113.83 298.04 114.812 297.879C117.008 297.36 117.876 294.829 118.962 294.817C120.047 294.805 125.861 299.759 126.198 301.881C126.536 304.002 123.557 305.569 120.276 305.774C116.995 305.979 109.541 303.701 108.13 301.977C107.535 301.016 107.181 299.925 107.099 298.798C107.018 297.671 107.21 296.541 107.66 295.504Z" fill="white"/>
<path d="M88.9765 297.722C88.912 299.26 89.1965 300.793 89.8087 302.206C90.5654 303.523 91.7055 304.578 93.0774 305.231C96.0129 306.763 99.4275 307.1 102.606 306.172C103.043 306.09 103.436 305.854 103.716 305.509C103.875 305.222 103.942 304.894 103.909 304.569C103.665 302.815 102.775 301.216 101.412 300.085C100.062 298.973 98.9007 297.65 97.9744 296.167C96.5149 293.214 97.6005 285.319 92.0401 286.621C87.3964 287.682 88.8438 294.48 88.9765 297.722Z" fill="#FBB9AD"/>
<path d="M88.2042 303.062C88.2042 303.062 87.4081 305.002 88.3851 306.135C89.3621 307.269 99.337 313.476 106.067 308.486C112.798 303.496 96.9488 302.845 96.9488 302.845L88.2042 303.062Z" fill="#FE662E"/>
<path d="M88.5902 298.542C88.8965 298.392 89.2463 298.357 89.5761 298.443C89.906 298.53 90.1938 298.731 90.3874 299.012C91.0403 299.764 91.8759 300.335 92.8139 300.671C93.7519 301.007 94.7605 301.095 95.7427 300.928C97.9259 300.398 98.8064 297.879 99.8799 297.867C100.953 297.855 106.779 302.797 107.117 304.918C107.455 307.039 104.475 308.606 101.195 308.811C97.9138 309.016 90.4718 306.75 89.0606 305.026C88.4624 304.065 88.1071 302.972 88.0251 301.842C87.9432 300.712 88.1371 299.58 88.5902 298.542Z" fill="white"/>
<path d="M84.9846 215.686C84.9846 215.686 83.9593 272.783 88.1809 291.828L98.9278 293.154L101.859 215.119L84.9846 215.686Z" fill="#473F47"/>
<path d="M114.668 209.514C114.668 209.514 123.219 240.251 117.08 289.707L106.333 291.032L99.5664 212.19L114.668 209.514Z" fill="#473F47"/>
<path d="M130.746 184.913C130.625 186.986 129.962 188.77 128.164 189.373C128.011 189.424 127.853 189.465 127.694 189.493C124.401 190.156 120.071 187.649 117.068 185.456C115.809 184.551 114.601 183.577 113.449 182.539V160.444L129.539 176.861C130.374 179.463 130.781 182.182 130.746 184.913Z" fill="white"/>
<path d="M117.189 185.359C117.189 186.396 117.321 187.432 117.321 188.469C117.321 194.158 116.007 200.04 117.695 205.633C118.251 206.821 118.42 208.153 118.178 209.442C117.683 210.476 116.824 211.292 115.766 211.732C110.736 214.48 104.91 215.348 99.2653 216.12C94.9955 216.722 88.9406 217.988 84.9965 215.686C83.3199 214.709 82.753 212.889 82.2102 211.069C80.7013 205.187 79.8119 199.164 79.5567 193.097C79.5567 192.302 79.4361 191.518 79.3999 190.687C79.0702 185.239 78.9576 179.782 79.0622 174.318C79.1345 170.352 79.4481 166.073 82.0414 163.084C85.4789 159.107 92.1369 156.467 97.2028 155.539C98.8404 155.2 100.519 155.107 102.184 155.261C104.542 155.635 106.819 156.41 108.915 157.552C111.423 158.757 113.655 159.842 114.945 162.313C116.3 165.18 117.246 168.223 117.756 171.353C118.23 174.287 118.295 177.272 117.949 180.224C117.804 181.671 117.43 183.105 117.285 184.539C117.229 184.809 117.196 185.084 117.189 185.359Z" fill="white"/>
<path opacity="0.1" d="M93.9214 217.626C92.269 218.109 88.4575 216.59 87.1911 216.421C86.4312 216.288 85.7437 215.903 84.9838 215.734C81.2085 214.794 80.7623 204.187 80.4004 201.33C79.4234 193.797 77.9157 185.986 77.8072 178.428C77.6375 175.511 77.9763 172.587 78.8083 169.786C79.2319 168.387 79.9582 167.098 80.9358 166.011C81.9134 164.923 83.1183 164.064 84.4652 163.494C89.2898 161.758 90.7251 177.006 91.3885 180.164C92.0519 183.322 92.1363 188.915 94.223 191.446C96.3096 193.977 100.483 194.447 103.209 193.17C104.675 192.434 105.895 191.288 106.719 189.871C107.544 188.454 107.938 186.827 107.853 185.19C107.688 184.056 107.595 182.913 107.575 181.767C107.576 181.192 107.741 180.629 108.051 180.145C108.361 179.66 108.803 179.274 109.324 179.031C109.816 178.908 110.333 178.924 110.816 179.077C111.3 179.231 111.731 179.515 112.062 179.899C112.705 180.689 113.166 181.611 113.413 182.599C114.037 184.664 114.441 186.789 114.619 188.939C115.102 194.038 114.33 199.269 115.548 204.247C116.093 205.795 116.354 207.428 116.32 209.068C116.043 210.426 115.306 211.646 114.234 212.524C113.162 213.402 111.82 213.885 110.434 213.89C109.043 213.837 107.686 213.449 106.479 212.758C105.271 212.068 104.248 211.095 103.498 209.924C103.257 209.505 102.933 209.14 102.545 208.851C102.113 208.634 101.629 208.538 101.146 208.574C98.8426 208.574 95.5377 209.105 94.7899 211.684C94.2592 213.528 95.5377 215.3 94.5366 217.205C94.3894 217.415 94.1708 217.565 93.9214 217.626Z" fill="#020202"/>
<path d="M106.972 148.282C106.571 149.082 105.888 149.705 105.054 150.03C104.038 150.26 103.07 150.668 102.196 151.236C101.487 152.003 101.036 152.972 100.905 154.008L100.218 157.214L99.8559 158.829C99.8088 159.121 99.7108 159.403 99.5664 159.661C99.3628 159.888 99.1109 160.067 98.829 160.184C98.5472 160.3 98.2428 160.352 97.9381 160.336C96.6669 160.389 95.4084 160.066 94.3196 159.408C94.1292 159.325 93.9721 159.181 93.8733 158.998C93.7778 158.774 93.7526 158.526 93.801 158.287L94.199 153.67C94.4201 152.408 94.221 151.108 93.6321 149.97C92.3029 147.555 91.3165 144.967 90.7012 142.28C90.4859 141.534 90.4354 140.75 90.5531 139.982C90.6709 139.214 90.954 138.481 91.3829 137.834C91.8119 137.186 92.3765 136.639 93.0376 136.231C93.6987 135.823 94.4407 135.563 95.2122 135.47C97.4686 134.777 99.8772 134.752 102.148 135.397C102.992 135.687 103.245 136.265 103.643 137.024C104.234 138.23 104.849 139.435 105.296 140.641C105.742 141.846 106.345 143.437 106.791 144.883C107.254 145.959 107.318 147.164 106.972 148.282Z" fill="#FBB9AD"/>
<path d="M141.119 171.534C141.263 171.293 141.541 171.052 141.77 171.196C141.863 171.289 141.93 171.406 141.963 171.534C142.095 171.765 142.287 171.958 142.518 172.091C142.749 172.224 143.011 172.294 143.278 172.293C143.796 172.293 144.339 172.209 144.87 172.209C145.563 172.231 146.242 172.413 146.853 172.741C147.464 173.07 147.991 173.535 148.392 174.101C149.189 175.246 149.633 176.6 149.67 177.994C149.812 179.248 149.467 180.508 148.705 181.514C147.499 182.924 145.316 182.96 143.446 182.9H141.734C141.329 182.953 140.92 182.849 140.59 182.609C140.26 182.369 140.034 182.012 139.961 181.61C139.261 179.911 137.995 178.211 138.863 176.5C139.731 174.788 140.081 172.739 141.119 171.534Z" fill="#FBB9AD"/>
<path d="M107.454 189.493V176.717C107.454 176.217 107.605 175.729 107.887 175.316C108.169 174.903 108.569 174.584 109.035 174.402L140.696 161.807C142.337 161.156 145.678 163.108 145.678 164.868L144.122 194.435C144.122 194.929 143.976 195.412 143.701 195.822C143.426 196.232 143.035 196.551 142.578 196.738L112.424 210.623C110.771 211.298 107.406 209.346 107.406 207.574L107.454 189.493Z" fill="#FE662E"/>
<path d="M107.455 189.493V176.717C107.444 176.216 107.588 175.724 107.869 175.309C108.15 174.895 108.554 174.578 109.023 174.402L140.697 161.807C142.337 161.156 145.678 163.108 145.678 164.868L144.122 194.435C144.122 194.929 143.974 195.411 143.7 195.82C143.425 196.23 143.035 196.549 142.578 196.738L112.424 210.623C110.784 211.298 107.419 209.346 107.419 207.574L107.455 189.493Z" fill="url(#paint5_linear_51_145691)"/>
<path d="M109.035 190.241V177.464C109.034 176.963 109.184 176.472 109.466 176.057C109.748 175.642 110.148 175.322 110.615 175.138L142.277 162.554C142.656 162.402 143.066 162.346 143.471 162.389C143.877 162.432 144.266 162.574 144.604 162.803C144.942 163.031 145.219 163.339 145.41 163.699C145.602 164.059 145.702 164.46 145.702 164.868V195.219C145.702 195.712 145.554 196.194 145.28 196.604C145.005 197.014 144.615 197.333 144.158 197.521L112.497 210.659C112.193 210.786 111.867 210.85 111.538 210.85C111.209 210.85 110.883 210.784 110.579 210.658C110.275 210.531 110 210.346 109.768 210.112C109.536 209.879 109.352 209.602 109.228 209.297C109.1 208.996 109.034 208.672 109.035 208.345V190.241Z" fill="#FE662E"/>
<path d="M109.035 177.464L130.746 188.626L145.099 163.313C145.099 163.313 145.654 162.988 145.654 164.868V195.219L109.035 206.597V177.464Z" fill="url(#paint6_linear_51_145691)"/>
<path d="M101.509 136.832C101.287 137.166 101.002 137.454 100.668 137.677C100.335 137.901 99.9606 138.056 99.5667 138.133C97.4197 138.591 96.1171 137.555 95.0315 140.05C94.6815 140.904 94.573 141.838 94.7179 142.75C94.7179 142.943 95.3934 145.076 95.5623 144.968C95.0074 145.366 94.5732 144.281 93.9701 143.967C93.367 143.654 92.4745 144.57 92.6192 145.353C92.8709 146.123 93.3201 146.813 93.9219 147.354C94.8861 148.55 95.4174 150.037 95.4296 151.573C95.4296 151.923 95.2969 152.393 94.935 152.405C94.5732 152.417 94.1752 151.911 93.8977 151.718C93.4559 151.422 92.9923 151.16 92.5107 150.934C91.0392 150.235 88.8198 150.018 87.5895 149.03C86.9554 148.502 86.5282 147.768 86.3834 146.957C86.3834 146.764 86.3834 144.691 86.7452 144.799C86.3798 144.69 86.0398 144.51 85.7448 144.269C85.4499 144.027 85.2061 143.729 85.0276 143.393C84.8491 143.056 84.7394 142.687 84.705 142.308C84.6707 141.929 84.7123 141.546 84.8274 141.183C84.9894 140.673 85.2851 140.215 85.6838 139.857C84.1761 137.76 84.8757 134.65 86.6849 132.806C88.6268 131.071 91.0843 130.021 93.6806 129.816C96.5013 129.372 99.3856 129.561 102.124 130.371C103.074 130.634 103.952 131.107 104.693 131.757C105.055 132.084 105.333 132.494 105.503 132.952C105.673 133.409 105.73 133.901 105.67 134.385C105.51 134.45 105.336 134.467 105.167 134.435C104.998 134.403 104.841 134.323 104.717 134.204C104.877 134.639 104.857 135.119 104.663 135.539C104.468 135.96 104.115 136.286 103.68 136.446C103.354 136.564 103.001 136.584 102.664 136.502C102.327 136.421 102.022 136.242 101.786 135.988C101.762 136.287 101.667 136.576 101.509 136.832Z" fill="#473F47"/>
<path d="M102.883 150.705L102.521 150.814C102.413 150.825 102.311 150.871 102.232 150.946C102.208 151.029 102.208 151.117 102.232 151.199C101.523 151.967 101.072 152.936 100.941 153.972L100.254 157.178C99.0928 155.128 98.2164 152.931 97.6484 150.645C99.3866 150.846 101.141 150.866 102.883 150.705Z" fill="#DC9F95"/>
<path d="M104.717 189.614C104.92 189.365 105.182 189.169 105.478 189.045C105.775 188.921 106.098 188.872 106.418 188.903C106.782 189.086 107.129 189.299 107.455 189.542C107.763 189.679 108.095 189.753 108.432 189.759C109.796 189.856 111.165 189.663 112.449 189.192C113.096 188.877 113.803 188.7 114.523 188.674C114.954 188.758 115.361 188.934 115.717 189.189C116.073 189.445 116.369 189.775 116.586 190.156C117.228 191.077 117.589 192.163 117.625 193.284C117.662 194.405 117.372 195.513 116.791 196.472C116.252 197.252 115.543 197.9 114.716 198.365C112.885 199.323 110.849 199.828 108.782 199.835C106.732 199.932 104.645 199.835 102.606 199.932C102.124 200.02 101.625 199.952 101.183 199.739C100.939 199.512 100.75 199.232 100.631 198.921C100.512 198.609 100.465 198.275 100.496 197.943C100.423 196.388 100.158 195.074 101.063 193.76C102.2 192.309 103.42 190.924 104.717 189.614Z" fill="#FBB9AD"/>
<path d="M82.0652 163.096C82.0652 163.096 59.4015 192.712 66.5661 203.174C73.7307 213.637 103.957 201.451 103.957 201.451L101.014 192.784C101.014 192.784 79.7856 195.472 79.6288 193.097C79.472 190.723 93.0895 177.127 93.0895 177.127C93.0895 177.127 95.526 157.226 82.0652 163.096Z" fill="white"/>
<defs>
<linearGradient id="paint0_linear_51_145691" x1="221.581" y1="199.498" x2="239.481" y2="351.713" gradientUnits="userSpaceOnUse">
<stop offset="0.01"/>
<stop offset="0.08" stop-opacity="0.69"/>
<stop offset="0.21" stop-opacity="0.32"/>
<stop offset="1" stop-opacity="0"/>
</linearGradient>
<linearGradient id="paint1_linear_51_145691" x1="238.588" y1="187.697" x2="244.852" y2="273.652" gradientUnits="userSpaceOnUse">
<stop offset="0.01"/>
<stop offset="0.08" stop-opacity="0.69"/>
<stop offset="0.21" stop-opacity="0.32"/>
<stop offset="1" stop-opacity="0"/>
</linearGradient>
<linearGradient id="paint2_linear_51_145691" x1="85.8042" y1="408.096" x2="552.648" y2="6.65889" gradientUnits="userSpaceOnUse">
<stop offset="0.01"/>
<stop offset="0.08" stop-opacity="0.69"/>
<stop offset="0.21" stop-opacity="0.32"/>
<stop offset="1" stop-opacity="0"/>
</linearGradient>
<linearGradient id="paint3_linear_51_145691" x1="195.878" y1="92.4144" x2="266.734" y2="250.279" gradientUnits="userSpaceOnUse">
<stop offset="0.01"/>
<stop offset="0.08" stop-opacity="0.69"/>
<stop offset="0.21" stop-opacity="0.32"/>
<stop offset="1" stop-opacity="0"/>
</linearGradient>
<linearGradient id="paint4_linear_51_145691" x1="329.388" y1="158.383" x2="403.661" y2="254.389" gradientUnits="userSpaceOnUse">
<stop offset="0.01"/>
<stop offset="0.08" stop-opacity="0.69"/>
<stop offset="0.21" stop-opacity="0.32"/>
<stop offset="1" stop-opacity="0"/>
</linearGradient>
<linearGradient id="paint5_linear_51_145691" x1="100.942" y1="157.66" x2="184.708" y2="251.239" gradientUnits="userSpaceOnUse">
<stop offset="0.01"/>
<stop offset="0.13" stop-opacity="0.69"/>
<stop offset="0.25" stop-opacity="0.32"/>
<stop offset="1" stop-opacity="0"/>
</linearGradient>
<linearGradient id="paint6_linear_51_145691" x1="122.303" y1="152.115" x2="135.132" y2="237.18" gradientUnits="userSpaceOnUse">
<stop offset="0.01"/>
<stop offset="0.13" stop-opacity="0.69"/>
<stop offset="0.25" stop-opacity="0.32"/>
<stop offset="1" stop-opacity="0"/>
</linearGradient>
</defs>
</svg>