<svg width="300" height="64" viewBox="0 0 300 64" fill="none" xmlns="http://www.w3.org/2000/svg">
<path d="M36.36 29.38C36.36 22 30.42 16.78 22.08 16.78H4.74V58H6.9V41.98H21.06L32.28 58H34.92L23.64 41.92C31.14 41.32 36.36 36.28 36.36 29.38ZM6.9 18.94H21.66C28.98 18.94 34.2 23.26 34.2 29.38C34.2 35.5 28.98 39.82 21.66 39.82H6.9V18.94ZM108.559 58H126.499C133.639 58 138.739 53.32 138.739 46.72C138.739 42.16 135.679 37.9 131.359 36.52C134.719 35.38 137.119 31.42 137.119 27.04C137.119 21.04 132.439 16.78 125.779 16.78H108.559V58ZM110.719 35.44V18.94H125.779C131.179 18.94 134.959 22.3 134.959 27.04C134.959 31.96 131.479 35.44 126.499 35.44H110.719ZM110.719 55.84V37.6H126.499C132.379 37.6 136.579 41.38 136.579 46.72C136.579 52.06 132.379 55.84 126.499 55.84H110.719ZM169.297 58.66C177.457 58.66 183.217 53.98 183.217 47.38C183.217 41.62 179.317 38.38 169.657 36.1C160.777 33.94 157.237 31.54 157.237 27.58C157.237 22.06 161.737 18.16 168.157 18.16C172.957 18.16 177.637 20.14 181.177 23.56L182.497 21.88C178.477 18.16 173.317 16 168.277 16C160.537 16 155.077 20.86 155.077 27.76C155.077 32.92 158.917 35.86 168.577 38.08C177.517 40.18 181.057 42.88 181.057 47.56C181.057 52.78 176.197 56.5 169.357 56.5C163.717 56.5 158.137 54.22 154.357 50.44L153.037 52.12C157.237 56.26 163.237 58.66 169.297 58.66ZM218.769 58.72C230.229 58.72 239.829 48.94 239.829 37.36C239.829 25.78 230.229 16.06 218.769 16.06C207.309 16.06 197.649 25.78 197.649 37.36C197.649 48.94 207.309 58.72 218.769 58.72ZM218.769 56.56C208.449 56.56 199.809 47.8 199.809 37.36C199.809 26.98 208.449 18.22 218.769 18.22C229.029 18.22 237.669 26.98 237.669 37.36C237.669 47.8 229.029 56.56 218.769 56.56ZM256.667 58H258.827V20.14L286.907 58H289.067V16.78H286.907V54.64L258.827 16.78H256.667V58Z" fill="black"/>
<path d="M70.6603 58.72C82.1203 58.72 91.7203 48.94 91.7203 37.36C91.7203 25.78 82.1203 16.06 70.6603 16.06C59.2003 16.06 49.5403 25.78 49.5403 37.36C49.5403 48.94 59.2003 58.72 70.6603 58.72ZM70.6603 56.56C60.3403 56.56 51.7003 47.8 51.7003 37.36C51.7003 26.98 60.3403 18.22 70.6603 18.22C80.9203 18.22 89.5603 26.98 89.5603 37.36C89.5603 47.8 80.9203 56.56 70.6603 56.56Z" fill="#FE5517"/>
<path d="M38.841 12.3579C40.147 11.8965 41.348 11.7327 42.4684 11.7687C44.0593 11.8198 45.4164 12.2729 46.5712 12.7215C46.8514 12.8304 47.1129 12.9357 47.3602 13.0351C48.186 13.3674 48.8526 13.6356 49.5288 13.7634C50.3068 13.9104 51.013 13.8458 51.818 13.3313C53.5643 12.2154 55.0603 11.9305 56.1623 11.8949C55.8985 11.3928 55.707 10.9139 55.5406 10.4824C55.5144 10.4145 55.489 10.3484 55.4643 10.2838C55.2567 9.74282 55.091 9.31106 54.8523 8.8947C54.381 8.07263 53.5556 7.19903 51.1602 6.38223L50.9292 6.30347L50.7532 6.13468C49.8077 5.2282 48.6102 5.01423 47.1937 5.34582C45.7416 5.68576 44.1581 6.5891 42.7092 7.77375C41.2675 8.95247 40.0416 10.3422 39.2857 11.5531C39.1046 11.8431 38.9569 12.1127 38.841 12.3579Z" fill="#37B34A" stroke="#37B34A" stroke-width="2.1941"/>
<path d="M42.1172 10.3265C41.1796 11.2855 48.5947 6.46918 53.8629 10.4821" stroke="white" stroke-width="0.548526"/>
<path d="M62.9989 11.4382L60.3048 9.74054L60.2848 9.75311C59.71 10.1153 59.3147 10.3643 58.782 11.1184C58.2859 11.8205 57.0249 14.8746 57.0249 15.8424C57.4935 16.3935 58.9225 16.2689 59.1334 16.0392C59.4614 13.6526 62.5382 11.4464 62.9989 11.4382Z" fill="#37B34A" stroke="#37B34A" stroke-width="0.548526"/>
<path d="M66.9929 50.7945L70.1646 57.3923L76.3638 52.4763M66.9929 50.7945L65.2629 39.4401M66.9929 50.7945L76.3638 42.8157V52.4763M66.9929 50.7945L76.3638 52.4763M76.3638 52.4763L84.8696 45.731L81.1213 54.0167L76.3638 52.4763Z" stroke="#FE5517" stroke-width="1.09705"/>
<path d="M57.986 21.488L55.1943 33.8152L65.0386 38.9646L76.2053 42.8656L84.8742 45.0502H87.5189" stroke="#FE5517" stroke-width="1.09705"/>
<path d="M69.0898 17L66.5874 17.9381M66.5874 17.9381L65.1155 26.068M66.5874 17.9381L60.258 19.5015L57.9028 21.6904M66.5874 17.9381L75.8609 22.7848L65.1155 26.068M66.5874 17.9381L61.3214 20.267L57.9028 22.346M57.9028 22.346L52.7509 28.2569L52.0149 30.6021L55.106 33.5726M57.9028 22.346L65.1155 26.068M55.106 33.5726L52.0149 42.9534L57.9028 45.6112M55.106 33.5726L57.9028 45.6112M55.106 33.5726L65.1155 26.068M57.9028 45.6112L65.1155 39.2011V26.068" stroke="#FE5517" stroke-width="1.09705"/>
<path d="M76.3912 22.61V18.1219H66.8528" stroke="#FE5517" stroke-width="1.09705"/>
<path d="M76.726 18.1219L84.8695 24.5112L76.726 22.6412L73.6167 32.1471L64.7329 25.7578" stroke="#FE5517" stroke-width="1.09705"/>
<path d="M73.7414 32.1471C70.2542 34.7175 66.2828 37.7062 64.7329 38.8792" stroke="#FE5517" stroke-width="1.09705"/>
<path d="M82.9265 32.5698L76.0082 42.5849L73.2114 32.5698H82.9265ZM82.9265 32.5698L76.0082 23.171M82.9265 32.5698L85.1344 24.7118L89.1088 35.3432M82.9265 32.5698L89.1088 35.3432M82.9265 32.5698L85.1344 45.0502L89.1088 35.3432" stroke="#FE5517" stroke-width="1.09705"/>
<path d="M81.6898 53.4653L70.0317 57.3923" stroke="#FE5517" stroke-width="1.09705"/>
<path d="M70.032 57.3923L58.2029 53.1847M58.2029 53.1847L66.235 51.0031L57.4727 45.5488L58.2029 53.1847ZM58.2029 53.1847L51.4851 43.3672" stroke="#FE5517" stroke-width="1.09705"/>
</svg>
